<mxfile host="Electron" agent="Mozilla/5.0 (Windows NT 10.0; Win64; x64) AppleWebKit/537.36 (KHTML, like Gecko) draw.io/24.7.8 Chrome/128.0.6613.36 Electron/32.0.1 Safari/537.36" version="24.7.8">
  <diagram name="Page-1" id="FU6_ZFj3PDVp-BaARSxE">
    <mxGraphModel dx="6268" dy="3968" grid="1" gridSize="10" guides="1" tooltips="1" connect="1" arrows="1" fold="1" page="1" pageScale="1" pageWidth="850" pageHeight="1100" math="0" shadow="0">
      <root>
        <mxCell id="0" />
        <mxCell id="1" parent="0" />
        <mxCell id="IgH56LYgwVDKT2t8ZM1N-34" value="" style="rounded=1;whiteSpace=wrap;html=1;" parent="1" vertex="1">
          <mxGeometry x="-2940" y="-1830" width="3420" height="1360" as="geometry" />
        </mxCell>
        <mxCell id="6JZ951tkPi9Nr6TmQ6ol-1" value="" style="rounded=0;whiteSpace=wrap;html=1;" parent="1" vertex="1">
          <mxGeometry x="-1410" y="324" width="1140" height="656" as="geometry" />
        </mxCell>
        <mxCell id="6JZ951tkPi9Nr6TmQ6ol-33" value="Auth Controller Routes" style="swimlane;fontStyle=0;childLayout=stackLayout;horizontal=1;startSize=30;horizontalStack=0;resizeParent=1;resizeParentMax=0;resizeLast=0;collapsible=1;marginBottom=0;whiteSpace=wrap;html=1;" parent="1" vertex="1">
          <mxGeometry x="-1380" y="740" width="170" height="120" as="geometry">
            <mxRectangle x="-1135" y="532" width="80" height="30" as="alternateBounds" />
          </mxGeometry>
        </mxCell>
        <mxCell id="6JZ951tkPi9Nr6TmQ6ol-34" value="/api/auth/login(POST)" style="text;strokeColor=none;fillColor=none;align=left;verticalAlign=middle;spacingLeft=4;spacingRight=4;overflow=hidden;points=[[0,0.5],[1,0.5]];portConstraint=eastwest;rotatable=0;whiteSpace=wrap;html=1;" parent="6JZ951tkPi9Nr6TmQ6ol-33" vertex="1">
          <mxGeometry y="30" width="170" height="30" as="geometry" />
        </mxCell>
        <mxCell id="6JZ951tkPi9Nr6TmQ6ol-35" value="/api/auth/register(POST)" style="text;strokeColor=none;fillColor=none;align=left;verticalAlign=middle;spacingLeft=4;spacingRight=4;overflow=hidden;points=[[0,0.5],[1,0.5]];portConstraint=eastwest;rotatable=0;whiteSpace=wrap;html=1;" parent="6JZ951tkPi9Nr6TmQ6ol-33" vertex="1">
          <mxGeometry y="60" width="170" height="30" as="geometry" />
        </mxCell>
        <mxCell id="6JZ951tkPi9Nr6TmQ6ol-36" value="/api/auth/me(GET)" style="text;strokeColor=none;fillColor=none;align=left;verticalAlign=middle;spacingLeft=4;spacingRight=4;overflow=hidden;points=[[0,0.5],[1,0.5]];portConstraint=eastwest;rotatable=0;whiteSpace=wrap;html=1;" parent="6JZ951tkPi9Nr6TmQ6ol-33" vertex="1">
          <mxGeometry y="90" width="170" height="30" as="geometry" />
        </mxCell>
        <mxCell id="6JZ951tkPi9Nr6TmQ6ol-37" value="&lt;font style=&quot;font-size: 20px;&quot;&gt;Auth Api Microservice&lt;/font&gt;" style="text;html=1;align=center;verticalAlign=middle;resizable=0;points=[];autosize=1;strokeColor=none;fillColor=none;" parent="1" vertex="1">
          <mxGeometry x="-960" y="324" width="220" height="40" as="geometry" />
        </mxCell>
        <mxCell id="QxZh3QZaXFdnJh5QPRap-1" style="edgeStyle=orthogonalEdgeStyle;rounded=0;orthogonalLoop=1;jettySize=auto;html=1;exitX=0.5;exitY=1;exitDx=0;exitDy=0;" parent="1" source="6JZ951tkPi9Nr6TmQ6ol-2" target="6JZ951tkPi9Nr6TmQ6ol-33" edge="1">
          <mxGeometry relative="1" as="geometry" />
        </mxCell>
        <mxCell id="QxZh3QZaXFdnJh5QPRap-29" style="edgeStyle=orthogonalEdgeStyle;rounded=0;orthogonalLoop=1;jettySize=auto;html=1;exitX=1;exitY=0.5;exitDx=0;exitDy=0;entryX=0;entryY=0.25;entryDx=0;entryDy=0;" parent="1" source="6JZ951tkPi9Nr6TmQ6ol-2" target="QxZh3QZaXFdnJh5QPRap-12" edge="1">
          <mxGeometry relative="1" as="geometry" />
        </mxCell>
        <mxCell id="6JZ951tkPi9Nr6TmQ6ol-2" value="NestJs" style="rhombus;whiteSpace=wrap;html=1;" parent="1" vertex="1">
          <mxGeometry x="-1365" y="350" width="140" height="120" as="geometry" />
        </mxCell>
        <mxCell id="QxZh3QZaXFdnJh5QPRap-5" style="edgeStyle=orthogonalEdgeStyle;rounded=0;orthogonalLoop=1;jettySize=auto;html=1;exitX=0.5;exitY=1;exitDx=0;exitDy=0;" parent="1" source="QxZh3QZaXFdnJh5QPRap-4" target="6JZ951tkPi9Nr6TmQ6ol-1" edge="1">
          <mxGeometry relative="1" as="geometry">
            <Array as="points">
              <mxPoint x="-850" y="290" />
              <mxPoint x="-850" y="290" />
            </Array>
          </mxGeometry>
        </mxCell>
        <mxCell id="QxZh3QZaXFdnJh5QPRap-67" style="edgeStyle=orthogonalEdgeStyle;rounded=0;orthogonalLoop=1;jettySize=auto;html=1;exitX=0.5;exitY=1;exitDx=0;exitDy=0;" parent="1" source="QxZh3QZaXFdnJh5QPRap-4" target="QxZh3QZaXFdnJh5QPRap-33" edge="1">
          <mxGeometry relative="1" as="geometry" />
        </mxCell>
        <mxCell id="RTL6kd38lY_tx-6XgPDL-107" style="edgeStyle=orthogonalEdgeStyle;rounded=0;orthogonalLoop=1;jettySize=auto;html=1;exitX=0.5;exitY=1;exitDx=0;exitDy=0;entryX=0.5;entryY=0;entryDx=0;entryDy=0;" parent="1" source="QxZh3QZaXFdnJh5QPRap-4" target="RTL6kd38lY_tx-6XgPDL-105" edge="1">
          <mxGeometry relative="1" as="geometry" />
        </mxCell>
        <mxCell id="eud57FVcPFkQBdtwtgkk-3" style="edgeStyle=orthogonalEdgeStyle;rounded=0;orthogonalLoop=1;jettySize=auto;html=1;exitX=0.5;exitY=1;exitDx=0;exitDy=0;entryX=0.5;entryY=0;entryDx=0;entryDy=0;" parent="1" source="QxZh3QZaXFdnJh5QPRap-4" target="eud57FVcPFkQBdtwtgkk-2" edge="1">
          <mxGeometry relative="1" as="geometry" />
        </mxCell>
        <mxCell id="QxZh3QZaXFdnJh5QPRap-4" value="" style="rhombus;whiteSpace=wrap;html=1;" parent="1" vertex="1">
          <mxGeometry x="-950" y="44" width="200" height="180" as="geometry" />
        </mxCell>
        <mxCell id="QxZh3QZaXFdnJh5QPRap-6" value="API Gateway Nginx" style="text;html=1;align=center;verticalAlign=middle;whiteSpace=wrap;rounded=0;" parent="1" vertex="1">
          <mxGeometry x="-900" y="119" width="100" height="30" as="geometry" />
        </mxCell>
        <mxCell id="QxZh3QZaXFdnJh5QPRap-7" value="&lt;span style=&quot;color: rgb(240, 240, 240); font-family: Helvetica; font-size: 12px; font-style: normal; font-variant-ligatures: normal; font-variant-caps: normal; font-weight: 400; letter-spacing: normal; orphans: 2; text-align: center; text-indent: 0px; text-transform: none; widows: 2; word-spacing: 0px; -webkit-text-stroke-width: 0px; white-space: nowrap; background-color: rgb(27, 29, 30); text-decoration-thickness: initial; text-decoration-style: initial; text-decoration-color: initial; display: inline !important; float: none;&quot;&gt;/api/auth/&lt;/span&gt;" style="text;html=1;align=center;verticalAlign=middle;whiteSpace=wrap;rounded=0;" parent="1" vertex="1">
          <mxGeometry x="-940" y="290" width="90" height="34" as="geometry" />
        </mxCell>
        <mxCell id="QxZh3QZaXFdnJh5QPRap-12" value="&lt;span style=&quot;font-weight: 700;&quot;&gt;GRPC Controller&lt;/span&gt;" style="swimlane;fontStyle=0;childLayout=stackLayout;horizontal=1;startSize=30;horizontalStack=0;resizeParent=1;resizeParentMax=0;resizeLast=0;collapsible=1;marginBottom=0;whiteSpace=wrap;html=1;" parent="1" vertex="1">
          <mxGeometry x="-1170" y="380" width="140" height="60" as="geometry" />
        </mxCell>
        <mxCell id="QxZh3QZaXFdnJh5QPRap-13" value="ValidateToken" style="text;strokeColor=none;fillColor=none;align=left;verticalAlign=middle;spacingLeft=4;spacingRight=4;overflow=hidden;points=[[0,0.5],[1,0.5]];portConstraint=eastwest;rotatable=0;whiteSpace=wrap;html=1;" parent="QxZh3QZaXFdnJh5QPRap-12" vertex="1">
          <mxGeometry y="30" width="140" height="30" as="geometry" />
        </mxCell>
        <mxCell id="QxZh3QZaXFdnJh5QPRap-18" value="&lt;p style=&quot;line-height: 120%; font-size: 10px;&quot;&gt;Other api endpoints in system will make middleware that is going to call this procedure to validate token and return associated user to them every authorized request.&lt;/p&gt;" style="text;html=1;align=left;verticalAlign=middle;whiteSpace=wrap;rounded=0;" parent="1" vertex="1">
          <mxGeometry x="-980" y="370" width="190" height="70" as="geometry" />
        </mxCell>
        <mxCell id="QxZh3QZaXFdnJh5QPRap-20" style="edgeStyle=orthogonalEdgeStyle;rounded=0;orthogonalLoop=1;jettySize=auto;html=1;exitX=1;exitY=0.5;exitDx=0;exitDy=0;" parent="1" source="QxZh3QZaXFdnJh5QPRap-13" target="QxZh3QZaXFdnJh5QPRap-18" edge="1">
          <mxGeometry relative="1" as="geometry" />
        </mxCell>
        <mxCell id="QxZh3QZaXFdnJh5QPRap-21" value="GRPC Client" style="swimlane;fontStyle=0;childLayout=stackLayout;horizontal=1;startSize=30;horizontalStack=0;resizeParent=1;resizeParentMax=0;resizeLast=0;collapsible=1;marginBottom=0;whiteSpace=wrap;html=1;" parent="1" vertex="1">
          <mxGeometry x="-1170" y="470" width="140" height="60" as="geometry" />
        </mxCell>
        <mxCell id="QxZh3QZaXFdnJh5QPRap-22" value="GetAvatars" style="text;strokeColor=none;fillColor=none;align=left;verticalAlign=middle;spacingLeft=4;spacingRight=4;overflow=hidden;points=[[0,0.5],[1,0.5]];portConstraint=eastwest;rotatable=0;whiteSpace=wrap;html=1;" parent="QxZh3QZaXFdnJh5QPRap-21" vertex="1">
          <mxGeometry y="30" width="140" height="30" as="geometry" />
        </mxCell>
        <mxCell id="QxZh3QZaXFdnJh5QPRap-28" style="edgeStyle=orthogonalEdgeStyle;rounded=0;orthogonalLoop=1;jettySize=auto;html=1;exitX=1;exitY=0.5;exitDx=0;exitDy=0;" parent="1" source="6JZ951tkPi9Nr6TmQ6ol-34" target="QxZh3QZaXFdnJh5QPRap-22" edge="1">
          <mxGeometry relative="1" as="geometry" />
        </mxCell>
        <mxCell id="QxZh3QZaXFdnJh5QPRap-31" value="&lt;p style=&quot;line-height: 120%;&quot;&gt;&lt;span style=&quot;font-size: 10px;&quot;&gt;Login and Register actions need to call this procedure from microservice that is responsible for handling avatars to get set of avatars in different sizes for certain user.&lt;/span&gt;&lt;/p&gt;" style="text;html=1;align=left;verticalAlign=middle;whiteSpace=wrap;rounded=0;" parent="1" vertex="1">
          <mxGeometry x="-980" y="454" width="190" height="70" as="geometry" />
        </mxCell>
        <mxCell id="QxZh3QZaXFdnJh5QPRap-32" style="edgeStyle=orthogonalEdgeStyle;rounded=0;orthogonalLoop=1;jettySize=auto;html=1;exitX=1;exitY=0.5;exitDx=0;exitDy=0;entryX=0;entryY=0.5;entryDx=0;entryDy=0;" parent="1" source="QxZh3QZaXFdnJh5QPRap-22" target="QxZh3QZaXFdnJh5QPRap-31" edge="1">
          <mxGeometry relative="1" as="geometry" />
        </mxCell>
        <mxCell id="QxZh3QZaXFdnJh5QPRap-33" value="" style="rounded=0;whiteSpace=wrap;html=1;" parent="1" vertex="1">
          <mxGeometry x="-2220" y="324" width="720" height="1046" as="geometry" />
        </mxCell>
        <mxCell id="QxZh3QZaXFdnJh5QPRap-36" value="&lt;font style=&quot;font-size: 20px;&quot;&gt;Upload Api Microservice&lt;/font&gt;" style="text;html=1;align=center;verticalAlign=middle;resizable=0;points=[];autosize=1;strokeColor=none;fillColor=none;" parent="1" vertex="1">
          <mxGeometry x="-1975" y="324" width="240" height="40" as="geometry" />
        </mxCell>
        <mxCell id="QxZh3QZaXFdnJh5QPRap-55" style="edgeStyle=orthogonalEdgeStyle;rounded=0;orthogonalLoop=1;jettySize=auto;html=1;exitX=0.5;exitY=1;exitDx=0;exitDy=0;" parent="1" source="QxZh3QZaXFdnJh5QPRap-37" target="QxZh3QZaXFdnJh5QPRap-52" edge="1">
          <mxGeometry relative="1" as="geometry">
            <Array as="points">
              <mxPoint x="-2130" y="501" />
              <mxPoint x="-1925" y="501" />
            </Array>
          </mxGeometry>
        </mxCell>
        <mxCell id="QxZh3QZaXFdnJh5QPRap-97" style="edgeStyle=orthogonalEdgeStyle;rounded=0;orthogonalLoop=1;jettySize=auto;html=1;exitX=1;exitY=0.5;exitDx=0;exitDy=0;entryX=0.5;entryY=0;entryDx=0;entryDy=0;" parent="1" source="QxZh3QZaXFdnJh5QPRap-37" target="QxZh3QZaXFdnJh5QPRap-47" edge="1">
          <mxGeometry relative="1" as="geometry" />
        </mxCell>
        <mxCell id="QxZh3QZaXFdnJh5QPRap-37" value="Java Spring" style="rhombus;whiteSpace=wrap;html=1;" parent="1" vertex="1">
          <mxGeometry x="-2200" y="361" width="140" height="120" as="geometry" />
        </mxCell>
        <mxCell id="QxZh3QZaXFdnJh5QPRap-39" value="Profile Controller Routes" style="swimlane;fontStyle=0;childLayout=stackLayout;horizontal=1;startSize=30;horizontalStack=0;resizeParent=1;resizeParentMax=0;resizeLast=0;collapsible=1;marginBottom=0;whiteSpace=wrap;html=1;" parent="1" vertex="1">
          <mxGeometry x="-2160" y="700" width="260" height="90" as="geometry">
            <mxRectangle x="-1135" y="532" width="80" height="30" as="alternateBounds" />
          </mxGeometry>
        </mxCell>
        <mxCell id="QxZh3QZaXFdnJh5QPRap-40" value="/api/upload/protected/profile/avatar(POST)" style="text;strokeColor=none;fillColor=none;align=left;verticalAlign=middle;spacingLeft=4;spacingRight=4;overflow=hidden;points=[[0,0.5],[1,0.5]];portConstraint=eastwest;rotatable=0;whiteSpace=wrap;html=1;" parent="QxZh3QZaXFdnJh5QPRap-39" vertex="1">
          <mxGeometry y="30" width="260" height="30" as="geometry" />
        </mxCell>
        <mxCell id="RTL6kd38lY_tx-6XgPDL-11" value="/api/upload/protected/profile/gravatar(POST)" style="text;strokeColor=none;fillColor=none;align=left;verticalAlign=middle;spacingLeft=4;spacingRight=4;overflow=hidden;points=[[0,0.5],[1,0.5]];portConstraint=eastwest;rotatable=0;whiteSpace=wrap;html=1;" parent="QxZh3QZaXFdnJh5QPRap-39" vertex="1">
          <mxGeometry y="60" width="260" height="30" as="geometry" />
        </mxCell>
        <mxCell id="QxZh3QZaXFdnJh5QPRap-47" value="&lt;span style=&quot;font-weight: 700;&quot;&gt;GRPC Controller&lt;/span&gt;" style="swimlane;fontStyle=0;childLayout=stackLayout;horizontal=1;startSize=30;horizontalStack=0;resizeParent=1;resizeParentMax=0;resizeLast=0;collapsible=1;marginBottom=0;whiteSpace=wrap;html=1;" parent="1" vertex="1">
          <mxGeometry x="-2000" y="397" width="140" height="60" as="geometry" />
        </mxCell>
        <mxCell id="QxZh3QZaXFdnJh5QPRap-48" value="GetAvatars" style="text;strokeColor=none;fillColor=none;align=left;verticalAlign=middle;spacingLeft=4;spacingRight=4;overflow=hidden;points=[[0,0.5],[1,0.5]];portConstraint=eastwest;rotatable=0;whiteSpace=wrap;html=1;" parent="QxZh3QZaXFdnJh5QPRap-47" vertex="1">
          <mxGeometry y="30" width="140" height="30" as="geometry" />
        </mxCell>
        <mxCell id="QxZh3QZaXFdnJh5QPRap-49" value="&lt;p style=&quot;line-height: 120%; font-size: 10px;&quot;&gt;Auth Service will call this procedure to&amp;nbsp;&lt;span style=&quot;background-color: initial;&quot;&gt;get set of avatars in different sizes for certain user&lt;/span&gt;&lt;/p&gt;" style="text;html=1;align=left;verticalAlign=middle;whiteSpace=wrap;rounded=0;" parent="1" vertex="1">
          <mxGeometry x="-1820" y="407" width="190" height="50" as="geometry" />
        </mxCell>
        <mxCell id="QxZh3QZaXFdnJh5QPRap-50" style="edgeStyle=orthogonalEdgeStyle;rounded=0;orthogonalLoop=1;jettySize=auto;html=1;exitX=1;exitY=0.5;exitDx=0;exitDy=0;entryX=0;entryY=0.5;entryDx=0;entryDy=0;" parent="1" source="QxZh3QZaXFdnJh5QPRap-48" target="QxZh3QZaXFdnJh5QPRap-49" edge="1">
          <mxGeometry relative="1" as="geometry" />
        </mxCell>
        <mxCell id="QxZh3QZaXFdnJh5QPRap-90" style="edgeStyle=orthogonalEdgeStyle;rounded=0;orthogonalLoop=1;jettySize=auto;html=1;exitX=0;exitY=0.5;exitDx=0;exitDy=0;" parent="1" source="QxZh3QZaXFdnJh5QPRap-52" target="QxZh3QZaXFdnJh5QPRap-39" edge="1">
          <mxGeometry relative="1" as="geometry">
            <Array as="points">
              <mxPoint x="-2190" y="564" />
              <mxPoint x="-2190" y="670" />
              <mxPoint x="-2045" y="670" />
            </Array>
          </mxGeometry>
        </mxCell>
        <mxCell id="QxZh3QZaXFdnJh5QPRap-91" style="edgeStyle=orthogonalEdgeStyle;rounded=0;orthogonalLoop=1;jettySize=auto;html=1;exitX=0;exitY=0.5;exitDx=0;exitDy=0;" parent="1" source="QxZh3QZaXFdnJh5QPRap-52" target="QxZh3QZaXFdnJh5QPRap-61" edge="1">
          <mxGeometry relative="1" as="geometry">
            <Array as="points">
              <mxPoint x="-2190" y="564" />
              <mxPoint x="-2190" y="850" />
              <mxPoint x="-2045" y="850" />
            </Array>
          </mxGeometry>
        </mxCell>
        <mxCell id="RTL6kd38lY_tx-6XgPDL-59" style="edgeStyle=orthogonalEdgeStyle;rounded=0;orthogonalLoop=1;jettySize=auto;html=1;exitX=0;exitY=0.5;exitDx=0;exitDy=0;entryX=0.5;entryY=0;entryDx=0;entryDy=0;" parent="1" source="QxZh3QZaXFdnJh5QPRap-52" target="RTL6kd38lY_tx-6XgPDL-55" edge="1">
          <mxGeometry relative="1" as="geometry">
            <Array as="points">
              <mxPoint x="-2190" y="564" />
              <mxPoint x="-2190" y="1040" />
              <mxPoint x="-2030" y="1040" />
            </Array>
          </mxGeometry>
        </mxCell>
        <mxCell id="QxZh3QZaXFdnJh5QPRap-52" value="" style="shape=parallelogram;perimeter=parallelogramPerimeter;whiteSpace=wrap;html=1;fixedSize=1;" parent="1" vertex="1">
          <mxGeometry x="-2060" y="517" width="270" height="93" as="geometry" />
        </mxCell>
        <mxCell id="QxZh3QZaXFdnJh5QPRap-53" value="Middleware" style="text;html=1;align=center;verticalAlign=middle;whiteSpace=wrap;rounded=0;" parent="1" vertex="1">
          <mxGeometry x="-1962.5" y="517" width="75" height="20" as="geometry" />
        </mxCell>
        <mxCell id="QxZh3QZaXFdnJh5QPRap-57" value="&lt;p style=&quot;line-height: 120%; font-size: 10px;&quot;&gt;Will call&amp;nbsp;&lt;span style=&quot;background-color: initial;&quot;&gt;this procedure to validate token and return associated user every authorized request.&lt;br&gt;&lt;br&gt;Otherwise if it&#39;s request to any available public route, procedure won&#39;t be called.&lt;/span&gt;&lt;/p&gt;" style="text;html=1;align=left;verticalAlign=middle;whiteSpace=wrap;rounded=0;" parent="1" vertex="1">
          <mxGeometry x="-2035" y="537" width="220" height="68.5" as="geometry" />
        </mxCell>
        <mxCell id="RTL6kd38lY_tx-6XgPDL-29" style="edgeStyle=orthogonalEdgeStyle;rounded=0;orthogonalLoop=1;jettySize=auto;html=1;exitX=0;exitY=0.75;exitDx=0;exitDy=0;entryX=1;entryY=0.5;entryDx=0;entryDy=0;" parent="1" source="QxZh3QZaXFdnJh5QPRap-58" target="QxZh3QZaXFdnJh5QPRap-57" edge="1">
          <mxGeometry relative="1" as="geometry">
            <Array as="points">
              <mxPoint x="-1740" y="571" />
            </Array>
          </mxGeometry>
        </mxCell>
        <mxCell id="QxZh3QZaXFdnJh5QPRap-58" value="GRPC Client" style="swimlane;fontStyle=0;childLayout=stackLayout;horizontal=1;startSize=30;horizontalStack=0;resizeParent=1;resizeParentMax=0;resizeLast=0;collapsible=1;marginBottom=0;whiteSpace=wrap;html=1;" parent="1" vertex="1">
          <mxGeometry x="-1740" y="524" width="140" height="60" as="geometry" />
        </mxCell>
        <mxCell id="QxZh3QZaXFdnJh5QPRap-59" value="ValidateToken" style="text;strokeColor=none;fillColor=none;align=left;verticalAlign=middle;spacingLeft=4;spacingRight=4;overflow=hidden;points=[[0,0.5],[1,0.5]];portConstraint=eastwest;rotatable=0;whiteSpace=wrap;html=1;" parent="QxZh3QZaXFdnJh5QPRap-58" vertex="1">
          <mxGeometry y="30" width="140" height="30" as="geometry" />
        </mxCell>
        <mxCell id="QxZh3QZaXFdnJh5QPRap-61" value="Collection Controller Routes" style="swimlane;fontStyle=0;childLayout=stackLayout;horizontal=1;startSize=30;horizontalStack=0;resizeParent=1;resizeParentMax=0;resizeLast=0;collapsible=1;marginBottom=0;whiteSpace=wrap;html=1;" parent="1" vertex="1">
          <mxGeometry x="-2160" y="920" width="270" height="60" as="geometry">
            <mxRectangle x="-1135" y="532" width="80" height="30" as="alternateBounds" />
          </mxGeometry>
        </mxCell>
        <mxCell id="QxZh3QZaXFdnJh5QPRap-62" value="/api/upload/protected/collection/{id}/cover(POST)" style="text;strokeColor=none;fillColor=none;align=left;verticalAlign=middle;spacingLeft=4;spacingRight=4;overflow=hidden;points=[[0,0.5],[1,0.5]];portConstraint=eastwest;rotatable=0;whiteSpace=wrap;html=1;" parent="QxZh3QZaXFdnJh5QPRap-61" vertex="1">
          <mxGeometry y="30" width="270" height="30" as="geometry" />
        </mxCell>
        <mxCell id="QxZh3QZaXFdnJh5QPRap-68" value="&lt;span style=&quot;color: rgb(240, 240, 240); font-family: Helvetica; font-size: 12px; font-style: normal; font-variant-ligatures: normal; font-variant-caps: normal; font-weight: 400; letter-spacing: normal; orphans: 2; text-align: center; text-indent: 0px; text-transform: none; widows: 2; word-spacing: 0px; -webkit-text-stroke-width: 0px; white-space: nowrap; background-color: rgb(27, 29, 30); text-decoration-thickness: initial; text-decoration-style: initial; text-decoration-color: initial; display: inline !important; float: none;&quot;&gt;/api/upload/&lt;/span&gt;" style="text;html=1;align=center;verticalAlign=middle;whiteSpace=wrap;rounded=0;" parent="1" vertex="1">
          <mxGeometry x="-1950" y="290" width="90" height="34" as="geometry" />
        </mxCell>
        <mxCell id="QxZh3QZaXFdnJh5QPRap-69" value="&lt;span style=&quot;font-weight: 700;&quot;&gt;GRPC Procedures&lt;/span&gt;" style="swimlane;fontStyle=0;childLayout=stackLayout;horizontal=1;startSize=30;horizontalStack=0;resizeParent=1;resizeParentMax=0;resizeLast=0;collapsible=1;marginBottom=0;whiteSpace=wrap;html=1;" parent="1" vertex="1">
          <mxGeometry x="-620" y="-217.00000000000003" width="140" height="90" as="geometry" />
        </mxCell>
        <mxCell id="QxZh3QZaXFdnJh5QPRap-70" value="ValidateToken" style="text;strokeColor=none;fillColor=none;align=left;verticalAlign=middle;spacingLeft=4;spacingRight=4;overflow=hidden;points=[[0,0.5],[1,0.5]];portConstraint=eastwest;rotatable=0;whiteSpace=wrap;html=1;" parent="QxZh3QZaXFdnJh5QPRap-69" vertex="1">
          <mxGeometry y="30" width="140" height="30" as="geometry" />
        </mxCell>
        <mxCell id="QxZh3QZaXFdnJh5QPRap-71" value="GetAvatars" style="text;strokeColor=none;fillColor=none;align=left;verticalAlign=middle;spacingLeft=4;spacingRight=4;overflow=hidden;points=[[0,0.5],[1,0.5]];portConstraint=eastwest;rotatable=0;whiteSpace=wrap;html=1;" parent="QxZh3QZaXFdnJh5QPRap-69" vertex="1">
          <mxGeometry y="60" width="140" height="30" as="geometry" />
        </mxCell>
        <mxCell id="QxZh3QZaXFdnJh5QPRap-73" value="Request" style="swimlane;fontStyle=0;childLayout=stackLayout;horizontal=1;startSize=30;horizontalStack=0;resizeParent=1;resizeParentMax=0;resizeLast=0;collapsible=1;marginBottom=0;whiteSpace=wrap;html=1;" parent="1" vertex="1">
          <mxGeometry x="-840" y="-290" width="140" height="60" as="geometry" />
        </mxCell>
        <mxCell id="QxZh3QZaXFdnJh5QPRap-74" value="token(string)" style="text;strokeColor=none;fillColor=none;align=left;verticalAlign=middle;spacingLeft=4;spacingRight=4;overflow=hidden;points=[[0,0.5],[1,0.5]];portConstraint=eastwest;rotatable=0;whiteSpace=wrap;html=1;" parent="QxZh3QZaXFdnJh5QPRap-73" vertex="1">
          <mxGeometry y="30" width="140" height="30" as="geometry" />
        </mxCell>
        <mxCell id="QxZh3QZaXFdnJh5QPRap-77" value="Response" style="swimlane;fontStyle=0;childLayout=stackLayout;horizontal=1;startSize=30;horizontalStack=0;resizeParent=1;resizeParentMax=0;resizeLast=0;collapsible=1;marginBottom=0;whiteSpace=wrap;html=1;" parent="1" vertex="1">
          <mxGeometry x="-990" y="-290" width="140" height="90" as="geometry" />
        </mxCell>
        <mxCell id="QxZh3QZaXFdnJh5QPRap-78" value="valid(bool)" style="text;strokeColor=none;fillColor=none;align=left;verticalAlign=middle;spacingLeft=4;spacingRight=4;overflow=hidden;points=[[0,0.5],[1,0.5]];portConstraint=eastwest;rotatable=0;whiteSpace=wrap;html=1;" parent="QxZh3QZaXFdnJh5QPRap-77" vertex="1">
          <mxGeometry y="30" width="140" height="30" as="geometry" />
        </mxCell>
        <mxCell id="QxZh3QZaXFdnJh5QPRap-79" value="userDTO(object)" style="text;strokeColor=none;fillColor=none;align=left;verticalAlign=middle;spacingLeft=4;spacingRight=4;overflow=hidden;points=[[0,0.5],[1,0.5]];portConstraint=eastwest;rotatable=0;whiteSpace=wrap;html=1;" parent="QxZh3QZaXFdnJh5QPRap-77" vertex="1">
          <mxGeometry y="60" width="140" height="30" as="geometry" />
        </mxCell>
        <mxCell id="QxZh3QZaXFdnJh5QPRap-102" style="edgeStyle=orthogonalEdgeStyle;rounded=0;orthogonalLoop=1;jettySize=auto;html=1;exitX=0;exitY=0.5;exitDx=0;exitDy=0;entryX=0.5;entryY=0;entryDx=0;entryDy=0;" parent="1" source="QxZh3QZaXFdnJh5QPRap-70" target="QxZh3QZaXFdnJh5QPRap-73" edge="1">
          <mxGeometry relative="1" as="geometry" />
        </mxCell>
        <mxCell id="QxZh3QZaXFdnJh5QPRap-103" style="edgeStyle=orthogonalEdgeStyle;rounded=0;orthogonalLoop=1;jettySize=auto;html=1;exitX=0;exitY=0.5;exitDx=0;exitDy=0;entryX=0.5;entryY=0;entryDx=0;entryDy=0;" parent="1" source="QxZh3QZaXFdnJh5QPRap-70" target="QxZh3QZaXFdnJh5QPRap-77" edge="1">
          <mxGeometry relative="1" as="geometry">
            <Array as="points">
              <mxPoint x="-660" y="-172.00000000000003" />
              <mxPoint x="-660" y="-310" />
              <mxPoint x="-920" y="-310" />
            </Array>
          </mxGeometry>
        </mxCell>
        <mxCell id="QxZh3QZaXFdnJh5QPRap-104" value="AvatarSetDTO" style="swimlane;fontStyle=0;childLayout=stackLayout;horizontal=1;startSize=30;horizontalStack=0;resizeParent=1;resizeParentMax=0;resizeLast=0;collapsible=1;marginBottom=0;whiteSpace=wrap;html=1;" parent="1" vertex="1">
          <mxGeometry x="-1200" y="-170.00000000000003" width="140" height="120" as="geometry" />
        </mxCell>
        <mxCell id="QxZh3QZaXFdnJh5QPRap-105" value="small(string)" style="text;strokeColor=none;fillColor=none;align=left;verticalAlign=middle;spacingLeft=4;spacingRight=4;overflow=hidden;points=[[0,0.5],[1,0.5]];portConstraint=eastwest;rotatable=0;whiteSpace=wrap;html=1;" parent="QxZh3QZaXFdnJh5QPRap-104" vertex="1">
          <mxGeometry y="30" width="140" height="30" as="geometry" />
        </mxCell>
        <mxCell id="QxZh3QZaXFdnJh5QPRap-106" value="medium(string)" style="text;strokeColor=none;fillColor=none;align=left;verticalAlign=middle;spacingLeft=4;spacingRight=4;overflow=hidden;points=[[0,0.5],[1,0.5]];portConstraint=eastwest;rotatable=0;whiteSpace=wrap;html=1;" parent="QxZh3QZaXFdnJh5QPRap-104" vertex="1">
          <mxGeometry y="60" width="140" height="30" as="geometry" />
        </mxCell>
        <mxCell id="QxZh3QZaXFdnJh5QPRap-109" value="large(string)" style="text;strokeColor=none;fillColor=none;align=left;verticalAlign=middle;spacingLeft=4;spacingRight=4;overflow=hidden;points=[[0,0.5],[1,0.5]];portConstraint=eastwest;rotatable=0;whiteSpace=wrap;html=1;" parent="QxZh3QZaXFdnJh5QPRap-104" vertex="1">
          <mxGeometry y="90" width="140" height="30" as="geometry" />
        </mxCell>
        <mxCell id="QxZh3QZaXFdnJh5QPRap-107" value="Request" style="swimlane;fontStyle=0;childLayout=stackLayout;horizontal=1;startSize=30;horizontalStack=0;resizeParent=1;resizeParentMax=0;resizeLast=0;collapsible=1;marginBottom=0;whiteSpace=wrap;html=1;" parent="1" vertex="1">
          <mxGeometry x="-840" y="-140" width="140" height="60" as="geometry" />
        </mxCell>
        <mxCell id="QxZh3QZaXFdnJh5QPRap-108" value="userId(string)" style="text;strokeColor=none;fillColor=none;align=left;verticalAlign=middle;spacingLeft=4;spacingRight=4;overflow=hidden;points=[[0,0.5],[1,0.5]];portConstraint=eastwest;rotatable=0;whiteSpace=wrap;html=1;" parent="QxZh3QZaXFdnJh5QPRap-107" vertex="1">
          <mxGeometry y="30" width="140" height="30" as="geometry" />
        </mxCell>
        <mxCell id="QxZh3QZaXFdnJh5QPRap-110" style="edgeStyle=orthogonalEdgeStyle;rounded=0;orthogonalLoop=1;jettySize=auto;html=1;exitX=0;exitY=0.5;exitDx=0;exitDy=0;entryX=0.5;entryY=0;entryDx=0;entryDy=0;" parent="1" source="QxZh3QZaXFdnJh5QPRap-71" target="QxZh3QZaXFdnJh5QPRap-107" edge="1">
          <mxGeometry relative="1" as="geometry">
            <Array as="points">
              <mxPoint x="-680" y="-142" />
              <mxPoint x="-680" y="-170.00000000000003" />
              <mxPoint x="-770" y="-170.00000000000003" />
            </Array>
          </mxGeometry>
        </mxCell>
        <mxCell id="RTL6kd38lY_tx-6XgPDL-1" value="Response" style="swimlane;fontStyle=0;childLayout=stackLayout;horizontal=1;startSize=30;horizontalStack=0;resizeParent=1;resizeParentMax=0;resizeLast=0;collapsible=1;marginBottom=0;whiteSpace=wrap;html=1;" parent="1" vertex="1">
          <mxGeometry x="-990" y="-140" width="140" height="60" as="geometry" />
        </mxCell>
        <mxCell id="RTL6kd38lY_tx-6XgPDL-2" value="avatars(object)" style="text;strokeColor=none;fillColor=none;align=left;verticalAlign=middle;spacingLeft=4;spacingRight=4;overflow=hidden;points=[[0,0.5],[1,0.5]];portConstraint=eastwest;rotatable=0;whiteSpace=wrap;html=1;" parent="RTL6kd38lY_tx-6XgPDL-1" vertex="1">
          <mxGeometry y="30" width="140" height="30" as="geometry" />
        </mxCell>
        <mxCell id="RTL6kd38lY_tx-6XgPDL-5" style="edgeStyle=orthogonalEdgeStyle;rounded=0;orthogonalLoop=1;jettySize=auto;html=1;exitX=0;exitY=0.5;exitDx=0;exitDy=0;entryX=0.5;entryY=0;entryDx=0;entryDy=0;" parent="1" source="QxZh3QZaXFdnJh5QPRap-71" target="RTL6kd38lY_tx-6XgPDL-1" edge="1">
          <mxGeometry relative="1" as="geometry">
            <Array as="points">
              <mxPoint x="-680" y="-142" />
              <mxPoint x="-680" y="-170.00000000000003" />
              <mxPoint x="-920" y="-170.00000000000003" />
            </Array>
          </mxGeometry>
        </mxCell>
        <mxCell id="RTL6kd38lY_tx-6XgPDL-6" style="edgeStyle=orthogonalEdgeStyle;rounded=0;orthogonalLoop=1;jettySize=auto;html=1;exitX=0;exitY=0.5;exitDx=0;exitDy=0;entryX=0.5;entryY=0;entryDx=0;entryDy=0;" parent="1" source="RTL6kd38lY_tx-6XgPDL-2" target="QxZh3QZaXFdnJh5QPRap-104" edge="1">
          <mxGeometry relative="1" as="geometry" />
        </mxCell>
        <mxCell id="RTL6kd38lY_tx-6XgPDL-12" value="Request" style="swimlane;fontStyle=0;childLayout=stackLayout;horizontal=1;startSize=30;horizontalStack=0;resizeParent=1;resizeParentMax=0;resizeLast=0;collapsible=1;marginBottom=0;whiteSpace=wrap;html=1;" parent="1" vertex="1">
          <mxGeometry x="-1665" y="672" width="140" height="60" as="geometry" />
        </mxCell>
        <mxCell id="RTL6kd38lY_tx-6XgPDL-13" value="avatar(file)" style="text;strokeColor=none;fillColor=none;align=left;verticalAlign=middle;spacingLeft=4;spacingRight=4;overflow=hidden;points=[[0,0.5],[1,0.5]];portConstraint=eastwest;rotatable=0;whiteSpace=wrap;html=1;" parent="RTL6kd38lY_tx-6XgPDL-12" vertex="1">
          <mxGeometry y="30" width="140" height="30" as="geometry" />
        </mxCell>
        <mxCell id="RTL6kd38lY_tx-6XgPDL-16" value="Response" style="swimlane;fontStyle=0;childLayout=stackLayout;horizontal=1;startSize=30;horizontalStack=0;resizeParent=1;resizeParentMax=0;resizeLast=0;collapsible=1;marginBottom=0;whiteSpace=wrap;html=1;" parent="1" vertex="1">
          <mxGeometry x="-1815" y="900" width="140" height="60" as="geometry" />
        </mxCell>
        <mxCell id="RTL6kd38lY_tx-6XgPDL-17" value="message(string)" style="text;strokeColor=none;fillColor=none;align=left;verticalAlign=middle;spacingLeft=4;spacingRight=4;overflow=hidden;points=[[0,0.5],[1,0.5]];portConstraint=eastwest;rotatable=0;whiteSpace=wrap;html=1;" parent="RTL6kd38lY_tx-6XgPDL-16" vertex="1">
          <mxGeometry y="30" width="140" height="30" as="geometry" />
        </mxCell>
        <mxCell id="RTL6kd38lY_tx-6XgPDL-20" value="Request" style="swimlane;fontStyle=0;childLayout=stackLayout;horizontal=1;startSize=30;horizontalStack=0;resizeParent=1;resizeParentMax=0;resizeLast=0;collapsible=1;marginBottom=0;whiteSpace=wrap;html=1;" parent="1" vertex="1">
          <mxGeometry x="-1665" y="900" width="140" height="60" as="geometry" />
        </mxCell>
        <mxCell id="RTL6kd38lY_tx-6XgPDL-21" value="cover(file)" style="text;strokeColor=none;fillColor=none;align=left;verticalAlign=middle;spacingLeft=4;spacingRight=4;overflow=hidden;points=[[0,0.5],[1,0.5]];portConstraint=eastwest;rotatable=0;whiteSpace=wrap;html=1;" parent="RTL6kd38lY_tx-6XgPDL-20" vertex="1">
          <mxGeometry y="30" width="140" height="30" as="geometry" />
        </mxCell>
        <mxCell id="RTL6kd38lY_tx-6XgPDL-28" style="edgeStyle=orthogonalEdgeStyle;rounded=0;orthogonalLoop=1;jettySize=auto;html=1;exitX=1;exitY=0.5;exitDx=0;exitDy=0;entryX=0;entryY=0.5;entryDx=0;entryDy=0;" parent="1" source="6JZ951tkPi9Nr6TmQ6ol-35" target="QxZh3QZaXFdnJh5QPRap-22" edge="1">
          <mxGeometry relative="1" as="geometry" />
        </mxCell>
        <mxCell id="RTL6kd38lY_tx-6XgPDL-40" value="Response" style="swimlane;fontStyle=0;childLayout=stackLayout;horizontal=1;startSize=30;horizontalStack=0;resizeParent=1;resizeParentMax=0;resizeLast=0;collapsible=1;marginBottom=0;whiteSpace=wrap;html=1;" parent="1" vertex="1">
          <mxGeometry x="-1815" y="672" width="140" height="60" as="geometry" />
        </mxCell>
        <mxCell id="RTL6kd38lY_tx-6XgPDL-41" value="message(string)" style="text;strokeColor=none;fillColor=none;align=left;verticalAlign=middle;spacingLeft=4;spacingRight=4;overflow=hidden;points=[[0,0.5],[1,0.5]];portConstraint=eastwest;rotatable=0;whiteSpace=wrap;html=1;" parent="RTL6kd38lY_tx-6XgPDL-40" vertex="1">
          <mxGeometry y="30" width="140" height="30" as="geometry" />
        </mxCell>
        <mxCell id="RTL6kd38lY_tx-6XgPDL-45" value="Response" style="swimlane;fontStyle=0;childLayout=stackLayout;horizontal=1;startSize=30;horizontalStack=0;resizeParent=1;resizeParentMax=0;resizeLast=0;collapsible=1;marginBottom=0;whiteSpace=wrap;html=1;" parent="1" vertex="1">
          <mxGeometry x="-1815" y="790" width="140" height="60" as="geometry" />
        </mxCell>
        <mxCell id="RTL6kd38lY_tx-6XgPDL-46" value="message(string)" style="text;strokeColor=none;fillColor=none;align=left;verticalAlign=middle;spacingLeft=4;spacingRight=4;overflow=hidden;points=[[0,0.5],[1,0.5]];portConstraint=eastwest;rotatable=0;whiteSpace=wrap;html=1;" parent="RTL6kd38lY_tx-6XgPDL-45" vertex="1">
          <mxGeometry y="30" width="140" height="30" as="geometry" />
        </mxCell>
        <mxCell id="RTL6kd38lY_tx-6XgPDL-50" style="edgeStyle=orthogonalEdgeStyle;rounded=0;orthogonalLoop=1;jettySize=auto;html=1;exitX=1;exitY=0.5;exitDx=0;exitDy=0;entryX=0.5;entryY=0;entryDx=0;entryDy=0;" parent="1" source="QxZh3QZaXFdnJh5QPRap-40" target="RTL6kd38lY_tx-6XgPDL-40" edge="1">
          <mxGeometry relative="1" as="geometry">
            <Array as="points">
              <mxPoint x="-1850" y="745" />
              <mxPoint x="-1850" y="652" />
              <mxPoint x="-1745" y="652" />
            </Array>
          </mxGeometry>
        </mxCell>
        <mxCell id="RTL6kd38lY_tx-6XgPDL-51" style="edgeStyle=orthogonalEdgeStyle;rounded=0;orthogonalLoop=1;jettySize=auto;html=1;exitX=1;exitY=0.5;exitDx=0;exitDy=0;entryX=0.5;entryY=0;entryDx=0;entryDy=0;" parent="1" source="QxZh3QZaXFdnJh5QPRap-40" target="RTL6kd38lY_tx-6XgPDL-12" edge="1">
          <mxGeometry relative="1" as="geometry">
            <Array as="points">
              <mxPoint x="-1850" y="745" />
              <mxPoint x="-1850" y="652" />
              <mxPoint x="-1595" y="652" />
            </Array>
          </mxGeometry>
        </mxCell>
        <mxCell id="RTL6kd38lY_tx-6XgPDL-52" style="edgeStyle=orthogonalEdgeStyle;rounded=0;orthogonalLoop=1;jettySize=auto;html=1;exitX=1;exitY=0.5;exitDx=0;exitDy=0;entryX=0.5;entryY=0;entryDx=0;entryDy=0;" parent="1" source="RTL6kd38lY_tx-6XgPDL-11" target="RTL6kd38lY_tx-6XgPDL-45" edge="1">
          <mxGeometry relative="1" as="geometry">
            <Array as="points">
              <mxPoint x="-1745" y="775" />
            </Array>
          </mxGeometry>
        </mxCell>
        <mxCell id="RTL6kd38lY_tx-6XgPDL-53" style="edgeStyle=orthogonalEdgeStyle;rounded=0;orthogonalLoop=1;jettySize=auto;html=1;exitX=1;exitY=0.5;exitDx=0;exitDy=0;entryX=0.5;entryY=0;entryDx=0;entryDy=0;" parent="1" source="QxZh3QZaXFdnJh5QPRap-62" target="RTL6kd38lY_tx-6XgPDL-16" edge="1">
          <mxGeometry relative="1" as="geometry">
            <Array as="points">
              <mxPoint x="-1850" y="965" />
              <mxPoint x="-1850" y="880" />
              <mxPoint x="-1745" y="880" />
            </Array>
          </mxGeometry>
        </mxCell>
        <mxCell id="RTL6kd38lY_tx-6XgPDL-54" style="edgeStyle=orthogonalEdgeStyle;rounded=0;orthogonalLoop=1;jettySize=auto;html=1;exitX=1;exitY=0.5;exitDx=0;exitDy=0;entryX=0.5;entryY=0;entryDx=0;entryDy=0;" parent="1" source="QxZh3QZaXFdnJh5QPRap-62" target="RTL6kd38lY_tx-6XgPDL-20" edge="1">
          <mxGeometry relative="1" as="geometry">
            <Array as="points">
              <mxPoint x="-1850" y="965" />
              <mxPoint x="-1850" y="880" />
              <mxPoint x="-1595" y="880" />
            </Array>
          </mxGeometry>
        </mxCell>
        <mxCell id="RTL6kd38lY_tx-6XgPDL-55" value="Upload Controller Routes" style="swimlane;fontStyle=0;childLayout=stackLayout;horizontal=1;startSize=30;horizontalStack=0;resizeParent=1;resizeParentMax=0;resizeLast=0;collapsible=1;marginBottom=0;whiteSpace=wrap;html=1;" parent="1" vertex="1">
          <mxGeometry x="-2160" y="1140" width="260" height="160" as="geometry" />
        </mxCell>
        <mxCell id="RTL6kd38lY_tx-6XgPDL-56" value="/api/upload/protected/audio/request-file-id(POST)" style="text;strokeColor=none;fillColor=none;align=left;verticalAlign=middle;spacingLeft=4;spacingRight=4;overflow=hidden;points=[[0,0.5],[1,0.5]];portConstraint=eastwest;rotatable=0;whiteSpace=wrap;html=1;" parent="RTL6kd38lY_tx-6XgPDL-55" vertex="1">
          <mxGeometry y="30" width="260" height="30" as="geometry" />
        </mxCell>
        <mxCell id="RTL6kd38lY_tx-6XgPDL-57" value="/api/upload/protected/audio/check-file/{fileId}(GET)" style="text;strokeColor=none;fillColor=none;align=left;verticalAlign=middle;spacingLeft=4;spacingRight=4;overflow=hidden;points=[[0,0.5],[1,0.5]];portConstraint=eastwest;rotatable=0;whiteSpace=wrap;html=1;" parent="RTL6kd38lY_tx-6XgPDL-55" vertex="1">
          <mxGeometry y="60" width="260" height="30" as="geometry" />
        </mxCell>
        <mxCell id="RTL6kd38lY_tx-6XgPDL-58" value="/api/upload/protected/audio/file&lt;br&gt;&lt;div&gt;&lt;span style=&quot;background-color: initial;&quot;&gt;/api/upload&lt;/span&gt;&lt;span style=&quot;background-color: initial;&quot;&gt;/protected/audio/&lt;/span&gt;file/**&lt;br&gt;&lt;/div&gt;&lt;div&gt;(POST, PATCH, HEAD, DELETE, GET)&lt;br&gt;Technology: tus.io&lt;/div&gt;" style="text;strokeColor=none;fillColor=none;align=left;verticalAlign=middle;spacingLeft=4;spacingRight=4;overflow=hidden;points=[[0,0.5],[1,0.5]];portConstraint=eastwest;rotatable=0;whiteSpace=wrap;html=1;" parent="RTL6kd38lY_tx-6XgPDL-55" vertex="1">
          <mxGeometry y="90" width="260" height="70" as="geometry" />
        </mxCell>
        <mxCell id="RTL6kd38lY_tx-6XgPDL-61" value="UserDTO" style="swimlane;fontStyle=0;childLayout=stackLayout;horizontal=1;startSize=30;horizontalStack=0;resizeParent=1;resizeParentMax=0;resizeLast=0;collapsible=1;marginBottom=0;whiteSpace=wrap;html=1;" parent="1" vertex="1">
          <mxGeometry x="-670" y="410" width="140" height="120" as="geometry" />
        </mxCell>
        <mxCell id="RTL6kd38lY_tx-6XgPDL-62" value="id(string)" style="text;strokeColor=none;fillColor=none;align=left;verticalAlign=middle;spacingLeft=4;spacingRight=4;overflow=hidden;points=[[0,0.5],[1,0.5]];portConstraint=eastwest;rotatable=0;whiteSpace=wrap;html=1;" parent="RTL6kd38lY_tx-6XgPDL-61" vertex="1">
          <mxGeometry y="30" width="140" height="30" as="geometry" />
        </mxCell>
        <mxCell id="RTL6kd38lY_tx-6XgPDL-63" value="email(string)" style="text;strokeColor=none;fillColor=none;align=left;verticalAlign=middle;spacingLeft=4;spacingRight=4;overflow=hidden;points=[[0,0.5],[1,0.5]];portConstraint=eastwest;rotatable=0;whiteSpace=wrap;html=1;" parent="RTL6kd38lY_tx-6XgPDL-61" vertex="1">
          <mxGeometry y="60" width="140" height="30" as="geometry" />
        </mxCell>
        <mxCell id="RTL6kd38lY_tx-6XgPDL-64" value="username(string)" style="text;strokeColor=none;fillColor=none;align=left;verticalAlign=middle;spacingLeft=4;spacingRight=4;overflow=hidden;points=[[0,0.5],[1,0.5]];portConstraint=eastwest;rotatable=0;whiteSpace=wrap;html=1;" parent="RTL6kd38lY_tx-6XgPDL-61" vertex="1">
          <mxGeometry y="90" width="140" height="30" as="geometry" />
        </mxCell>
        <mxCell id="RTL6kd38lY_tx-6XgPDL-65" value="AvatarSetDTO" style="swimlane;fontStyle=0;childLayout=stackLayout;horizontal=1;startSize=30;horizontalStack=0;resizeParent=1;resizeParentMax=0;resizeLast=0;collapsible=1;marginBottom=0;whiteSpace=wrap;html=1;" parent="1" vertex="1">
          <mxGeometry x="-450" y="410" width="140" height="120" as="geometry" />
        </mxCell>
        <mxCell id="RTL6kd38lY_tx-6XgPDL-66" value="small(string)" style="text;strokeColor=none;fillColor=none;align=left;verticalAlign=middle;spacingLeft=4;spacingRight=4;overflow=hidden;points=[[0,0.5],[1,0.5]];portConstraint=eastwest;rotatable=0;whiteSpace=wrap;html=1;" parent="RTL6kd38lY_tx-6XgPDL-65" vertex="1">
          <mxGeometry y="30" width="140" height="30" as="geometry" />
        </mxCell>
        <mxCell id="RTL6kd38lY_tx-6XgPDL-67" value="medium(string)" style="text;strokeColor=none;fillColor=none;align=left;verticalAlign=middle;spacingLeft=4;spacingRight=4;overflow=hidden;points=[[0,0.5],[1,0.5]];portConstraint=eastwest;rotatable=0;whiteSpace=wrap;html=1;" parent="RTL6kd38lY_tx-6XgPDL-65" vertex="1">
          <mxGeometry y="60" width="140" height="30" as="geometry" />
        </mxCell>
        <mxCell id="RTL6kd38lY_tx-6XgPDL-68" value="large(string)" style="text;strokeColor=none;fillColor=none;align=left;verticalAlign=middle;spacingLeft=4;spacingRight=4;overflow=hidden;points=[[0,0.5],[1,0.5]];portConstraint=eastwest;rotatable=0;whiteSpace=wrap;html=1;" parent="RTL6kd38lY_tx-6XgPDL-65" vertex="1">
          <mxGeometry y="90" width="140" height="30" as="geometry" />
        </mxCell>
        <mxCell id="RTL6kd38lY_tx-6XgPDL-69" value="Response" style="swimlane;fontStyle=0;childLayout=stackLayout;horizontal=1;startSize=30;horizontalStack=0;resizeParent=1;resizeParentMax=0;resizeLast=0;collapsible=1;marginBottom=0;whiteSpace=wrap;html=1;" parent="1" vertex="1">
          <mxGeometry x="-900" y="580" width="140" height="120" as="geometry" />
        </mxCell>
        <mxCell id="RTL6kd38lY_tx-6XgPDL-70" value="user(object)" style="text;strokeColor=none;fillColor=none;align=left;verticalAlign=middle;spacingLeft=4;spacingRight=4;overflow=hidden;points=[[0,0.5],[1,0.5]];portConstraint=eastwest;rotatable=0;whiteSpace=wrap;html=1;" parent="RTL6kd38lY_tx-6XgPDL-69" vertex="1">
          <mxGeometry y="30" width="140" height="30" as="geometry" />
        </mxCell>
        <mxCell id="RTL6kd38lY_tx-6XgPDL-71" value="accessToken(string)" style="text;strokeColor=none;fillColor=none;align=left;verticalAlign=middle;spacingLeft=4;spacingRight=4;overflow=hidden;points=[[0,0.5],[1,0.5]];portConstraint=eastwest;rotatable=0;whiteSpace=wrap;html=1;" parent="RTL6kd38lY_tx-6XgPDL-69" vertex="1">
          <mxGeometry y="60" width="140" height="30" as="geometry" />
        </mxCell>
        <mxCell id="RTL6kd38lY_tx-6XgPDL-72" value="avatars(object)" style="text;strokeColor=none;fillColor=none;align=left;verticalAlign=middle;spacingLeft=4;spacingRight=4;overflow=hidden;points=[[0,0.5],[1,0.5]];portConstraint=eastwest;rotatable=0;whiteSpace=wrap;html=1;" parent="RTL6kd38lY_tx-6XgPDL-69" vertex="1">
          <mxGeometry y="90" width="140" height="30" as="geometry" />
        </mxCell>
        <mxCell id="RTL6kd38lY_tx-6XgPDL-73" value="Request" style="swimlane;fontStyle=0;childLayout=stackLayout;horizontal=1;startSize=30;horizontalStack=0;resizeParent=1;resizeParentMax=0;resizeLast=0;collapsible=1;marginBottom=0;whiteSpace=wrap;html=1;" parent="1" vertex="1">
          <mxGeometry x="-1080" y="580" width="140" height="120" as="geometry" />
        </mxCell>
        <mxCell id="RTL6kd38lY_tx-6XgPDL-74" value="email(string)" style="text;strokeColor=none;fillColor=none;align=left;verticalAlign=middle;spacingLeft=4;spacingRight=4;overflow=hidden;points=[[0,0.5],[1,0.5]];portConstraint=eastwest;rotatable=0;whiteSpace=wrap;html=1;" parent="RTL6kd38lY_tx-6XgPDL-73" vertex="1">
          <mxGeometry y="30" width="140" height="30" as="geometry" />
        </mxCell>
        <mxCell id="RTL6kd38lY_tx-6XgPDL-75" value="username(string)" style="text;strokeColor=none;fillColor=none;align=left;verticalAlign=middle;spacingLeft=4;spacingRight=4;overflow=hidden;points=[[0,0.5],[1,0.5]];portConstraint=eastwest;rotatable=0;whiteSpace=wrap;html=1;" parent="RTL6kd38lY_tx-6XgPDL-73" vertex="1">
          <mxGeometry y="60" width="140" height="30" as="geometry" />
        </mxCell>
        <mxCell id="RTL6kd38lY_tx-6XgPDL-76" value="password(string)" style="text;strokeColor=none;fillColor=none;align=left;verticalAlign=middle;spacingLeft=4;spacingRight=4;overflow=hidden;points=[[0,0.5],[1,0.5]];portConstraint=eastwest;rotatable=0;whiteSpace=wrap;html=1;" parent="RTL6kd38lY_tx-6XgPDL-73" vertex="1">
          <mxGeometry y="90" width="140" height="30" as="geometry" />
        </mxCell>
        <mxCell id="RTL6kd38lY_tx-6XgPDL-77" value="Request" style="swimlane;fontStyle=0;childLayout=stackLayout;horizontal=1;startSize=30;horizontalStack=0;resizeParent=1;resizeParentMax=0;resizeLast=0;collapsible=1;marginBottom=0;whiteSpace=wrap;html=1;" parent="1" vertex="1">
          <mxGeometry x="-1080" y="746" width="140" height="90" as="geometry" />
        </mxCell>
        <mxCell id="RTL6kd38lY_tx-6XgPDL-78" value="email(string)" style="text;strokeColor=none;fillColor=none;align=left;verticalAlign=middle;spacingLeft=4;spacingRight=4;overflow=hidden;points=[[0,0.5],[1,0.5]];portConstraint=eastwest;rotatable=0;whiteSpace=wrap;html=1;" parent="RTL6kd38lY_tx-6XgPDL-77" vertex="1">
          <mxGeometry y="30" width="140" height="30" as="geometry" />
        </mxCell>
        <mxCell id="RTL6kd38lY_tx-6XgPDL-80" value="password(string)" style="text;strokeColor=none;fillColor=none;align=left;verticalAlign=middle;spacingLeft=4;spacingRight=4;overflow=hidden;points=[[0,0.5],[1,0.5]];portConstraint=eastwest;rotatable=0;whiteSpace=wrap;html=1;" parent="RTL6kd38lY_tx-6XgPDL-77" vertex="1">
          <mxGeometry y="60" width="140" height="30" as="geometry" />
        </mxCell>
        <mxCell id="RTL6kd38lY_tx-6XgPDL-81" style="edgeStyle=orthogonalEdgeStyle;rounded=0;orthogonalLoop=1;jettySize=auto;html=1;exitX=1;exitY=0.5;exitDx=0;exitDy=0;entryX=0.5;entryY=0;entryDx=0;entryDy=0;" parent="1" source="6JZ951tkPi9Nr6TmQ6ol-34" target="RTL6kd38lY_tx-6XgPDL-73" edge="1">
          <mxGeometry relative="1" as="geometry">
            <Array as="points">
              <mxPoint x="-1140" y="785" />
              <mxPoint x="-1140" y="560" />
              <mxPoint x="-1010" y="560" />
            </Array>
          </mxGeometry>
        </mxCell>
        <mxCell id="RTL6kd38lY_tx-6XgPDL-82" style="edgeStyle=orthogonalEdgeStyle;rounded=0;orthogonalLoop=1;jettySize=auto;html=1;exitX=1;exitY=0.5;exitDx=0;exitDy=0;entryX=0.5;entryY=0;entryDx=0;entryDy=0;" parent="1" source="6JZ951tkPi9Nr6TmQ6ol-34" target="RTL6kd38lY_tx-6XgPDL-69" edge="1">
          <mxGeometry relative="1" as="geometry">
            <Array as="points">
              <mxPoint x="-1140" y="785" />
              <mxPoint x="-1140" y="560" />
              <mxPoint x="-830" y="560" />
            </Array>
          </mxGeometry>
        </mxCell>
        <mxCell id="RTL6kd38lY_tx-6XgPDL-83" value="Response" style="swimlane;fontStyle=0;childLayout=stackLayout;horizontal=1;startSize=30;horizontalStack=0;resizeParent=1;resizeParentMax=0;resizeLast=0;collapsible=1;marginBottom=0;whiteSpace=wrap;html=1;" parent="1" vertex="1">
          <mxGeometry x="-900" y="746" width="140" height="120" as="geometry" />
        </mxCell>
        <mxCell id="RTL6kd38lY_tx-6XgPDL-84" value="user(object)" style="text;strokeColor=none;fillColor=none;align=left;verticalAlign=middle;spacingLeft=4;spacingRight=4;overflow=hidden;points=[[0,0.5],[1,0.5]];portConstraint=eastwest;rotatable=0;whiteSpace=wrap;html=1;" parent="RTL6kd38lY_tx-6XgPDL-83" vertex="1">
          <mxGeometry y="30" width="140" height="30" as="geometry" />
        </mxCell>
        <mxCell id="RTL6kd38lY_tx-6XgPDL-85" value="accessToken(string)" style="text;strokeColor=none;fillColor=none;align=left;verticalAlign=middle;spacingLeft=4;spacingRight=4;overflow=hidden;points=[[0,0.5],[1,0.5]];portConstraint=eastwest;rotatable=0;whiteSpace=wrap;html=1;" parent="RTL6kd38lY_tx-6XgPDL-83" vertex="1">
          <mxGeometry y="60" width="140" height="30" as="geometry" />
        </mxCell>
        <mxCell id="RTL6kd38lY_tx-6XgPDL-86" value="avatars(object)" style="text;strokeColor=none;fillColor=none;align=left;verticalAlign=middle;spacingLeft=4;spacingRight=4;overflow=hidden;points=[[0,0.5],[1,0.5]];portConstraint=eastwest;rotatable=0;whiteSpace=wrap;html=1;" parent="RTL6kd38lY_tx-6XgPDL-83" vertex="1">
          <mxGeometry y="90" width="140" height="30" as="geometry" />
        </mxCell>
        <mxCell id="RTL6kd38lY_tx-6XgPDL-87" style="edgeStyle=orthogonalEdgeStyle;rounded=0;orthogonalLoop=1;jettySize=auto;html=1;exitX=1;exitY=0.5;exitDx=0;exitDy=0;entryX=0.5;entryY=0;entryDx=0;entryDy=0;" parent="1" source="6JZ951tkPi9Nr6TmQ6ol-35" target="RTL6kd38lY_tx-6XgPDL-77" edge="1">
          <mxGeometry relative="1" as="geometry">
            <Array as="points">
              <mxPoint x="-1100" y="815" />
              <mxPoint x="-1100" y="726" />
              <mxPoint x="-1010" y="726" />
            </Array>
          </mxGeometry>
        </mxCell>
        <mxCell id="RTL6kd38lY_tx-6XgPDL-88" style="edgeStyle=orthogonalEdgeStyle;rounded=0;orthogonalLoop=1;jettySize=auto;html=1;exitX=1;exitY=0.5;exitDx=0;exitDy=0;entryX=0.5;entryY=0;entryDx=0;entryDy=0;" parent="1" source="6JZ951tkPi9Nr6TmQ6ol-35" target="RTL6kd38lY_tx-6XgPDL-83" edge="1">
          <mxGeometry relative="1" as="geometry">
            <Array as="points">
              <mxPoint x="-1100" y="815" />
              <mxPoint x="-1100" y="726" />
              <mxPoint x="-830" y="726" />
            </Array>
          </mxGeometry>
        </mxCell>
        <mxCell id="RTL6kd38lY_tx-6XgPDL-89" style="edgeStyle=orthogonalEdgeStyle;rounded=0;orthogonalLoop=1;jettySize=auto;html=1;exitX=1;exitY=0.5;exitDx=0;exitDy=0;entryX=0.5;entryY=0;entryDx=0;entryDy=0;" parent="1" source="RTL6kd38lY_tx-6XgPDL-84" target="RTL6kd38lY_tx-6XgPDL-61" edge="1">
          <mxGeometry relative="1" as="geometry" />
        </mxCell>
        <mxCell id="RTL6kd38lY_tx-6XgPDL-90" style="edgeStyle=orthogonalEdgeStyle;rounded=0;orthogonalLoop=1;jettySize=auto;html=1;exitX=1;exitY=0.5;exitDx=0;exitDy=0;entryX=0.5;entryY=0;entryDx=0;entryDy=0;" parent="1" source="RTL6kd38lY_tx-6XgPDL-70" target="RTL6kd38lY_tx-6XgPDL-61" edge="1">
          <mxGeometry relative="1" as="geometry" />
        </mxCell>
        <mxCell id="RTL6kd38lY_tx-6XgPDL-96" style="edgeStyle=orthogonalEdgeStyle;rounded=0;orthogonalLoop=1;jettySize=auto;html=1;exitX=1;exitY=0.5;exitDx=0;exitDy=0;entryX=0.5;entryY=0;entryDx=0;entryDy=0;" parent="1" source="RTL6kd38lY_tx-6XgPDL-86" target="RTL6kd38lY_tx-6XgPDL-65" edge="1">
          <mxGeometry relative="1" as="geometry">
            <Array as="points">
              <mxPoint x="-490" y="851" />
              <mxPoint x="-490" y="390" />
              <mxPoint x="-380" y="390" />
            </Array>
          </mxGeometry>
        </mxCell>
        <mxCell id="RTL6kd38lY_tx-6XgPDL-97" style="edgeStyle=orthogonalEdgeStyle;rounded=0;orthogonalLoop=1;jettySize=auto;html=1;exitX=1;exitY=0.5;exitDx=0;exitDy=0;entryX=0.5;entryY=0;entryDx=0;entryDy=0;" parent="1" source="RTL6kd38lY_tx-6XgPDL-72" target="RTL6kd38lY_tx-6XgPDL-65" edge="1">
          <mxGeometry relative="1" as="geometry">
            <Array as="points">
              <mxPoint x="-490" y="685" />
              <mxPoint x="-490" y="390" />
              <mxPoint x="-380" y="390" />
            </Array>
          </mxGeometry>
        </mxCell>
        <mxCell id="RTL6kd38lY_tx-6XgPDL-98" value="Response" style="swimlane;fontStyle=0;childLayout=stackLayout;horizontal=1;startSize=30;horizontalStack=0;resizeParent=1;resizeParentMax=0;resizeLast=0;collapsible=1;marginBottom=0;whiteSpace=wrap;html=1;" parent="1" vertex="1">
          <mxGeometry x="-900" y="900" width="140" height="60" as="geometry" />
        </mxCell>
        <mxCell id="RTL6kd38lY_tx-6XgPDL-99" value="user(object)" style="text;strokeColor=none;fillColor=none;align=left;verticalAlign=middle;spacingLeft=4;spacingRight=4;overflow=hidden;points=[[0,0.5],[1,0.5]];portConstraint=eastwest;rotatable=0;whiteSpace=wrap;html=1;" parent="RTL6kd38lY_tx-6XgPDL-98" vertex="1">
          <mxGeometry y="30" width="140" height="30" as="geometry" />
        </mxCell>
        <mxCell id="RTL6kd38lY_tx-6XgPDL-102" style="edgeStyle=orthogonalEdgeStyle;rounded=0;orthogonalLoop=1;jettySize=auto;html=1;exitX=1;exitY=0.5;exitDx=0;exitDy=0;entryX=0.5;entryY=0;entryDx=0;entryDy=0;" parent="1" source="6JZ951tkPi9Nr6TmQ6ol-36" target="RTL6kd38lY_tx-6XgPDL-98" edge="1">
          <mxGeometry relative="1" as="geometry">
            <Array as="points">
              <mxPoint x="-1190" y="845" />
              <mxPoint x="-1190" y="880" />
              <mxPoint x="-830" y="880" />
            </Array>
          </mxGeometry>
        </mxCell>
        <mxCell id="RTL6kd38lY_tx-6XgPDL-103" style="edgeStyle=orthogonalEdgeStyle;rounded=0;orthogonalLoop=1;jettySize=auto;html=1;exitX=1;exitY=0.5;exitDx=0;exitDy=0;entryX=0.5;entryY=0;entryDx=0;entryDy=0;" parent="1" source="RTL6kd38lY_tx-6XgPDL-99" target="RTL6kd38lY_tx-6XgPDL-61" edge="1">
          <mxGeometry relative="1" as="geometry" />
        </mxCell>
        <mxCell id="RTL6kd38lY_tx-6XgPDL-105" value="" style="rounded=0;whiteSpace=wrap;html=1;" parent="1" vertex="1">
          <mxGeometry x="-180" y="324" width="900" height="656" as="geometry" />
        </mxCell>
        <mxCell id="RTL6kd38lY_tx-6XgPDL-108" value="&lt;span style=&quot;color: rgb(240, 240, 240); font-family: Helvetica; font-size: 12px; font-style: normal; font-variant-ligatures: normal; font-variant-caps: normal; font-weight: 400; letter-spacing: normal; orphans: 2; text-align: center; text-indent: 0px; text-transform: none; widows: 2; word-spacing: 0px; -webkit-text-stroke-width: 0px; white-space: nowrap; background-color: rgb(27, 29, 30); text-decoration-thickness: initial; text-decoration-style: initial; text-decoration-color: initial; display: inline !important; float: none;&quot;&gt;/api/&lt;/span&gt;" style="text;html=1;align=center;verticalAlign=middle;whiteSpace=wrap;rounded=0;" parent="1" vertex="1">
          <mxGeometry x="180" y="290" width="90" height="34" as="geometry" />
        </mxCell>
        <mxCell id="RTL6kd38lY_tx-6XgPDL-117" style="edgeStyle=orthogonalEdgeStyle;rounded=0;orthogonalLoop=1;jettySize=auto;html=1;exitX=1;exitY=0.5;exitDx=0;exitDy=0;entryX=0.5;entryY=0;entryDx=0;entryDy=0;" parent="1" source="RTL6kd38lY_tx-6XgPDL-109" target="RTL6kd38lY_tx-6XgPDL-111" edge="1">
          <mxGeometry relative="1" as="geometry" />
        </mxCell>
        <mxCell id="RTL6kd38lY_tx-6XgPDL-109" value="Java Spring" style="rhombus;whiteSpace=wrap;html=1;" parent="1" vertex="1">
          <mxGeometry x="-145" y="350" width="140" height="120" as="geometry" />
        </mxCell>
        <mxCell id="RTL6kd38lY_tx-6XgPDL-111" value="" style="shape=parallelogram;perimeter=parallelogramPerimeter;whiteSpace=wrap;html=1;fixedSize=1;" parent="1" vertex="1">
          <mxGeometry x="40" y="444" width="270" height="93" as="geometry" />
        </mxCell>
        <mxCell id="RTL6kd38lY_tx-6XgPDL-112" value="&lt;p style=&quot;line-height: 120%; font-size: 10px;&quot;&gt;Will call&amp;nbsp;&lt;span style=&quot;background-color: initial;&quot;&gt;this procedure to validate token and return associated user every authorized request.&lt;br&gt;&lt;br&gt;Otherwise if it&#39;s request to any available public route, procedure won&#39;t be called.&lt;/span&gt;&lt;/p&gt;" style="text;html=1;align=left;verticalAlign=middle;whiteSpace=wrap;rounded=0;" parent="1" vertex="1">
          <mxGeometry x="65" y="464" width="220" height="68.5" as="geometry" />
        </mxCell>
        <mxCell id="RTL6kd38lY_tx-6XgPDL-113" style="edgeStyle=orthogonalEdgeStyle;rounded=0;orthogonalLoop=1;jettySize=auto;html=1;exitX=0;exitY=0.75;exitDx=0;exitDy=0;entryX=1;entryY=0.5;entryDx=0;entryDy=0;" parent="1" source="RTL6kd38lY_tx-6XgPDL-114" target="RTL6kd38lY_tx-6XgPDL-112" edge="1">
          <mxGeometry relative="1" as="geometry">
            <Array as="points">
              <mxPoint x="360" y="498" />
            </Array>
          </mxGeometry>
        </mxCell>
        <mxCell id="RTL6kd38lY_tx-6XgPDL-114" value="GRPC Client" style="swimlane;fontStyle=0;childLayout=stackLayout;horizontal=1;startSize=30;horizontalStack=0;resizeParent=1;resizeParentMax=0;resizeLast=0;collapsible=1;marginBottom=0;whiteSpace=wrap;html=1;" parent="1" vertex="1">
          <mxGeometry x="360" y="451" width="140" height="60" as="geometry" />
        </mxCell>
        <mxCell id="RTL6kd38lY_tx-6XgPDL-115" value="ValidateToken" style="text;strokeColor=none;fillColor=none;align=left;verticalAlign=middle;spacingLeft=4;spacingRight=4;overflow=hidden;points=[[0,0.5],[1,0.5]];portConstraint=eastwest;rotatable=0;whiteSpace=wrap;html=1;" parent="RTL6kd38lY_tx-6XgPDL-114" vertex="1">
          <mxGeometry y="30" width="140" height="30" as="geometry" />
        </mxCell>
        <mxCell id="RTL6kd38lY_tx-6XgPDL-118" value="UserDTO" style="swimlane;fontStyle=0;childLayout=stackLayout;horizontal=1;startSize=30;horizontalStack=0;resizeParent=1;resizeParentMax=0;resizeLast=0;collapsible=1;marginBottom=0;whiteSpace=wrap;html=1;" parent="1" vertex="1">
          <mxGeometry x="-1200" y="-350" width="140" height="120" as="geometry" />
        </mxCell>
        <mxCell id="RTL6kd38lY_tx-6XgPDL-119" value="id(string)" style="text;strokeColor=none;fillColor=none;align=left;verticalAlign=middle;spacingLeft=4;spacingRight=4;overflow=hidden;points=[[0,0.5],[1,0.5]];portConstraint=eastwest;rotatable=0;whiteSpace=wrap;html=1;" parent="RTL6kd38lY_tx-6XgPDL-118" vertex="1">
          <mxGeometry y="30" width="140" height="30" as="geometry" />
        </mxCell>
        <mxCell id="RTL6kd38lY_tx-6XgPDL-120" value="email(string)" style="text;strokeColor=none;fillColor=none;align=left;verticalAlign=middle;spacingLeft=4;spacingRight=4;overflow=hidden;points=[[0,0.5],[1,0.5]];portConstraint=eastwest;rotatable=0;whiteSpace=wrap;html=1;" parent="RTL6kd38lY_tx-6XgPDL-118" vertex="1">
          <mxGeometry y="60" width="140" height="30" as="geometry" />
        </mxCell>
        <mxCell id="RTL6kd38lY_tx-6XgPDL-121" value="username(string)" style="text;strokeColor=none;fillColor=none;align=left;verticalAlign=middle;spacingLeft=4;spacingRight=4;overflow=hidden;points=[[0,0.5],[1,0.5]];portConstraint=eastwest;rotatable=0;whiteSpace=wrap;html=1;" parent="RTL6kd38lY_tx-6XgPDL-118" vertex="1">
          <mxGeometry y="90" width="140" height="30" as="geometry" />
        </mxCell>
        <mxCell id="RTL6kd38lY_tx-6XgPDL-122" style="edgeStyle=orthogonalEdgeStyle;rounded=0;orthogonalLoop=1;jettySize=auto;html=1;exitX=0;exitY=0.5;exitDx=0;exitDy=0;entryX=0.5;entryY=0;entryDx=0;entryDy=0;" parent="1" source="QxZh3QZaXFdnJh5QPRap-79" target="RTL6kd38lY_tx-6XgPDL-118" edge="1">
          <mxGeometry relative="1" as="geometry" />
        </mxCell>
        <mxCell id="RTL6kd38lY_tx-6XgPDL-124" value="Response" style="swimlane;fontStyle=0;childLayout=stackLayout;horizontal=1;startSize=30;horizontalStack=0;resizeParent=1;resizeParentMax=0;resizeLast=0;collapsible=1;marginBottom=0;whiteSpace=wrap;html=1;" parent="1" vertex="1">
          <mxGeometry x="-1815" y="1000" width="140" height="60" as="geometry" />
        </mxCell>
        <mxCell id="RTL6kd38lY_tx-6XgPDL-125" value="fileId(string)" style="text;strokeColor=none;fillColor=none;align=left;verticalAlign=middle;spacingLeft=4;spacingRight=4;overflow=hidden;points=[[0,0.5],[1,0.5]];portConstraint=eastwest;rotatable=0;whiteSpace=wrap;html=1;" parent="RTL6kd38lY_tx-6XgPDL-124" vertex="1">
          <mxGeometry y="30" width="140" height="30" as="geometry" />
        </mxCell>
        <mxCell id="RTL6kd38lY_tx-6XgPDL-126" style="edgeStyle=orthogonalEdgeStyle;rounded=0;orthogonalLoop=1;jettySize=auto;html=1;exitX=1;exitY=0.5;exitDx=0;exitDy=0;entryX=0.5;entryY=0;entryDx=0;entryDy=0;" parent="1" source="RTL6kd38lY_tx-6XgPDL-56" target="RTL6kd38lY_tx-6XgPDL-124" edge="1">
          <mxGeometry relative="1" as="geometry">
            <Array as="points">
              <mxPoint x="-1880" y="1185" />
              <mxPoint x="-1880" y="980" />
              <mxPoint x="-1745" y="980" />
            </Array>
          </mxGeometry>
        </mxCell>
        <mxCell id="RTL6kd38lY_tx-6XgPDL-127" value="Response" style="swimlane;fontStyle=0;childLayout=stackLayout;horizontal=1;startSize=30;horizontalStack=0;resizeParent=1;resizeParentMax=0;resizeLast=0;collapsible=1;marginBottom=0;whiteSpace=wrap;html=1;" parent="1" vertex="1">
          <mxGeometry x="-1815" y="1100" width="140" height="60" as="geometry" />
        </mxCell>
        <mxCell id="RTL6kd38lY_tx-6XgPDL-128" value="isFileExists(bool)" style="text;strokeColor=none;fillColor=none;align=left;verticalAlign=middle;spacingLeft=4;spacingRight=4;overflow=hidden;points=[[0,0.5],[1,0.5]];portConstraint=eastwest;rotatable=0;whiteSpace=wrap;html=1;" parent="RTL6kd38lY_tx-6XgPDL-127" vertex="1">
          <mxGeometry y="30" width="140" height="30" as="geometry" />
        </mxCell>
        <mxCell id="RTL6kd38lY_tx-6XgPDL-130" value="Tus.io Metadata for Request" style="swimlane;fontStyle=0;childLayout=stackLayout;horizontal=1;startSize=30;horizontalStack=0;resizeParent=1;resizeParentMax=0;resizeLast=0;collapsible=1;marginBottom=0;whiteSpace=wrap;html=1;" parent="1" vertex="1">
          <mxGeometry x="-1665" y="1200" width="140" height="60" as="geometry" />
        </mxCell>
        <mxCell id="RTL6kd38lY_tx-6XgPDL-131" value="fileId(string)" style="text;strokeColor=none;fillColor=none;align=left;verticalAlign=middle;spacingLeft=4;spacingRight=4;overflow=hidden;points=[[0,0.5],[1,0.5]];portConstraint=eastwest;rotatable=0;whiteSpace=wrap;html=1;" parent="RTL6kd38lY_tx-6XgPDL-130" vertex="1">
          <mxGeometry y="30" width="140" height="30" as="geometry" />
        </mxCell>
        <mxCell id="RTL6kd38lY_tx-6XgPDL-133" style="edgeStyle=orthogonalEdgeStyle;rounded=0;orthogonalLoop=1;jettySize=auto;html=1;exitX=1;exitY=0.5;exitDx=0;exitDy=0;entryX=0.5;entryY=0;entryDx=0;entryDy=0;" parent="1" source="RTL6kd38lY_tx-6XgPDL-58" target="RTL6kd38lY_tx-6XgPDL-130" edge="1">
          <mxGeometry relative="1" as="geometry">
            <Array as="points">
              <mxPoint x="-1840" y="1265" />
              <mxPoint x="-1840" y="1180" />
              <mxPoint x="-1595" y="1180" />
            </Array>
          </mxGeometry>
        </mxCell>
        <mxCell id="RTL6kd38lY_tx-6XgPDL-135" style="edgeStyle=orthogonalEdgeStyle;rounded=0;orthogonalLoop=1;jettySize=auto;html=1;exitX=1;exitY=0.5;exitDx=0;exitDy=0;entryX=0.5;entryY=0;entryDx=0;entryDy=0;" parent="1" source="RTL6kd38lY_tx-6XgPDL-57" target="RTL6kd38lY_tx-6XgPDL-127" edge="1">
          <mxGeometry relative="1" as="geometry">
            <Array as="points">
              <mxPoint x="-1860" y="1215" />
              <mxPoint x="-1860" y="1080" />
              <mxPoint x="-1745" y="1080" />
            </Array>
          </mxGeometry>
        </mxCell>
        <mxCell id="RTL6kd38lY_tx-6XgPDL-140" value="Middleware" style="text;html=1;align=center;verticalAlign=middle;whiteSpace=wrap;rounded=0;" parent="1" vertex="1">
          <mxGeometry x="137.5" y="444" width="75" height="20" as="geometry" />
        </mxCell>
        <mxCell id="p1UXsCFpC4WPtuwyJn13-1" value="" style="rounded=0;whiteSpace=wrap;html=1;" parent="1" vertex="1">
          <mxGeometry x="-2220" y="1440" width="720" height="330" as="geometry" />
        </mxCell>
        <mxCell id="p1UXsCFpC4WPtuwyJn13-10" style="edgeStyle=orthogonalEdgeStyle;rounded=0;orthogonalLoop=1;jettySize=auto;html=1;exitX=0.5;exitY=1;exitDx=0;exitDy=0;entryX=0.5;entryY=0;entryDx=0;entryDy=0;" parent="1" source="p1UXsCFpC4WPtuwyJn13-2" target="p1UXsCFpC4WPtuwyJn13-6" edge="1">
          <mxGeometry relative="1" as="geometry" />
        </mxCell>
        <mxCell id="p1UXsCFpC4WPtuwyJn13-2" value="Java Spring" style="rhombus;whiteSpace=wrap;html=1;" parent="1" vertex="1">
          <mxGeometry x="-2191.25" y="1480" width="147.5" height="120" as="geometry" />
        </mxCell>
        <mxCell id="p1UXsCFpC4WPtuwyJn13-3" value="&lt;font style=&quot;font-size: 20px;&quot;&gt;External Api Handler Microservice&lt;/font&gt;" style="text;html=1;align=center;verticalAlign=middle;resizable=0;points=[];autosize=1;strokeColor=none;fillColor=none;" parent="1" vertex="1">
          <mxGeometry x="-2015" y="1440" width="320" height="40" as="geometry" />
        </mxCell>
        <mxCell id="p1UXsCFpC4WPtuwyJn13-6" value="GravatarRabbitMQListener&lt;div&gt;Queues&lt;/div&gt;" style="swimlane;fontStyle=0;childLayout=stackLayout;horizontal=1;startSize=40;horizontalStack=0;resizeParent=1;resizeParentMax=0;resizeLast=0;collapsible=1;marginBottom=0;whiteSpace=wrap;html=1;" parent="1" vertex="1">
          <mxGeometry x="-2200" y="1650" width="165" height="100" as="geometry" />
        </mxCell>
        <mxCell id="p1UXsCFpC4WPtuwyJn13-7" value="user.register" style="text;strokeColor=none;fillColor=none;align=left;verticalAlign=middle;spacingLeft=4;spacingRight=4;overflow=hidden;points=[[0,0.5],[1,0.5]];portConstraint=eastwest;rotatable=0;whiteSpace=wrap;html=1;" parent="p1UXsCFpC4WPtuwyJn13-6" vertex="1">
          <mxGeometry y="40" width="165" height="30" as="geometry" />
        </mxCell>
        <mxCell id="p1UXsCFpC4WPtuwyJn13-8" value="reset.gravatar" style="text;strokeColor=none;fillColor=none;align=left;verticalAlign=middle;spacingLeft=4;spacingRight=4;overflow=hidden;points=[[0,0.5],[1,0.5]];portConstraint=eastwest;rotatable=0;whiteSpace=wrap;html=1;" parent="p1UXsCFpC4WPtuwyJn13-6" vertex="1">
          <mxGeometry y="70" width="165" height="30" as="geometry" />
        </mxCell>
        <mxCell id="p1UXsCFpC4WPtuwyJn13-14" value="&lt;p style=&quot;line-height: 120%; font-size: 10px;&quot;&gt;Extract&amp;nbsp;&lt;span style=&quot;background-color: initial;&quot;&gt;UserDTO&lt;/span&gt;&lt;span style=&quot;background-color: initial;&quot;&gt;&amp;nbsp;from message and get email. Request an avatar from Gravatar. Save it to storage. Send to queue for converting.&lt;/span&gt;&lt;/p&gt;" style="text;html=1;align=left;verticalAlign=middle;whiteSpace=wrap;rounded=0;" parent="1" vertex="1">
          <mxGeometry x="-1950" y="1690" width="190" height="55" as="geometry" />
        </mxCell>
        <mxCell id="p1UXsCFpC4WPtuwyJn13-18" style="edgeStyle=orthogonalEdgeStyle;rounded=0;orthogonalLoop=1;jettySize=auto;html=1;exitX=1;exitY=0.5;exitDx=0;exitDy=0;entryX=0;entryY=0.5;entryDx=0;entryDy=0;" parent="1" source="p1UXsCFpC4WPtuwyJn13-7" target="p1UXsCFpC4WPtuwyJn13-14" edge="1">
          <mxGeometry relative="1" as="geometry" />
        </mxCell>
        <mxCell id="p1UXsCFpC4WPtuwyJn13-19" style="edgeStyle=orthogonalEdgeStyle;rounded=0;orthogonalLoop=1;jettySize=auto;html=1;exitX=1;exitY=0.5;exitDx=0;exitDy=0;" parent="1" source="p1UXsCFpC4WPtuwyJn13-8" target="p1UXsCFpC4WPtuwyJn13-14" edge="1">
          <mxGeometry relative="1" as="geometry" />
        </mxCell>
        <mxCell id="p1UXsCFpC4WPtuwyJn13-20" value="UserDTO" style="swimlane;fontStyle=0;childLayout=stackLayout;horizontal=1;startSize=30;horizontalStack=0;resizeParent=1;resizeParentMax=0;resizeLast=0;collapsible=1;marginBottom=0;whiteSpace=wrap;html=1;" parent="1" vertex="1">
          <mxGeometry x="-1664.71" y="1480" width="140" height="120" as="geometry" />
        </mxCell>
        <mxCell id="p1UXsCFpC4WPtuwyJn13-21" value="id(string)" style="text;strokeColor=none;fillColor=none;align=left;verticalAlign=middle;spacingLeft=4;spacingRight=4;overflow=hidden;points=[[0,0.5],[1,0.5]];portConstraint=eastwest;rotatable=0;whiteSpace=wrap;html=1;" parent="p1UXsCFpC4WPtuwyJn13-20" vertex="1">
          <mxGeometry y="30" width="140" height="30" as="geometry" />
        </mxCell>
        <mxCell id="p1UXsCFpC4WPtuwyJn13-22" value="email(string)" style="text;strokeColor=none;fillColor=none;align=left;verticalAlign=middle;spacingLeft=4;spacingRight=4;overflow=hidden;points=[[0,0.5],[1,0.5]];portConstraint=eastwest;rotatable=0;whiteSpace=wrap;html=1;" parent="p1UXsCFpC4WPtuwyJn13-20" vertex="1">
          <mxGeometry y="60" width="140" height="30" as="geometry" />
        </mxCell>
        <mxCell id="p1UXsCFpC4WPtuwyJn13-23" value="username(string)" style="text;strokeColor=none;fillColor=none;align=left;verticalAlign=middle;spacingLeft=4;spacingRight=4;overflow=hidden;points=[[0,0.5],[1,0.5]];portConstraint=eastwest;rotatable=0;whiteSpace=wrap;html=1;" parent="p1UXsCFpC4WPtuwyJn13-20" vertex="1">
          <mxGeometry y="90" width="140" height="30" as="geometry" />
        </mxCell>
        <mxCell id="p1UXsCFpC4WPtuwyJn13-25" value="" style="rounded=0;whiteSpace=wrap;html=1;" parent="1" vertex="1">
          <mxGeometry x="-2220" y="1840" width="720" height="450" as="geometry" />
        </mxCell>
        <mxCell id="p1UXsCFpC4WPtuwyJn13-38" style="edgeStyle=orthogonalEdgeStyle;rounded=0;orthogonalLoop=1;jettySize=auto;html=1;exitX=0.5;exitY=1;exitDx=0;exitDy=0;entryX=0.5;entryY=0;entryDx=0;entryDy=0;" parent="1" source="p1UXsCFpC4WPtuwyJn13-26" target="p1UXsCFpC4WPtuwyJn13-33" edge="1">
          <mxGeometry relative="1" as="geometry" />
        </mxCell>
        <mxCell id="L-i1q7qO95NGqIATYUMb-5" style="edgeStyle=orthogonalEdgeStyle;rounded=0;orthogonalLoop=1;jettySize=auto;html=1;exitX=0.5;exitY=1;exitDx=0;exitDy=0;entryX=0.5;entryY=0;entryDx=0;entryDy=0;" parent="1" source="p1UXsCFpC4WPtuwyJn13-26" target="L-i1q7qO95NGqIATYUMb-1" edge="1">
          <mxGeometry relative="1" as="geometry">
            <Array as="points">
              <mxPoint x="-2105" y="2030" />
              <mxPoint x="-2210" y="2030" />
              <mxPoint x="-2210" y="2140" />
              <mxPoint x="-2105" y="2140" />
            </Array>
          </mxGeometry>
        </mxCell>
        <mxCell id="p1UXsCFpC4WPtuwyJn13-26" value="Java Spring" style="rhombus;whiteSpace=wrap;html=1;" parent="1" vertex="1">
          <mxGeometry x="-2178.75" y="1880" width="147.5" height="120" as="geometry" />
        </mxCell>
        <mxCell id="p1UXsCFpC4WPtuwyJn13-27" value="&lt;font style=&quot;font-size: 20px;&quot;&gt;Image Handler Microservice&lt;/font&gt;" style="text;html=1;align=center;verticalAlign=middle;resizable=0;points=[];autosize=1;strokeColor=none;fillColor=none;" parent="1" vertex="1">
          <mxGeometry x="-1990" y="1840" width="270" height="40" as="geometry" />
        </mxCell>
        <mxCell id="p1UXsCFpC4WPtuwyJn13-28" value="UserDTO" style="swimlane;fontStyle=0;childLayout=stackLayout;horizontal=1;startSize=30;horizontalStack=0;resizeParent=1;resizeParentMax=0;resizeLast=0;collapsible=1;marginBottom=0;whiteSpace=wrap;html=1;" parent="1" vertex="1">
          <mxGeometry x="-1664.71" y="1880" width="140" height="120" as="geometry" />
        </mxCell>
        <mxCell id="p1UXsCFpC4WPtuwyJn13-29" value="id(string)" style="text;strokeColor=none;fillColor=none;align=left;verticalAlign=middle;spacingLeft=4;spacingRight=4;overflow=hidden;points=[[0,0.5],[1,0.5]];portConstraint=eastwest;rotatable=0;whiteSpace=wrap;html=1;" parent="p1UXsCFpC4WPtuwyJn13-28" vertex="1">
          <mxGeometry y="30" width="140" height="30" as="geometry" />
        </mxCell>
        <mxCell id="p1UXsCFpC4WPtuwyJn13-30" value="email(string)" style="text;strokeColor=none;fillColor=none;align=left;verticalAlign=middle;spacingLeft=4;spacingRight=4;overflow=hidden;points=[[0,0.5],[1,0.5]];portConstraint=eastwest;rotatable=0;whiteSpace=wrap;html=1;" parent="p1UXsCFpC4WPtuwyJn13-28" vertex="1">
          <mxGeometry y="60" width="140" height="30" as="geometry" />
        </mxCell>
        <mxCell id="p1UXsCFpC4WPtuwyJn13-31" value="username(string)" style="text;strokeColor=none;fillColor=none;align=left;verticalAlign=middle;spacingLeft=4;spacingRight=4;overflow=hidden;points=[[0,0.5],[1,0.5]];portConstraint=eastwest;rotatable=0;whiteSpace=wrap;html=1;" parent="p1UXsCFpC4WPtuwyJn13-28" vertex="1">
          <mxGeometry y="90" width="140" height="30" as="geometry" />
        </mxCell>
        <mxCell id="p1UXsCFpC4WPtuwyJn13-32" value="&lt;p style=&quot;line-height: 120%; font-size: 10px;&quot;&gt;Extract&amp;nbsp;&lt;span style=&quot;background-color: initial;&quot;&gt;UserDTO&lt;/span&gt;&lt;span style=&quot;background-color: initial;&quot;&gt;&amp;nbsp;from message. Using userId get original bytes of saved avatar from storage. Convert to webp format in different sizes and save to them to the storage.&lt;/span&gt;&lt;/p&gt;" style="text;html=1;align=left;verticalAlign=middle;whiteSpace=wrap;rounded=0;" parent="1" vertex="1">
          <mxGeometry x="-1930" y="2073.75" width="190" height="62.5" as="geometry" />
        </mxCell>
        <mxCell id="p1UXsCFpC4WPtuwyJn13-33" value="ConvertAvatarRabbitMQListener&lt;div&gt;Queues&lt;/div&gt;" style="swimlane;fontStyle=0;childLayout=stackLayout;horizontal=1;startSize=40;horizontalStack=0;resizeParent=1;resizeParentMax=0;resizeLast=0;collapsible=1;marginBottom=0;whiteSpace=wrap;html=1;" parent="1" vertex="1">
          <mxGeometry x="-2200" y="2050" width="190" height="70" as="geometry" />
        </mxCell>
        <mxCell id="p1UXsCFpC4WPtuwyJn13-34" value="convert.avatar" style="text;strokeColor=none;fillColor=none;align=left;verticalAlign=middle;spacingLeft=4;spacingRight=4;overflow=hidden;points=[[0,0.5],[1,0.5]];portConstraint=eastwest;rotatable=0;whiteSpace=wrap;html=1;" parent="p1UXsCFpC4WPtuwyJn13-33" vertex="1">
          <mxGeometry y="40" width="190" height="30" as="geometry" />
        </mxCell>
        <mxCell id="p1UXsCFpC4WPtuwyJn13-36" style="edgeStyle=orthogonalEdgeStyle;rounded=0;orthogonalLoop=1;jettySize=auto;html=1;exitX=1;exitY=0.5;exitDx=0;exitDy=0;entryX=0;entryY=0.5;entryDx=0;entryDy=0;" parent="1" source="p1UXsCFpC4WPtuwyJn13-34" target="p1UXsCFpC4WPtuwyJn13-32" edge="1">
          <mxGeometry relative="1" as="geometry" />
        </mxCell>
        <mxCell id="L-i1q7qO95NGqIATYUMb-1" value="ConvertCoverRabbitMQListener&lt;div&gt;Queues&lt;/div&gt;" style="swimlane;fontStyle=0;childLayout=stackLayout;horizontal=1;startSize=40;horizontalStack=0;resizeParent=1;resizeParentMax=0;resizeLast=0;collapsible=1;marginBottom=0;whiteSpace=wrap;html=1;" parent="1" vertex="1">
          <mxGeometry x="-2200" y="2160" width="190" height="70" as="geometry" />
        </mxCell>
        <mxCell id="L-i1q7qO95NGqIATYUMb-2" value="convert.cover" style="text;strokeColor=none;fillColor=none;align=left;verticalAlign=middle;spacingLeft=4;spacingRight=4;overflow=hidden;points=[[0,0.5],[1,0.5]];portConstraint=eastwest;rotatable=0;whiteSpace=wrap;html=1;" parent="L-i1q7qO95NGqIATYUMb-1" vertex="1">
          <mxGeometry y="40" width="190" height="30" as="geometry" />
        </mxCell>
        <mxCell id="L-i1q7qO95NGqIATYUMb-3" style="edgeStyle=orthogonalEdgeStyle;rounded=0;orthogonalLoop=1;jettySize=auto;html=1;exitX=1;exitY=0.5;exitDx=0;exitDy=0;entryX=0;entryY=0.5;entryDx=0;entryDy=0;" parent="1" source="L-i1q7qO95NGqIATYUMb-2" target="L-i1q7qO95NGqIATYUMb-4" edge="1">
          <mxGeometry relative="1" as="geometry" />
        </mxCell>
        <mxCell id="L-i1q7qO95NGqIATYUMb-4" value="&lt;p style=&quot;line-height: 120%; font-size: 10px;&quot;&gt;Extract CoverConvertingDTO from message. Using collectionId get original bytes of saved cover from storage. Convert to webp format in different sizes and save to them to the storage.&lt;/p&gt;" style="text;html=1;align=left;verticalAlign=middle;whiteSpace=wrap;rounded=0;" parent="1" vertex="1">
          <mxGeometry x="-1930" y="2183.75" width="190" height="62.5" as="geometry" />
        </mxCell>
        <mxCell id="L-i1q7qO95NGqIATYUMb-6" value="CoverConvertingDTO" style="swimlane;fontStyle=0;childLayout=stackLayout;horizontal=1;startSize=30;horizontalStack=0;resizeParent=1;resizeParentMax=0;resizeLast=0;collapsible=1;marginBottom=0;whiteSpace=wrap;html=1;" parent="1" vertex="1">
          <mxGeometry x="-1815" y="1880" width="140" height="90" as="geometry" />
        </mxCell>
        <mxCell id="L-i1q7qO95NGqIATYUMb-7" value="collectionId(string)" style="text;strokeColor=none;fillColor=none;align=left;verticalAlign=middle;spacingLeft=4;spacingRight=4;overflow=hidden;points=[[0,0.5],[1,0.5]];portConstraint=eastwest;rotatable=0;whiteSpace=wrap;html=1;" parent="L-i1q7qO95NGqIATYUMb-6" vertex="1">
          <mxGeometry y="30" width="140" height="30" as="geometry" />
        </mxCell>
        <mxCell id="L-i1q7qO95NGqIATYUMb-8" value="userId(string)" style="text;strokeColor=none;fillColor=none;align=left;verticalAlign=middle;spacingLeft=4;spacingRight=4;overflow=hidden;points=[[0,0.5],[1,0.5]];portConstraint=eastwest;rotatable=0;whiteSpace=wrap;html=1;" parent="L-i1q7qO95NGqIATYUMb-6" vertex="1">
          <mxGeometry y="60" width="140" height="30" as="geometry" />
        </mxCell>
        <mxCell id="eud57FVcPFkQBdtwtgkk-2" value="" style="rounded=0;whiteSpace=wrap;html=1;" parent="1" vertex="1">
          <mxGeometry x="-3030" y="324" width="720" height="486" as="geometry" />
        </mxCell>
        <mxCell id="eud57FVcPFkQBdtwtgkk-4" value="&lt;span style=&quot;color: rgb(240, 240, 240); font-family: Helvetica; font-size: 12px; font-style: normal; font-variant-ligatures: normal; font-variant-caps: normal; font-weight: 400; letter-spacing: normal; orphans: 2; text-align: center; text-indent: 0px; text-transform: none; widows: 2; word-spacing: 0px; -webkit-text-stroke-width: 0px; white-space: nowrap; background-color: rgb(27, 29, 30); text-decoration-thickness: initial; text-decoration-style: initial; text-decoration-color: initial; display: inline !important; float: none;&quot;&gt;/api/stream/&lt;/span&gt;" style="text;html=1;align=center;verticalAlign=middle;whiteSpace=wrap;rounded=0;" parent="1" vertex="1">
          <mxGeometry x="-2760" y="290" width="90" height="34" as="geometry" />
        </mxCell>
        <mxCell id="eud57FVcPFkQBdtwtgkk-5" value="&lt;font style=&quot;font-size: 20px;&quot;&gt;Stream Api Microservice&lt;/font&gt;" style="text;html=1;align=center;verticalAlign=middle;resizable=0;points=[];autosize=1;strokeColor=none;fillColor=none;" parent="1" vertex="1">
          <mxGeometry x="-2790" y="324" width="240" height="40" as="geometry" />
        </mxCell>
        <mxCell id="eud57FVcPFkQBdtwtgkk-6" value="Java Spring" style="rhombus;whiteSpace=wrap;html=1;" parent="1" vertex="1">
          <mxGeometry x="-3000" y="345" width="140" height="120" as="geometry" />
        </mxCell>
        <mxCell id="eud57FVcPFkQBdtwtgkk-7" style="edgeStyle=orthogonalEdgeStyle;rounded=0;orthogonalLoop=1;jettySize=auto;html=1;exitX=1;exitY=0.5;exitDx=0;exitDy=0;entryX=0.5;entryY=0;entryDx=0;entryDy=0;" parent="1" source="eud57FVcPFkQBdtwtgkk-6" target="eud57FVcPFkQBdtwtgkk-8" edge="1">
          <mxGeometry relative="1" as="geometry" />
        </mxCell>
        <mxCell id="eud57FVcPFkQBdtwtgkk-17" style="edgeStyle=orthogonalEdgeStyle;rounded=0;orthogonalLoop=1;jettySize=auto;html=1;exitX=0;exitY=0.5;exitDx=0;exitDy=0;entryX=0.5;entryY=0;entryDx=0;entryDy=0;" parent="1" source="eud57FVcPFkQBdtwtgkk-8" target="eud57FVcPFkQBdtwtgkk-14" edge="1">
          <mxGeometry relative="1" as="geometry">
            <Array as="points">
              <mxPoint x="-3000" y="527" />
              <mxPoint x="-3000" y="650" />
              <mxPoint x="-2830" y="650" />
            </Array>
          </mxGeometry>
        </mxCell>
        <mxCell id="eud57FVcPFkQBdtwtgkk-8" value="" style="shape=parallelogram;perimeter=parallelogramPerimeter;whiteSpace=wrap;html=1;fixedSize=1;" parent="1" vertex="1">
          <mxGeometry x="-2835" y="480.5" width="270" height="93" as="geometry" />
        </mxCell>
        <mxCell id="eud57FVcPFkQBdtwtgkk-9" value="&lt;p style=&quot;line-height: 120%; font-size: 10px;&quot;&gt;Will call&amp;nbsp;&lt;span style=&quot;background-color: initial;&quot;&gt;this procedure to validate token and return associated user every authorized request.&lt;br&gt;&lt;br&gt;Otherwise if it&#39;s request to any available public route, procedure won&#39;t be called.&lt;/span&gt;&lt;/p&gt;" style="text;html=1;align=left;verticalAlign=middle;whiteSpace=wrap;rounded=0;" parent="1" vertex="1">
          <mxGeometry x="-2810" y="500.5" width="220" height="68.5" as="geometry" />
        </mxCell>
        <mxCell id="eud57FVcPFkQBdtwtgkk-10" value="Middleware" style="text;html=1;align=center;verticalAlign=middle;whiteSpace=wrap;rounded=0;" parent="1" vertex="1">
          <mxGeometry x="-2737.5" y="480.5" width="75" height="20" as="geometry" />
        </mxCell>
        <mxCell id="eud57FVcPFkQBdtwtgkk-11" style="edgeStyle=orthogonalEdgeStyle;rounded=0;orthogonalLoop=1;jettySize=auto;html=1;exitX=0;exitY=0.75;exitDx=0;exitDy=0;entryX=1;entryY=0.5;entryDx=0;entryDy=0;" parent="1" source="eud57FVcPFkQBdtwtgkk-12" target="eud57FVcPFkQBdtwtgkk-9" edge="1">
          <mxGeometry relative="1" as="geometry">
            <Array as="points">
              <mxPoint x="-2515" y="534.5" />
            </Array>
          </mxGeometry>
        </mxCell>
        <mxCell id="eud57FVcPFkQBdtwtgkk-12" value="GRPC Client" style="swimlane;fontStyle=0;childLayout=stackLayout;horizontal=1;startSize=30;horizontalStack=0;resizeParent=1;resizeParentMax=0;resizeLast=0;collapsible=1;marginBottom=0;whiteSpace=wrap;html=1;" parent="1" vertex="1">
          <mxGeometry x="-2515" y="487.5" width="140" height="60" as="geometry" />
        </mxCell>
        <mxCell id="eud57FVcPFkQBdtwtgkk-13" value="ValidateToken" style="text;strokeColor=none;fillColor=none;align=left;verticalAlign=middle;spacingLeft=4;spacingRight=4;overflow=hidden;points=[[0,0.5],[1,0.5]];portConstraint=eastwest;rotatable=0;whiteSpace=wrap;html=1;" parent="eud57FVcPFkQBdtwtgkk-12" vertex="1">
          <mxGeometry y="30" width="140" height="30" as="geometry" />
        </mxCell>
        <mxCell id="eud57FVcPFkQBdtwtgkk-14" value="Streaming Controller Routes" style="swimlane;fontStyle=0;childLayout=stackLayout;horizontal=1;startSize=30;horizontalStack=0;resizeParent=1;resizeParentMax=0;resizeLast=0;collapsible=1;marginBottom=0;whiteSpace=wrap;html=1;" parent="1" vertex="1">
          <mxGeometry x="-2960" y="680" width="400" height="90" as="geometry">
            <mxRectangle x="-1135" y="532" width="80" height="30" as="alternateBounds" />
          </mxGeometry>
        </mxCell>
        <mxCell id="eud57FVcPFkQBdtwtgkk-15" value="/api/stream/protected/playlist/{audioId}/{quality}(GET)" style="text;strokeColor=none;fillColor=none;align=left;verticalAlign=middle;spacingLeft=4;spacingRight=4;overflow=hidden;points=[[0,0.5],[1,0.5]];portConstraint=eastwest;rotatable=0;whiteSpace=wrap;html=1;" parent="eud57FVcPFkQBdtwtgkk-14" vertex="1">
          <mxGeometry y="30" width="400" height="30" as="geometry" />
        </mxCell>
        <mxCell id="eud57FVcPFkQBdtwtgkk-16" value="/api/stream/protected/segment/{audioId}/{quality}/{segmentName}(GET)" style="text;strokeColor=none;fillColor=none;align=left;verticalAlign=middle;spacingLeft=4;spacingRight=4;overflow=hidden;points=[[0,0.5],[1,0.5]];portConstraint=eastwest;rotatable=0;whiteSpace=wrap;html=1;" parent="eud57FVcPFkQBdtwtgkk-14" vertex="1">
          <mxGeometry y="60" width="400" height="30" as="geometry" />
        </mxCell>
        <mxCell id="eud57FVcPFkQBdtwtgkk-18" value="&lt;p style=&quot;line-height: 120%; font-size: 10px;&quot;&gt;VideoJs on frontend is managing request here by itself&lt;/p&gt;" style="text;html=1;align=left;verticalAlign=middle;whiteSpace=wrap;rounded=0;" parent="1" vertex="1">
          <mxGeometry x="-2515" y="710" width="190" height="60" as="geometry" />
        </mxCell>
        <mxCell id="eud57FVcPFkQBdtwtgkk-19" style="edgeStyle=orthogonalEdgeStyle;rounded=0;orthogonalLoop=1;jettySize=auto;html=1;exitX=1;exitY=0.5;exitDx=0;exitDy=0;entryX=0;entryY=0.5;entryDx=0;entryDy=0;" parent="1" source="eud57FVcPFkQBdtwtgkk-15" target="eud57FVcPFkQBdtwtgkk-18" edge="1">
          <mxGeometry relative="1" as="geometry" />
        </mxCell>
        <mxCell id="eud57FVcPFkQBdtwtgkk-21" style="edgeStyle=orthogonalEdgeStyle;rounded=0;orthogonalLoop=1;jettySize=auto;html=1;exitX=1;exitY=0.5;exitDx=0;exitDy=0;entryX=0;entryY=0.5;entryDx=0;entryDy=0;" parent="1" source="eud57FVcPFkQBdtwtgkk-16" target="eud57FVcPFkQBdtwtgkk-18" edge="1">
          <mxGeometry relative="1" as="geometry" />
        </mxCell>
        <mxCell id="4mVFF6H8IK0ECLe168SO-2" value="" style="rounded=0;whiteSpace=wrap;html=1;" parent="1" vertex="1">
          <mxGeometry x="-2220" y="2360" width="720" height="330" as="geometry" />
        </mxCell>
        <mxCell id="4mVFF6H8IK0ECLe168SO-3" value="&lt;font style=&quot;font-size: 20px;&quot;&gt;Audio Handler Microservice&lt;/font&gt;" style="text;html=1;align=center;verticalAlign=middle;resizable=0;points=[];autosize=1;strokeColor=none;fillColor=none;" parent="1" vertex="1">
          <mxGeometry x="-1990" y="2360" width="270" height="40" as="geometry" />
        </mxCell>
        <mxCell id="4mVFF6H8IK0ECLe168SO-7" style="edgeStyle=orthogonalEdgeStyle;rounded=0;orthogonalLoop=1;jettySize=auto;html=1;exitX=0.5;exitY=1;exitDx=0;exitDy=0;entryX=0.5;entryY=0;entryDx=0;entryDy=0;" parent="1" source="4mVFF6H8IK0ECLe168SO-4" target="4mVFF6H8IK0ECLe168SO-5" edge="1">
          <mxGeometry relative="1" as="geometry" />
        </mxCell>
        <mxCell id="4mVFF6H8IK0ECLe168SO-4" value="Java Spring" style="rhombus;whiteSpace=wrap;html=1;" parent="1" vertex="1">
          <mxGeometry x="-2178.75" y="2400" width="147.5" height="120" as="geometry" />
        </mxCell>
        <mxCell id="4mVFF6H8IK0ECLe168SO-5" value="ConvertAudio&lt;span style=&quot;background-color: initial;&quot;&gt;RabbitMQListener&lt;/span&gt;&lt;div&gt;&lt;div&gt;Queues&lt;/div&gt;&lt;/div&gt;" style="swimlane;fontStyle=0;childLayout=stackLayout;horizontal=1;startSize=40;horizontalStack=0;resizeParent=1;resizeParentMax=0;resizeLast=0;collapsible=1;marginBottom=0;whiteSpace=wrap;html=1;" parent="1" vertex="1">
          <mxGeometry x="-2200" y="2560" width="190" height="70" as="geometry" />
        </mxCell>
        <mxCell id="4mVFF6H8IK0ECLe168SO-6" value="convert.audio" style="text;strokeColor=none;fillColor=none;align=left;verticalAlign=middle;spacingLeft=4;spacingRight=4;overflow=hidden;points=[[0,0.5],[1,0.5]];portConstraint=eastwest;rotatable=0;whiteSpace=wrap;html=1;" parent="4mVFF6H8IK0ECLe168SO-5" vertex="1">
          <mxGeometry y="40" width="190" height="30" as="geometry" />
        </mxCell>
        <mxCell id="4mVFF6H8IK0ECLe168SO-12" value="AudioConvertingDTO" style="swimlane;fontStyle=0;childLayout=stackLayout;horizontal=1;startSize=30;horizontalStack=0;resizeParent=1;resizeParentMax=0;resizeLast=0;collapsible=1;marginBottom=0;whiteSpace=wrap;html=1;" parent="1" vertex="1">
          <mxGeometry x="-1664.71" y="2400" width="140" height="120" as="geometry" />
        </mxCell>
        <mxCell id="4mVFF6H8IK0ECLe168SO-14" value="userId(string)" style="text;strokeColor=none;fillColor=none;align=left;verticalAlign=middle;spacingLeft=4;spacingRight=4;overflow=hidden;points=[[0,0.5],[1,0.5]];portConstraint=eastwest;rotatable=0;whiteSpace=wrap;html=1;" parent="4mVFF6H8IK0ECLe168SO-12" vertex="1">
          <mxGeometry y="30" width="140" height="30" as="geometry" />
        </mxCell>
        <mxCell id="4mVFF6H8IK0ECLe168SO-13" value="audioId(string)" style="text;strokeColor=none;fillColor=none;align=left;verticalAlign=middle;spacingLeft=4;spacingRight=4;overflow=hidden;points=[[0,0.5],[1,0.5]];portConstraint=eastwest;rotatable=0;whiteSpace=wrap;html=1;" parent="4mVFF6H8IK0ECLe168SO-12" vertex="1">
          <mxGeometry y="60" width="140" height="30" as="geometry" />
        </mxCell>
        <mxCell id="4mVFF6H8IK0ECLe168SO-15" value="fileId(string)" style="text;strokeColor=none;fillColor=none;align=left;verticalAlign=middle;spacingLeft=4;spacingRight=4;overflow=hidden;points=[[0,0.5],[1,0.5]];portConstraint=eastwest;rotatable=0;whiteSpace=wrap;html=1;" parent="4mVFF6H8IK0ECLe168SO-12" vertex="1">
          <mxGeometry y="90" width="140" height="30" as="geometry" />
        </mxCell>
        <mxCell id="4mVFF6H8IK0ECLe168SO-16" value="&lt;p style=&quot;line-height: 120%; font-size: 10px;&quot;&gt;Extract AudioConvertingDTO from message. Using fileId get original bytes of saved audio from temporal storage. Convert to aac format and then to HLS playlist with segments, in different audio qualities and save all of it to the storage.&lt;/p&gt;" style="text;html=1;align=left;verticalAlign=middle;whiteSpace=wrap;rounded=0;" parent="1" vertex="1">
          <mxGeometry x="-1940" y="2576.88" width="190" height="76.25" as="geometry" />
        </mxCell>
        <mxCell id="4mVFF6H8IK0ECLe168SO-17" style="edgeStyle=orthogonalEdgeStyle;rounded=0;orthogonalLoop=1;jettySize=auto;html=1;exitX=1;exitY=0.5;exitDx=0;exitDy=0;entryX=0;entryY=0.5;entryDx=0;entryDy=0;" parent="1" source="4mVFF6H8IK0ECLe168SO-6" target="4mVFF6H8IK0ECLe168SO-16" edge="1">
          <mxGeometry relative="1" as="geometry" />
        </mxCell>
        <mxCell id="Lza-kezcfvf8J4adov2q-1" value="&lt;font style=&quot;font-size: 36px;&quot;&gt;Database Entities&lt;/font&gt;" style="text;html=1;align=center;verticalAlign=middle;resizable=0;points=[];autosize=1;strokeColor=none;fillColor=none;fontSize=36;" parent="1" vertex="1">
          <mxGeometry x="-1330" y="-1830" width="310" height="60" as="geometry" />
        </mxCell>
        <mxCell id="mf2Bld0XbRjCkK78bz_a-5" value="" style="rounded=0;whiteSpace=wrap;html=1;" parent="1" vertex="1">
          <mxGeometry x="-2790" y="-1630" width="2710" height="1130" as="geometry" />
        </mxCell>
        <mxCell id="mf2Bld0XbRjCkK78bz_a-6" value="" style="shape=cylinder3;whiteSpace=wrap;html=1;boundedLbl=1;backgroundOutline=1;size=15;" parent="1" vertex="1">
          <mxGeometry x="-2668.75" y="-1573" width="152.5" height="150" as="geometry" />
        </mxCell>
        <mxCell id="mf2Bld0XbRjCkK78bz_a-7" value="&lt;div style=&quot;background-color:#1a1a25;color:#d8d8d8&quot;&gt;&lt;pre style=&quot;font-family:&#39;JetBrains Mono&#39;,monospace;font-size:9.8pt;&quot;&gt;&lt;span style=&quot;color:#cc8b60;&quot;&gt;db.postgresql.main&lt;/span&gt;&lt;/pre&gt;&lt;/div&gt;" style="text;html=1;align=center;verticalAlign=middle;whiteSpace=wrap;rounded=0;" parent="1" vertex="1">
          <mxGeometry x="-2665.5" y="-1513" width="146" height="30" as="geometry" />
        </mxCell>
        <mxCell id="mf2Bld0XbRjCkK78bz_a-10" value="" style="rounded=0;whiteSpace=wrap;html=1;" parent="1" vertex="1">
          <mxGeometry x="-20" y="-1630" width="352.5" height="530" as="geometry" />
        </mxCell>
        <mxCell id="mf2Bld0XbRjCkK78bz_a-11" value="" style="shape=cylinder3;whiteSpace=wrap;html=1;boundedLbl=1;backgroundOutline=1;size=15;movable=1;resizable=1;rotatable=1;deletable=1;editable=1;locked=0;connectable=1;" parent="1" vertex="1">
          <mxGeometry x="80" y="-1573" width="152.5" height="150" as="geometry" />
        </mxCell>
        <mxCell id="mf2Bld0XbRjCkK78bz_a-12" value="&lt;div style=&quot;background-color:#1a1a25;color:#d8d8d8&quot;&gt;&lt;pre style=&quot;font-family:&#39;JetBrains Mono&#39;,monospace;font-size:9.8pt;&quot;&gt;&lt;div&gt;&lt;pre style=&quot;font-family:&#39;JetBrains Mono&#39;,monospace;font-size:9.8pt;&quot;&gt;&lt;span style=&quot;color:#cc8b60;&quot;&gt;db.mysql.users&lt;/span&gt;&lt;/pre&gt;&lt;/div&gt;&lt;/pre&gt;&lt;/div&gt;" style="text;html=1;align=center;verticalAlign=middle;whiteSpace=wrap;rounded=0;movable=1;resizable=1;rotatable=1;deletable=1;editable=1;locked=0;connectable=1;" parent="1" vertex="1">
          <mxGeometry x="83.25" y="-1513" width="146" height="30" as="geometry" />
        </mxCell>
        <mxCell id="6JZ951tkPi9Nr6TmQ6ol-3" value="User" style="swimlane;fontStyle=0;childLayout=stackLayout;horizontal=1;startSize=26;fillColor=none;horizontalStack=0;resizeParent=1;resizeParentMax=0;resizeLast=0;collapsible=1;marginBottom=0;whiteSpace=wrap;html=1;" parent="1" vertex="1">
          <mxGeometry x="55" y="-1365" width="205" height="234" as="geometry" />
        </mxCell>
        <mxCell id="6JZ951tkPi9Nr6TmQ6ol-4" value="+ id : UUID string" style="text;strokeColor=none;fillColor=none;align=left;verticalAlign=top;spacingLeft=4;spacingRight=4;overflow=hidden;rotatable=0;points=[[0,0.5],[1,0.5]];portConstraint=eastwest;whiteSpace=wrap;html=1;" parent="6JZ951tkPi9Nr6TmQ6ol-3" vertex="1">
          <mxGeometry y="26" width="205" height="26" as="geometry" />
        </mxCell>
        <mxCell id="6JZ951tkPi9Nr6TmQ6ol-5" value="+ username : VARCHAR (255)" style="text;strokeColor=none;fillColor=none;align=left;verticalAlign=top;spacingLeft=4;spacingRight=4;overflow=hidden;rotatable=0;points=[[0,0.5],[1,0.5]];portConstraint=eastwest;whiteSpace=wrap;html=1;" parent="6JZ951tkPi9Nr6TmQ6ol-3" vertex="1">
          <mxGeometry y="52" width="205" height="26" as="geometry" />
        </mxCell>
        <mxCell id="6JZ951tkPi9Nr6TmQ6ol-6" value="+ email : VARCHAR (255)" style="text;strokeColor=none;fillColor=none;align=left;verticalAlign=top;spacingLeft=4;spacingRight=4;overflow=hidden;rotatable=0;points=[[0,0.5],[1,0.5]];portConstraint=eastwest;whiteSpace=wrap;html=1;" parent="6JZ951tkPi9Nr6TmQ6ol-3" vertex="1">
          <mxGeometry y="78" width="205" height="26" as="geometry" />
        </mxCell>
        <mxCell id="6JZ951tkPi9Nr6TmQ6ol-7" value="+ password : VARCHAR (255)" style="text;strokeColor=none;fillColor=none;align=left;verticalAlign=top;spacingLeft=4;spacingRight=4;overflow=hidden;rotatable=0;points=[[0,0.5],[1,0.5]];portConstraint=eastwest;whiteSpace=wrap;html=1;" parent="6JZ951tkPi9Nr6TmQ6ol-3" vertex="1">
          <mxGeometry y="104" width="205" height="26" as="geometry" />
        </mxCell>
        <mxCell id="Lza-kezcfvf8J4adov2q-2" value="+ refreshToken : VARCHAR (255)" style="text;strokeColor=none;fillColor=none;align=left;verticalAlign=top;spacingLeft=4;spacingRight=4;overflow=hidden;rotatable=0;points=[[0,0.5],[1,0.5]];portConstraint=eastwest;whiteSpace=wrap;html=1;" parent="6JZ951tkPi9Nr6TmQ6ol-3" vertex="1">
          <mxGeometry y="130" width="205" height="26" as="geometry" />
        </mxCell>
        <mxCell id="mf2Bld0XbRjCkK78bz_a-24" value="+ emailVerifiedAt : DATETIME" style="text;strokeColor=none;fillColor=none;align=left;verticalAlign=top;spacingLeft=4;spacingRight=4;overflow=hidden;rotatable=0;points=[[0,0.5],[1,0.5]];portConstraint=eastwest;whiteSpace=wrap;html=1;" parent="6JZ951tkPi9Nr6TmQ6ol-3" vertex="1">
          <mxGeometry y="156" width="205" height="26" as="geometry" />
        </mxCell>
        <mxCell id="6JZ951tkPi9Nr6TmQ6ol-8" value="+ createdAt : DATETIME" style="text;strokeColor=none;fillColor=none;align=left;verticalAlign=top;spacingLeft=4;spacingRight=4;overflow=hidden;rotatable=0;points=[[0,0.5],[1,0.5]];portConstraint=eastwest;whiteSpace=wrap;html=1;" parent="6JZ951tkPi9Nr6TmQ6ol-3" vertex="1">
          <mxGeometry y="182" width="205" height="26" as="geometry" />
        </mxCell>
        <mxCell id="6JZ951tkPi9Nr6TmQ6ol-9" value="+ updatedAt : DATETIME" style="text;strokeColor=none;fillColor=none;align=left;verticalAlign=top;spacingLeft=4;spacingRight=4;overflow=hidden;rotatable=0;points=[[0,0.5],[1,0.5]];portConstraint=eastwest;whiteSpace=wrap;html=1;" parent="6JZ951tkPi9Nr6TmQ6ol-3" vertex="1">
          <mxGeometry y="208" width="205" height="26" as="geometry" />
        </mxCell>
        <mxCell id="rFY-rz_WOS9prxRwEmC6-1" value="Collection" style="swimlane;fontStyle=0;childLayout=stackLayout;horizontal=1;startSize=30;horizontalStack=0;resizeParent=1;resizeParentMax=0;resizeLast=0;collapsible=1;marginBottom=0;whiteSpace=wrap;html=1;" parent="1" vertex="1">
          <mxGeometry x="-2710" y="-1155" width="235" height="210" as="geometry" />
        </mxCell>
        <mxCell id="rFY-rz_WOS9prxRwEmC6-2" value="+ id : UUID string" style="text;strokeColor=none;fillColor=none;align=left;verticalAlign=middle;spacingLeft=4;spacingRight=4;overflow=hidden;points=[[0,0.5],[1,0.5]];portConstraint=eastwest;rotatable=0;whiteSpace=wrap;html=1;" parent="rFY-rz_WOS9prxRwEmC6-1" vertex="1">
          <mxGeometry y="30" width="235" height="30" as="geometry" />
        </mxCell>
        <mxCell id="rFY-rz_WOS9prxRwEmC6-3" value="+ name : NVARCHAR (100)" style="text;strokeColor=none;fillColor=none;align=left;verticalAlign=middle;spacingLeft=4;spacingRight=4;overflow=hidden;points=[[0,0.5],[1,0.5]];portConstraint=eastwest;rotatable=0;whiteSpace=wrap;html=1;" parent="rFY-rz_WOS9prxRwEmC6-1" vertex="1">
          <mxGeometry y="60" width="235" height="30" as="geometry" />
        </mxCell>
        <mxCell id="rFY-rz_WOS9prxRwEmC6-4" value="+ numberOfSongs : SMALLINT" style="text;strokeColor=none;fillColor=none;align=left;verticalAlign=middle;spacingLeft=4;spacingRight=4;overflow=hidden;points=[[0,0.5],[1,0.5]];portConstraint=eastwest;rotatable=0;whiteSpace=wrap;html=1;" parent="rFY-rz_WOS9prxRwEmC6-1" vertex="1">
          <mxGeometry y="90" width="235" height="30" as="geometry" />
        </mxCell>
        <mxCell id="rFY-rz_WOS9prxRwEmC6-17" value="+ duration : INTEGER" style="text;strokeColor=none;fillColor=none;align=left;verticalAlign=middle;spacingLeft=4;spacingRight=4;overflow=hidden;points=[[0,0.5],[1,0.5]];portConstraint=eastwest;rotatable=0;whiteSpace=wrap;html=1;" parent="rFY-rz_WOS9prxRwEmC6-1" vertex="1">
          <mxGeometry y="120" width="235" height="30" as="geometry" />
        </mxCell>
        <mxCell id="EfcInkHwceWXl7_W82CV-8" value="+ isPrivate : BOOLEAN" style="text;strokeColor=none;fillColor=none;align=left;verticalAlign=middle;spacingLeft=4;spacingRight=4;overflow=hidden;points=[[0,0.5],[1,0.5]];portConstraint=eastwest;rotatable=0;whiteSpace=wrap;html=1;" parent="rFY-rz_WOS9prxRwEmC6-1" vertex="1">
          <mxGeometry y="150" width="235" height="30" as="geometry" />
        </mxCell>
        <mxCell id="rFY-rz_WOS9prxRwEmC6-21" value="+ createdAt : DATETIME" style="text;strokeColor=none;fillColor=none;align=left;verticalAlign=middle;spacingLeft=4;spacingRight=4;overflow=hidden;points=[[0,0.5],[1,0.5]];portConstraint=eastwest;rotatable=0;whiteSpace=wrap;html=1;" parent="rFY-rz_WOS9prxRwEmC6-1" vertex="1">
          <mxGeometry y="180" width="235" height="30" as="geometry" />
        </mxCell>
        <mxCell id="rFY-rz_WOS9prxRwEmC6-5" value="Release" style="swimlane;fontStyle=0;childLayout=stackLayout;horizontal=1;startSize=30;horizontalStack=0;resizeParent=1;resizeParentMax=0;resizeLast=0;collapsible=1;marginBottom=0;whiteSpace=wrap;html=1;" parent="1" vertex="1">
          <mxGeometry x="-2314.71" y="-1483" width="207.5" height="520" as="geometry" />
        </mxCell>
        <mxCell id="rFY-rz_WOS9prxRwEmC6-6" value="+ id : UUID string" style="text;strokeColor=none;fillColor=none;align=left;verticalAlign=middle;spacingLeft=4;spacingRight=4;overflow=hidden;points=[[0,0.5],[1,0.5]];portConstraint=eastwest;rotatable=0;whiteSpace=wrap;html=1;" parent="rFY-rz_WOS9prxRwEmC6-5" vertex="1">
          <mxGeometry y="30" width="207.5" height="30" as="geometry" />
        </mxCell>
        <mxCell id="rFY-rz_WOS9prxRwEmC6-62" value="+ artist" style="text;strokeColor=none;fillColor=none;align=left;verticalAlign=middle;spacingLeft=4;spacingRight=4;overflow=hidden;points=[[0,0.5],[1,0.5]];portConstraint=eastwest;rotatable=0;whiteSpace=wrap;html=1;" parent="rFY-rz_WOS9prxRwEmC6-5" vertex="1">
          <mxGeometry y="60" width="207.5" height="30" as="geometry" />
        </mxCell>
        <mxCell id="rFY-rz_WOS9prxRwEmC6-7" value="+ collection" style="text;strokeColor=none;fillColor=none;align=left;verticalAlign=middle;spacingLeft=4;spacingRight=4;overflow=hidden;points=[[0,0.5],[1,0.5]];portConstraint=eastwest;rotatable=0;whiteSpace=wrap;html=1;" parent="rFY-rz_WOS9prxRwEmC6-5" vertex="1">
          <mxGeometry y="90" width="207.5" height="30" as="geometry" />
        </mxCell>
        <mxCell id="rFY-rz_WOS9prxRwEmC6-8" value="+ releaseDate : DATE" style="text;strokeColor=none;fillColor=none;align=left;verticalAlign=middle;spacingLeft=4;spacingRight=4;overflow=hidden;points=[[0,0.5],[1,0.5]];portConstraint=eastwest;rotatable=0;whiteSpace=wrap;html=1;" parent="rFY-rz_WOS9prxRwEmC6-5" vertex="1">
          <mxGeometry y="120" width="207.5" height="30" as="geometry" />
        </mxCell>
        <mxCell id="rFY-rz_WOS9prxRwEmC6-22" value="+ type : VARCHAR&lt;span style=&quot;background-color: initial;&quot;&gt;&amp;nbsp;(6)&lt;/span&gt;&lt;div&gt;&amp;nbsp; &amp;nbsp;[SINGLE, EP, ALBUM]&lt;/div&gt;" style="text;strokeColor=none;fillColor=none;align=left;verticalAlign=middle;spacingLeft=4;spacingRight=4;overflow=hidden;points=[[0,0.5],[1,0.5]];portConstraint=eastwest;rotatable=0;whiteSpace=wrap;html=1;" parent="rFY-rz_WOS9prxRwEmC6-5" vertex="1">
          <mxGeometry y="150" width="207.5" height="40" as="geometry" />
        </mxCell>
        <mxCell id="rFY-rz_WOS9prxRwEmC6-42" value="+ buyLink : VARCHAR&lt;span style=&quot;background-color: initial;&quot;&gt;&amp;nbsp;(300)&lt;/span&gt;" style="text;strokeColor=none;fillColor=none;align=left;verticalAlign=middle;spacingLeft=4;spacingRight=4;overflow=hidden;points=[[0,0.5],[1,0.5]];portConstraint=eastwest;rotatable=0;whiteSpace=wrap;html=1;" parent="rFY-rz_WOS9prxRwEmC6-5" vertex="1">
          <mxGeometry y="190" width="207.5" height="30" as="geometry" />
        </mxCell>
        <mxCell id="rFY-rz_WOS9prxRwEmC6-43" value="+ recordLabel : VARCHAR&lt;span style=&quot;background-color: initial;&quot;&gt;&amp;nbsp;(300)&lt;/span&gt;" style="text;strokeColor=none;fillColor=none;align=left;verticalAlign=middle;spacingLeft=4;spacingRight=4;overflow=hidden;points=[[0,0.5],[1,0.5]];portConstraint=eastwest;rotatable=0;whiteSpace=wrap;html=1;" parent="rFY-rz_WOS9prxRwEmC6-5" vertex="1">
          <mxGeometry y="220" width="207.5" height="30" as="geometry" />
        </mxCell>
        <mxCell id="EfcInkHwceWXl7_W82CV-9" value="+ listenersLiked" style="text;strokeColor=none;fillColor=none;align=left;verticalAlign=middle;spacingLeft=4;spacingRight=4;overflow=hidden;points=[[0,0.5],[1,0.5]];portConstraint=eastwest;rotatable=0;whiteSpace=wrap;html=1;" parent="rFY-rz_WOS9prxRwEmC6-5" vertex="1">
          <mxGeometry y="250" width="207.5" height="30" as="geometry" />
        </mxCell>
        <mxCell id="EfcInkHwceWXl7_W82CV-31" value="+ listenersReposted" style="text;strokeColor=none;fillColor=none;align=left;verticalAlign=middle;spacingLeft=4;spacingRight=4;overflow=hidden;points=[[0,0.5],[1,0.5]];portConstraint=eastwest;rotatable=0;whiteSpace=wrap;html=1;" parent="rFY-rz_WOS9prxRwEmC6-5" vertex="1">
          <mxGeometry y="280" width="207.5" height="30" as="geometry" />
        </mxCell>
        <mxCell id="rFY-rz_WOS9prxRwEmC6-28" value="+ songs" style="text;strokeColor=none;fillColor=none;align=left;verticalAlign=middle;spacingLeft=4;spacingRight=4;overflow=hidden;points=[[0,0.5],[1,0.5]];portConstraint=eastwest;rotatable=0;whiteSpace=wrap;html=1;" parent="rFY-rz_WOS9prxRwEmC6-5" vertex="1">
          <mxGeometry y="310" width="207.5" height="30" as="geometry" />
        </mxCell>
        <mxCell id="rFY-rz_WOS9prxRwEmC6-44" value="+ isAllRightsReserved&lt;span style=&quot;background-color: initial;&quot;&gt;&amp;nbsp;: BOOLEAN&lt;/span&gt;" style="text;strokeColor=none;fillColor=none;align=left;verticalAlign=middle;spacingLeft=4;spacingRight=4;overflow=hidden;points=[[0,0.5],[1,0.5]];portConstraint=eastwest;rotatable=0;whiteSpace=wrap;html=1;" parent="rFY-rz_WOS9prxRwEmC6-5" vertex="1">
          <mxGeometry y="340" width="207.5" height="30" as="geometry" />
        </mxCell>
        <mxCell id="rFY-rz_WOS9prxRwEmC6-45" value="+ isAttribution&lt;span style=&quot;background-color: initial;&quot;&gt;&amp;nbsp;: BOOLEAN&lt;/span&gt;" style="text;strokeColor=none;fillColor=none;align=left;verticalAlign=middle;spacingLeft=4;spacingRight=4;overflow=hidden;points=[[0,0.5],[1,0.5]];portConstraint=eastwest;rotatable=0;whiteSpace=wrap;html=1;" parent="rFY-rz_WOS9prxRwEmC6-5" vertex="1">
          <mxGeometry y="370" width="207.5" height="30" as="geometry" />
        </mxCell>
        <mxCell id="rFY-rz_WOS9prxRwEmC6-46" value="+ isNoncommercial&lt;span style=&quot;background-color: initial;&quot;&gt;&amp;nbsp;: BOOLEAN&lt;/span&gt;" style="text;strokeColor=none;fillColor=none;align=left;verticalAlign=middle;spacingLeft=4;spacingRight=4;overflow=hidden;points=[[0,0.5],[1,0.5]];portConstraint=eastwest;rotatable=0;whiteSpace=wrap;html=1;" parent="rFY-rz_WOS9prxRwEmC6-5" vertex="1">
          <mxGeometry y="400" width="207.5" height="30" as="geometry" />
        </mxCell>
        <mxCell id="rFY-rz_WOS9prxRwEmC6-47" value="+ isNoDerivativeWorks&lt;span style=&quot;background-color: initial;&quot;&gt;&amp;nbsp;: BOOLEAN&lt;/span&gt;" style="text;strokeColor=none;fillColor=none;align=left;verticalAlign=middle;spacingLeft=4;spacingRight=4;overflow=hidden;points=[[0,0.5],[1,0.5]];portConstraint=eastwest;rotatable=0;whiteSpace=wrap;html=1;" parent="rFY-rz_WOS9prxRwEmC6-5" vertex="1">
          <mxGeometry y="430" width="207.5" height="30" as="geometry" />
        </mxCell>
        <mxCell id="rFY-rz_WOS9prxRwEmC6-48" value="+ isShareAlike&lt;span style=&quot;background-color: initial;&quot;&gt;&amp;nbsp;: BOOLEAN&lt;/span&gt;" style="text;strokeColor=none;fillColor=none;align=left;verticalAlign=middle;spacingLeft=4;spacingRight=4;overflow=hidden;points=[[0,0.5],[1,0.5]];portConstraint=eastwest;rotatable=0;whiteSpace=wrap;html=1;" parent="rFY-rz_WOS9prxRwEmC6-5" vertex="1">
          <mxGeometry y="460" width="207.5" height="30" as="geometry" />
        </mxCell>
        <mxCell id="mf2Bld0XbRjCkK78bz_a-19" value="+ updatedAt : DATETIME" style="text;strokeColor=none;fillColor=none;align=left;verticalAlign=middle;spacingLeft=4;spacingRight=4;overflow=hidden;points=[[0,0.5],[1,0.5]];portConstraint=eastwest;rotatable=0;whiteSpace=wrap;html=1;" parent="rFY-rz_WOS9prxRwEmC6-5" vertex="1">
          <mxGeometry y="490" width="207.5" height="30" as="geometry" />
        </mxCell>
        <mxCell id="rFY-rz_WOS9prxRwEmC6-9" value="Playlist" style="swimlane;fontStyle=0;childLayout=stackLayout;horizontal=1;startSize=30;horizontalStack=0;resizeParent=1;resizeParentMax=0;resizeLast=0;collapsible=1;marginBottom=0;whiteSpace=wrap;html=1;" parent="1" vertex="1">
          <mxGeometry x="-2307.5" y="-793" width="187.5" height="270" as="geometry" />
        </mxCell>
        <mxCell id="rFY-rz_WOS9prxRwEmC6-10" value="+ id : UUID string" style="text;strokeColor=none;fillColor=none;align=left;verticalAlign=middle;spacingLeft=4;spacingRight=4;overflow=hidden;points=[[0,0.5],[1,0.5]];portConstraint=eastwest;rotatable=0;whiteSpace=wrap;html=1;" parent="rFY-rz_WOS9prxRwEmC6-9" vertex="1">
          <mxGeometry y="30" width="187.5" height="30" as="geometry" />
        </mxCell>
        <mxCell id="rFY-rz_WOS9prxRwEmC6-11" value="+ collection" style="text;strokeColor=none;fillColor=none;align=left;verticalAlign=middle;spacingLeft=4;spacingRight=4;overflow=hidden;points=[[0,0.5],[1,0.5]];portConstraint=eastwest;rotatable=0;whiteSpace=wrap;html=1;" parent="rFY-rz_WOS9prxRwEmC6-9" vertex="1">
          <mxGeometry y="60" width="187.5" height="30" as="geometry" />
        </mxCell>
        <mxCell id="rFY-rz_WOS9prxRwEmC6-12" value="+ description : NVARCHAR (300)" style="text;strokeColor=none;fillColor=none;align=left;verticalAlign=middle;spacingLeft=4;spacingRight=4;overflow=hidden;points=[[0,0.5],[1,0.5]];portConstraint=eastwest;rotatable=0;whiteSpace=wrap;html=1;" parent="rFY-rz_WOS9prxRwEmC6-9" vertex="1">
          <mxGeometry y="90" width="187.5" height="30" as="geometry" />
        </mxCell>
        <mxCell id="rFY-rz_WOS9prxRwEmC6-29" value="+ songs" style="text;strokeColor=none;fillColor=none;align=left;verticalAlign=middle;spacingLeft=4;spacingRight=4;overflow=hidden;points=[[0,0.5],[1,0.5]];portConstraint=eastwest;rotatable=0;whiteSpace=wrap;html=1;" parent="rFY-rz_WOS9prxRwEmC6-9" vertex="1">
          <mxGeometry y="120" width="187.5" height="30" as="geometry" />
        </mxCell>
        <mxCell id="EfcInkHwceWXl7_W82CV-32" value="+ listenersReposted" style="text;strokeColor=none;fillColor=none;align=left;verticalAlign=middle;spacingLeft=4;spacingRight=4;overflow=hidden;points=[[0,0.5],[1,0.5]];portConstraint=eastwest;rotatable=0;whiteSpace=wrap;html=1;" parent="rFY-rz_WOS9prxRwEmC6-9" vertex="1">
          <mxGeometry y="150" width="187.5" height="30" as="geometry" />
        </mxCell>
        <mxCell id="rFY-rz_WOS9prxRwEmC6-75" value="+ listenersLiked" style="text;strokeColor=none;fillColor=none;align=left;verticalAlign=middle;spacingLeft=4;spacingRight=4;overflow=hidden;points=[[0,0.5],[1,0.5]];portConstraint=eastwest;rotatable=0;whiteSpace=wrap;html=1;" parent="rFY-rz_WOS9prxRwEmC6-9" vertex="1">
          <mxGeometry y="180" width="187.5" height="30" as="geometry" />
        </mxCell>
        <mxCell id="rFY-rz_WOS9prxRwEmC6-74" value="+ creator" style="text;strokeColor=none;fillColor=none;align=left;verticalAlign=middle;spacingLeft=4;spacingRight=4;overflow=hidden;points=[[0,0.5],[1,0.5]];portConstraint=eastwest;rotatable=0;whiteSpace=wrap;html=1;" parent="rFY-rz_WOS9prxRwEmC6-9" vertex="1">
          <mxGeometry y="210" width="187.5" height="30" as="geometry" />
        </mxCell>
        <mxCell id="mf2Bld0XbRjCkK78bz_a-20" value="+ updatedAt : DATETIME" style="text;strokeColor=none;fillColor=none;align=left;verticalAlign=middle;spacingLeft=4;spacingRight=4;overflow=hidden;points=[[0,0.5],[1,0.5]];portConstraint=eastwest;rotatable=0;whiteSpace=wrap;html=1;" parent="rFY-rz_WOS9prxRwEmC6-9" vertex="1">
          <mxGeometry y="240" width="187.5" height="30" as="geometry" />
        </mxCell>
        <mxCell id="rFY-rz_WOS9prxRwEmC6-13" value="Song" style="swimlane;fontStyle=0;childLayout=stackLayout;horizontal=1;startSize=30;horizontalStack=0;resizeParent=1;resizeParentMax=0;resizeLast=0;collapsible=1;marginBottom=0;whiteSpace=wrap;html=1;" parent="1" vertex="1">
          <mxGeometry x="-2022.5" y="-1153" width="170" height="510" as="geometry" />
        </mxCell>
        <mxCell id="rFY-rz_WOS9prxRwEmC6-14" value="+ id : UUID string" style="text;strokeColor=none;fillColor=none;align=left;verticalAlign=middle;spacingLeft=4;spacingRight=4;overflow=hidden;points=[[0,0.5],[1,0.5]];portConstraint=eastwest;rotatable=0;whiteSpace=wrap;html=1;" parent="rFY-rz_WOS9prxRwEmC6-13" vertex="1">
          <mxGeometry y="30" width="170" height="30" as="geometry" />
        </mxCell>
        <mxCell id="fiG8_hMRc3s2pUCHrAzZ-2" value="+ tempFileId : UUID string" style="text;strokeColor=none;fillColor=none;align=left;verticalAlign=middle;spacingLeft=4;spacingRight=4;overflow=hidden;points=[[0,0.5],[1,0.5]];portConstraint=eastwest;rotatable=0;whiteSpace=wrap;html=1;" parent="rFY-rz_WOS9prxRwEmC6-13" vertex="1">
          <mxGeometry y="60" width="170" height="30" as="geometry" />
        </mxCell>
        <mxCell id="rFY-rz_WOS9prxRwEmC6-32" value="+ release" style="text;strokeColor=none;fillColor=none;align=left;verticalAlign=middle;spacingLeft=4;spacingRight=4;overflow=hidden;points=[[0,0.5],[1,0.5]];portConstraint=eastwest;rotatable=0;whiteSpace=wrap;html=1;" parent="rFY-rz_WOS9prxRwEmC6-13" vertex="1">
          <mxGeometry y="90" width="170" height="30" as="geometry" />
        </mxCell>
        <mxCell id="rFY-rz_WOS9prxRwEmC6-37" value="+ placeNumber : SMALLINT" style="text;strokeColor=none;fillColor=none;align=left;verticalAlign=middle;spacingLeft=4;spacingRight=4;overflow=hidden;points=[[0,0.5],[1,0.5]];portConstraint=eastwest;rotatable=0;whiteSpace=wrap;html=1;" parent="rFY-rz_WOS9prxRwEmC6-13" vertex="1">
          <mxGeometry y="120" width="170" height="30" as="geometry" />
        </mxCell>
        <mxCell id="rFY-rz_WOS9prxRwEmC6-15" value="+ name : NVARCHAR (100)" style="text;strokeColor=none;fillColor=none;align=left;verticalAlign=middle;spacingLeft=4;spacingRight=4;overflow=hidden;points=[[0,0.5],[1,0.5]];portConstraint=eastwest;rotatable=0;whiteSpace=wrap;html=1;" parent="rFY-rz_WOS9prxRwEmC6-13" vertex="1">
          <mxGeometry y="150" width="170" height="30" as="geometry" />
        </mxCell>
        <mxCell id="fiG8_hMRc3s2pUCHrAzZ-1" value="+ duration : SMALLINT" style="text;strokeColor=none;fillColor=none;align=left;verticalAlign=middle;spacingLeft=4;spacingRight=4;overflow=hidden;points=[[0,0.5],[1,0.5]];portConstraint=eastwest;rotatable=0;whiteSpace=wrap;html=1;" parent="rFY-rz_WOS9prxRwEmC6-13" vertex="1">
          <mxGeometry y="180" width="170" height="30" as="geometry" />
        </mxCell>
        <mxCell id="cIepVJIdWPNUekeXTL3l-1" value="+ status : VARCHAR" style="text;strokeColor=none;fillColor=none;align=left;verticalAlign=middle;spacingLeft=4;spacingRight=4;overflow=hidden;points=[[0,0.5],[1,0.5]];portConstraint=eastwest;rotatable=0;whiteSpace=wrap;html=1;" parent="rFY-rz_WOS9prxRwEmC6-13" vertex="1">
          <mxGeometry y="210" width="170" height="30" as="geometry" />
        </mxCell>
        <mxCell id="PgTkkJ_BFa4D4Vha9WE_-1" value="+ genres" style="text;strokeColor=none;fillColor=none;align=left;verticalAlign=middle;spacingLeft=4;spacingRight=4;overflow=hidden;points=[[0,0.5],[1,0.5]];portConstraint=eastwest;rotatable=0;whiteSpace=wrap;html=1;" parent="rFY-rz_WOS9prxRwEmC6-13" vertex="1">
          <mxGeometry y="240" width="170" height="30" as="geometry" />
        </mxCell>
        <mxCell id="PgTkkJ_BFa4D4Vha9WE_-11" value="+ tags" style="text;strokeColor=none;fillColor=none;align=left;verticalAlign=middle;spacingLeft=4;spacingRight=4;overflow=hidden;points=[[0,0.5],[1,0.5]];portConstraint=eastwest;rotatable=0;whiteSpace=wrap;html=1;" parent="rFY-rz_WOS9prxRwEmC6-13" vertex="1">
          <mxGeometry y="270" width="170" height="30" as="geometry" />
        </mxCell>
        <mxCell id="rFY-rz_WOS9prxRwEmC6-16" value="+ comments" style="text;strokeColor=none;fillColor=none;align=left;verticalAlign=middle;spacingLeft=4;spacingRight=4;overflow=hidden;points=[[0,0.5],[1,0.5]];portConstraint=eastwest;rotatable=0;whiteSpace=wrap;html=1;" parent="rFY-rz_WOS9prxRwEmC6-13" vertex="1">
          <mxGeometry y="300" width="170" height="30" as="geometry" />
        </mxCell>
        <mxCell id="IgH56LYgwVDKT2t8ZM1N-25" value="+ listenersListenedHistory" style="text;strokeColor=none;fillColor=none;align=left;verticalAlign=middle;spacingLeft=4;spacingRight=4;overflow=hidden;points=[[0,0.5],[1,0.5]];portConstraint=eastwest;rotatable=0;whiteSpace=wrap;html=1;" parent="rFY-rz_WOS9prxRwEmC6-13" vertex="1">
          <mxGeometry y="330" width="170" height="30" as="geometry" />
        </mxCell>
        <mxCell id="EfcInkHwceWXl7_W82CV-16" value="+ listenersLiked" style="text;strokeColor=none;fillColor=none;align=left;verticalAlign=middle;spacingLeft=4;spacingRight=4;overflow=hidden;points=[[0,0.5],[1,0.5]];portConstraint=eastwest;rotatable=0;whiteSpace=wrap;html=1;" parent="rFY-rz_WOS9prxRwEmC6-13" vertex="1">
          <mxGeometry y="360" width="170" height="30" as="geometry" />
        </mxCell>
        <mxCell id="EfcInkHwceWXl7_W82CV-30" value="+ listenersReposted" style="text;strokeColor=none;fillColor=none;align=left;verticalAlign=middle;spacingLeft=4;spacingRight=4;overflow=hidden;points=[[0,0.5],[1,0.5]];portConstraint=eastwest;rotatable=0;whiteSpace=wrap;html=1;" parent="rFY-rz_WOS9prxRwEmC6-13" vertex="1">
          <mxGeometry y="390" width="170" height="30" as="geometry" />
        </mxCell>
        <mxCell id="rFY-rz_WOS9prxRwEmC6-39" value="+ playlists" style="text;strokeColor=none;fillColor=none;align=left;verticalAlign=middle;spacingLeft=4;spacingRight=4;overflow=hidden;points=[[0,0.5],[1,0.5]];portConstraint=eastwest;rotatable=0;whiteSpace=wrap;html=1;" parent="rFY-rz_WOS9prxRwEmC6-13" vertex="1">
          <mxGeometry y="420" width="170" height="30" as="geometry" />
        </mxCell>
        <mxCell id="rFY-rz_WOS9prxRwEmC6-30" value="+ createdAt : DATETIME" style="text;strokeColor=none;fillColor=none;align=left;verticalAlign=middle;spacingLeft=4;spacingRight=4;overflow=hidden;points=[[0,0.5],[1,0.5]];portConstraint=eastwest;rotatable=0;whiteSpace=wrap;html=1;" parent="rFY-rz_WOS9prxRwEmC6-13" vertex="1">
          <mxGeometry y="450" width="170" height="30" as="geometry" />
        </mxCell>
        <mxCell id="rFY-rz_WOS9prxRwEmC6-31" value="+ updatedAt : DATETIME" style="text;strokeColor=none;fillColor=none;align=left;verticalAlign=middle;spacingLeft=4;spacingRight=4;overflow=hidden;points=[[0,0.5],[1,0.5]];portConstraint=eastwest;rotatable=0;whiteSpace=wrap;html=1;" parent="rFY-rz_WOS9prxRwEmC6-13" vertex="1">
          <mxGeometry y="480" width="170" height="30" as="geometry" />
        </mxCell>
        <mxCell id="rFY-rz_WOS9prxRwEmC6-24" style="rounded=0;orthogonalLoop=1;jettySize=auto;html=1;exitX=1;exitY=0.5;exitDx=0;exitDy=0;entryX=0;entryY=0.5;entryDx=0;entryDy=0;endArrow=classic;endFill=1;startArrow=classic;startFill=1;" parent="1" source="rFY-rz_WOS9prxRwEmC6-2" target="rFY-rz_WOS9prxRwEmC6-7" edge="1">
          <mxGeometry relative="1" as="geometry" />
        </mxCell>
        <mxCell id="rFY-rz_WOS9prxRwEmC6-25" value="one-to-one" style="edgeLabel;html=1;align=center;verticalAlign=middle;resizable=0;points=[];" parent="rFY-rz_WOS9prxRwEmC6-24" vertex="1" connectable="0">
          <mxGeometry x="-0.0022" relative="1" as="geometry">
            <mxPoint as="offset" />
          </mxGeometry>
        </mxCell>
        <mxCell id="rFY-rz_WOS9prxRwEmC6-26" style="rounded=0;orthogonalLoop=1;jettySize=auto;html=1;exitX=0;exitY=0.5;exitDx=0;exitDy=0;entryX=1;entryY=0.5;entryDx=0;entryDy=0;startArrow=classic;startFill=1;" parent="1" source="rFY-rz_WOS9prxRwEmC6-11" target="rFY-rz_WOS9prxRwEmC6-2" edge="1">
          <mxGeometry relative="1" as="geometry" />
        </mxCell>
        <mxCell id="rFY-rz_WOS9prxRwEmC6-27" value="one-to-one" style="edgeLabel;html=1;align=center;verticalAlign=middle;resizable=0;points=[];" parent="rFY-rz_WOS9prxRwEmC6-26" vertex="1" connectable="0">
          <mxGeometry x="0.0784" relative="1" as="geometry">
            <mxPoint x="-7" y="-14" as="offset" />
          </mxGeometry>
        </mxCell>
        <mxCell id="rFY-rz_WOS9prxRwEmC6-33" style="rounded=0;orthogonalLoop=1;jettySize=auto;html=1;exitX=1;exitY=0.5;exitDx=0;exitDy=0;entryX=0;entryY=0.5;entryDx=0;entryDy=0;startArrow=classic;startFill=1;" parent="1" source="rFY-rz_WOS9prxRwEmC6-28" target="rFY-rz_WOS9prxRwEmC6-32" edge="1">
          <mxGeometry relative="1" as="geometry" />
        </mxCell>
        <mxCell id="rFY-rz_WOS9prxRwEmC6-36" value="one-to-many" style="edgeLabel;html=1;align=center;verticalAlign=middle;resizable=0;points=[];" parent="rFY-rz_WOS9prxRwEmC6-33" vertex="1" connectable="0">
          <mxGeometry x="-0.0058" y="-1" relative="1" as="geometry">
            <mxPoint as="offset" />
          </mxGeometry>
        </mxCell>
        <mxCell id="rFY-rz_WOS9prxRwEmC6-40" style="rounded=0;orthogonalLoop=1;jettySize=auto;html=1;exitX=1;exitY=0.5;exitDx=0;exitDy=0;entryX=0;entryY=0.5;entryDx=0;entryDy=0;startArrow=classic;startFill=1;" parent="1" source="rFY-rz_WOS9prxRwEmC6-29" target="rFY-rz_WOS9prxRwEmC6-39" edge="1">
          <mxGeometry relative="1" as="geometry" />
        </mxCell>
        <mxCell id="rFY-rz_WOS9prxRwEmC6-41" value="many-to-many" style="edgeLabel;html=1;align=center;verticalAlign=middle;resizable=0;points=[];" parent="rFY-rz_WOS9prxRwEmC6-40" vertex="1" connectable="0">
          <mxGeometry x="-0.0184" y="1" relative="1" as="geometry">
            <mxPoint as="offset" />
          </mxGeometry>
        </mxCell>
        <mxCell id="rFY-rz_WOS9prxRwEmC6-52" value="Artist" style="swimlane;fontStyle=0;childLayout=stackLayout;horizontal=1;startSize=30;horizontalStack=0;resizeParent=1;resizeParentMax=0;resizeLast=0;collapsible=1;marginBottom=0;whiteSpace=wrap;html=1;" parent="1" vertex="1">
          <mxGeometry x="-1459.2700000000004" y="-1573" width="200" height="210" as="geometry" />
        </mxCell>
        <mxCell id="rFY-rz_WOS9prxRwEmC6-53" value="+ id : UUID string" style="text;strokeColor=none;fillColor=none;align=left;verticalAlign=middle;spacingLeft=4;spacingRight=4;overflow=hidden;points=[[0,0.5],[1,0.5]];portConstraint=eastwest;rotatable=0;whiteSpace=wrap;html=1;" parent="rFY-rz_WOS9prxRwEmC6-52" vertex="1">
          <mxGeometry y="30" width="200" height="30" as="geometry" />
        </mxCell>
        <mxCell id="rFY-rz_WOS9prxRwEmC6-56" value="+ userId : UUID string" style="text;strokeColor=none;fillColor=none;align=left;verticalAlign=middle;spacingLeft=4;spacingRight=4;overflow=hidden;points=[[0,0.5],[1,0.5]];portConstraint=eastwest;rotatable=0;whiteSpace=wrap;html=1;" parent="rFY-rz_WOS9prxRwEmC6-52" vertex="1">
          <mxGeometry y="60" width="200" height="30" as="geometry" />
        </mxCell>
        <mxCell id="rFY-rz_WOS9prxRwEmC6-54" value="+ monthlyListeners : INTEGER" style="text;strokeColor=none;fillColor=none;align=left;verticalAlign=middle;spacingLeft=4;spacingRight=4;overflow=hidden;points=[[0,0.5],[1,0.5]];portConstraint=eastwest;rotatable=0;whiteSpace=wrap;html=1;" parent="rFY-rz_WOS9prxRwEmC6-52" vertex="1">
          <mxGeometry y="90" width="200" height="30" as="geometry" />
        </mxCell>
        <mxCell id="rFY-rz_WOS9prxRwEmC6-55" value="+ numberOfReleases : INTEGER" style="text;strokeColor=none;fillColor=none;align=left;verticalAlign=middle;spacingLeft=4;spacingRight=4;overflow=hidden;points=[[0,0.5],[1,0.5]];portConstraint=eastwest;rotatable=0;whiteSpace=wrap;html=1;" parent="rFY-rz_WOS9prxRwEmC6-52" vertex="1">
          <mxGeometry y="120" width="200" height="30" as="geometry" />
        </mxCell>
        <mxCell id="rFY-rz_WOS9prxRwEmC6-64" value="+ releases" style="text;strokeColor=none;fillColor=none;align=left;verticalAlign=middle;spacingLeft=4;spacingRight=4;overflow=hidden;points=[[0,0.5],[1,0.5]];portConstraint=eastwest;rotatable=0;whiteSpace=wrap;html=1;" parent="rFY-rz_WOS9prxRwEmC6-52" vertex="1">
          <mxGeometry y="150" width="200" height="30" as="geometry" />
        </mxCell>
        <mxCell id="mf2Bld0XbRjCkK78bz_a-16" value="+ updatedAt : DATETIME" style="text;strokeColor=none;fillColor=none;align=left;verticalAlign=middle;spacingLeft=4;spacingRight=4;overflow=hidden;points=[[0,0.5],[1,0.5]];portConstraint=eastwest;rotatable=0;whiteSpace=wrap;html=1;" parent="rFY-rz_WOS9prxRwEmC6-52" vertex="1">
          <mxGeometry y="180" width="200" height="30" as="geometry" />
        </mxCell>
        <mxCell id="rFY-rz_WOS9prxRwEmC6-65" style="rounded=0;orthogonalLoop=1;jettySize=auto;html=1;exitX=1;exitY=0.5;exitDx=0;exitDy=0;entryX=0;entryY=0.5;entryDx=0;entryDy=0;startArrow=classic;startFill=1;" parent="1" source="rFY-rz_WOS9prxRwEmC6-62" target="rFY-rz_WOS9prxRwEmC6-64" edge="1">
          <mxGeometry relative="1" as="geometry" />
        </mxCell>
        <mxCell id="rFY-rz_WOS9prxRwEmC6-66" value="many-to-one" style="edgeLabel;html=1;align=center;verticalAlign=middle;resizable=0;points=[];" parent="rFY-rz_WOS9prxRwEmC6-65" vertex="1" connectable="0">
          <mxGeometry x="-0.0314" relative="1" as="geometry">
            <mxPoint as="offset" />
          </mxGeometry>
        </mxCell>
        <mxCell id="rFY-rz_WOS9prxRwEmC6-67" value="Listener" style="swimlane;fontStyle=0;childLayout=stackLayout;horizontal=1;startSize=30;horizontalStack=0;resizeParent=1;resizeParentMax=0;resizeLast=0;collapsible=1;marginBottom=0;whiteSpace=wrap;html=1;" parent="1" vertex="1">
          <mxGeometry x="-1468.33" y="-1033" width="218.12" height="510" as="geometry" />
        </mxCell>
        <mxCell id="rFY-rz_WOS9prxRwEmC6-68" value="+ id : UUID string" style="text;strokeColor=none;fillColor=none;align=left;verticalAlign=middle;spacingLeft=4;spacingRight=4;overflow=hidden;points=[[0,0.5],[1,0.5]];portConstraint=eastwest;rotatable=0;whiteSpace=wrap;html=1;" parent="rFY-rz_WOS9prxRwEmC6-67" vertex="1">
          <mxGeometry y="30" width="218.12" height="30" as="geometry" />
        </mxCell>
        <mxCell id="rFY-rz_WOS9prxRwEmC6-69" value="+ userId : UUID string" style="text;strokeColor=none;fillColor=none;align=left;verticalAlign=middle;spacingLeft=4;spacingRight=4;overflow=hidden;points=[[0,0.5],[1,0.5]];portConstraint=eastwest;rotatable=0;whiteSpace=wrap;html=1;" parent="rFY-rz_WOS9prxRwEmC6-67" vertex="1">
          <mxGeometry y="60" width="218.12" height="30" as="geometry" />
        </mxCell>
        <mxCell id="rFY-rz_WOS9prxRwEmC6-80" value="+ numberOfLikedPlaylists : INTEGER" style="text;strokeColor=none;fillColor=none;align=left;verticalAlign=middle;spacingLeft=4;spacingRight=4;overflow=hidden;points=[[0,0.5],[1,0.5]];portConstraint=eastwest;rotatable=0;whiteSpace=wrap;html=1;" parent="rFY-rz_WOS9prxRwEmC6-67" vertex="1">
          <mxGeometry y="90" width="218.12" height="30" as="geometry" />
        </mxCell>
        <mxCell id="rFY-rz_WOS9prxRwEmC6-81" value="+ numberOfLikedReleases : INTEGER" style="text;strokeColor=none;fillColor=none;align=left;verticalAlign=middle;spacingLeft=4;spacingRight=4;overflow=hidden;points=[[0,0.5],[1,0.5]];portConstraint=eastwest;rotatable=0;whiteSpace=wrap;html=1;" parent="rFY-rz_WOS9prxRwEmC6-67" vertex="1">
          <mxGeometry y="120" width="218.12" height="30" as="geometry" />
        </mxCell>
        <mxCell id="EfcInkHwceWXl7_W82CV-45" value="+ numberOfLikedSongs : INTEGER" style="text;strokeColor=none;fillColor=none;align=left;verticalAlign=middle;spacingLeft=4;spacingRight=4;overflow=hidden;points=[[0,0.5],[1,0.5]];portConstraint=eastwest;rotatable=0;whiteSpace=wrap;html=1;" parent="rFY-rz_WOS9prxRwEmC6-67" vertex="1">
          <mxGeometry y="150" width="218.12" height="30" as="geometry" />
        </mxCell>
        <mxCell id="cVVkLgNvFqvZXcf-PF3v-7" value="+ commentReactions" style="text;strokeColor=none;fillColor=none;align=left;verticalAlign=middle;spacingLeft=4;spacingRight=4;overflow=hidden;points=[[0,0.5],[1,0.5]];portConstraint=eastwest;rotatable=0;whiteSpace=wrap;html=1;" parent="rFY-rz_WOS9prxRwEmC6-67" vertex="1">
          <mxGeometry y="180" width="218.12" height="30" as="geometry" />
        </mxCell>
        <mxCell id="cIepVJIdWPNUekeXTL3l-15" value="+ comments" style="text;strokeColor=none;fillColor=none;align=left;verticalAlign=middle;spacingLeft=4;spacingRight=4;overflow=hidden;points=[[0,0.5],[1,0.5]];portConstraint=eastwest;rotatable=0;whiteSpace=wrap;html=1;" parent="rFY-rz_WOS9prxRwEmC6-67" vertex="1">
          <mxGeometry y="210" width="218.12" height="30" as="geometry" />
        </mxCell>
        <mxCell id="EfcInkHwceWXl7_W82CV-10" value="+ likedReleases" style="text;strokeColor=none;fillColor=none;align=left;verticalAlign=middle;spacingLeft=4;spacingRight=4;overflow=hidden;points=[[0,0.5],[1,0.5]];portConstraint=eastwest;rotatable=0;whiteSpace=wrap;html=1;" parent="rFY-rz_WOS9prxRwEmC6-67" vertex="1">
          <mxGeometry y="240" width="218.12" height="30" as="geometry" />
        </mxCell>
        <mxCell id="EfcInkHwceWXl7_W82CV-28" value="+ repostedReleases" style="text;strokeColor=none;fillColor=none;align=left;verticalAlign=middle;spacingLeft=4;spacingRight=4;overflow=hidden;points=[[0,0.5],[1,0.5]];portConstraint=eastwest;rotatable=0;whiteSpace=wrap;html=1;" parent="rFY-rz_WOS9prxRwEmC6-67" vertex="1">
          <mxGeometry y="270" width="218.12" height="30" as="geometry" />
        </mxCell>
        <mxCell id="IgH56LYgwVDKT2t8ZM1N-26" value="+ songsListenedHistory" style="text;strokeColor=none;fillColor=none;align=left;verticalAlign=middle;spacingLeft=4;spacingRight=4;overflow=hidden;points=[[0,0.5],[1,0.5]];portConstraint=eastwest;rotatable=0;whiteSpace=wrap;html=1;" parent="rFY-rz_WOS9prxRwEmC6-67" vertex="1">
          <mxGeometry y="300" width="218.12" height="30" as="geometry" />
        </mxCell>
        <mxCell id="EfcInkHwceWXl7_W82CV-15" value="+ likedSongs" style="text;strokeColor=none;fillColor=none;align=left;verticalAlign=middle;spacingLeft=4;spacingRight=4;overflow=hidden;points=[[0,0.5],[1,0.5]];portConstraint=eastwest;rotatable=0;whiteSpace=wrap;html=1;" parent="rFY-rz_WOS9prxRwEmC6-67" vertex="1">
          <mxGeometry y="330" width="218.12" height="30" as="geometry" />
        </mxCell>
        <mxCell id="rFY-rz_WOS9prxRwEmC6-82" value="+ repostedSongs" style="text;strokeColor=none;fillColor=none;align=left;verticalAlign=middle;spacingLeft=4;spacingRight=4;overflow=hidden;points=[[0,0.5],[1,0.5]];portConstraint=eastwest;rotatable=0;whiteSpace=wrap;html=1;" parent="rFY-rz_WOS9prxRwEmC6-67" vertex="1">
          <mxGeometry y="360" width="218.12" height="30" as="geometry" />
        </mxCell>
        <mxCell id="EfcInkHwceWXl7_W82CV-29" value="+ repostedPlaylists" style="text;strokeColor=none;fillColor=none;align=left;verticalAlign=middle;spacingLeft=4;spacingRight=4;overflow=hidden;points=[[0,0.5],[1,0.5]];portConstraint=eastwest;rotatable=0;whiteSpace=wrap;html=1;" parent="rFY-rz_WOS9prxRwEmC6-67" vertex="1">
          <mxGeometry y="390" width="218.12" height="30" as="geometry" />
        </mxCell>
        <mxCell id="rFY-rz_WOS9prxRwEmC6-73" value="+ likedPlaylists" style="text;strokeColor=none;fillColor=none;align=left;verticalAlign=middle;spacingLeft=4;spacingRight=4;overflow=hidden;points=[[0,0.5],[1,0.5]];portConstraint=eastwest;rotatable=0;whiteSpace=wrap;html=1;" parent="rFY-rz_WOS9prxRwEmC6-67" vertex="1">
          <mxGeometry y="420" width="218.12" height="30" as="geometry" />
        </mxCell>
        <mxCell id="rFY-rz_WOS9prxRwEmC6-70" value="+ createdPlaylists" style="text;strokeColor=none;fillColor=none;align=left;verticalAlign=middle;spacingLeft=4;spacingRight=4;overflow=hidden;points=[[0,0.5],[1,0.5]];portConstraint=eastwest;rotatable=0;whiteSpace=wrap;html=1;" parent="rFY-rz_WOS9prxRwEmC6-67" vertex="1">
          <mxGeometry y="450" width="218.12" height="30" as="geometry" />
        </mxCell>
        <mxCell id="mf2Bld0XbRjCkK78bz_a-17" value="+ updatedAt : DATETIME" style="text;strokeColor=none;fillColor=none;align=left;verticalAlign=middle;spacingLeft=4;spacingRight=4;overflow=hidden;points=[[0,0.5],[1,0.5]];portConstraint=eastwest;rotatable=0;whiteSpace=wrap;html=1;" parent="rFY-rz_WOS9prxRwEmC6-67" vertex="1">
          <mxGeometry y="480" width="218.12" height="30" as="geometry" />
        </mxCell>
        <mxCell id="rFY-rz_WOS9prxRwEmC6-76" style="rounded=0;orthogonalLoop=1;jettySize=auto;html=1;exitX=0;exitY=0.5;exitDx=0;exitDy=0;entryX=1;entryY=0.5;entryDx=0;entryDy=0;startArrow=classic;startFill=1;" parent="1" source="rFY-rz_WOS9prxRwEmC6-70" target="rFY-rz_WOS9prxRwEmC6-74" edge="1">
          <mxGeometry relative="1" as="geometry" />
        </mxCell>
        <mxCell id="rFY-rz_WOS9prxRwEmC6-77" value="many-to-one" style="edgeLabel;html=1;align=center;verticalAlign=middle;resizable=0;points=[];" parent="rFY-rz_WOS9prxRwEmC6-76" vertex="1" connectable="0">
          <mxGeometry x="0.0352" relative="1" as="geometry">
            <mxPoint y="1" as="offset" />
          </mxGeometry>
        </mxCell>
        <mxCell id="rFY-rz_WOS9prxRwEmC6-78" style="rounded=0;orthogonalLoop=1;jettySize=auto;html=1;exitX=1;exitY=0.5;exitDx=0;exitDy=0;entryX=0;entryY=0.5;entryDx=0;entryDy=0;startArrow=classic;startFill=1;" parent="1" source="rFY-rz_WOS9prxRwEmC6-75" target="rFY-rz_WOS9prxRwEmC6-73" edge="1">
          <mxGeometry relative="1" as="geometry" />
        </mxCell>
        <mxCell id="rFY-rz_WOS9prxRwEmC6-79" value="many-to-many" style="edgeLabel;html=1;align=center;verticalAlign=middle;resizable=0;points=[];" parent="rFY-rz_WOS9prxRwEmC6-78" vertex="1" connectable="0">
          <mxGeometry x="-0.051" relative="1" as="geometry">
            <mxPoint as="offset" />
          </mxGeometry>
        </mxCell>
        <mxCell id="EfcInkHwceWXl7_W82CV-11" style="edgeStyle=orthogonalEdgeStyle;rounded=0;orthogonalLoop=1;jettySize=auto;html=1;exitX=0;exitY=0.5;exitDx=0;exitDy=0;entryX=1;entryY=0.5;entryDx=0;entryDy=0;startArrow=classic;startFill=1;" parent="1" source="EfcInkHwceWXl7_W82CV-10" target="EfcInkHwceWXl7_W82CV-9" edge="1">
          <mxGeometry relative="1" as="geometry">
            <Array as="points">
              <mxPoint x="-1744" y="-778" />
              <mxPoint x="-1744" y="-1218" />
            </Array>
          </mxGeometry>
        </mxCell>
        <mxCell id="EfcInkHwceWXl7_W82CV-39" value="many-to-many" style="edgeLabel;html=1;align=center;verticalAlign=middle;resizable=0;points=[];" parent="EfcInkHwceWXl7_W82CV-11" vertex="1" connectable="0">
          <mxGeometry x="-0.8619" relative="1" as="geometry">
            <mxPoint as="offset" />
          </mxGeometry>
        </mxCell>
        <mxCell id="EfcInkHwceWXl7_W82CV-33" style="edgeStyle=orthogonalEdgeStyle;rounded=0;orthogonalLoop=1;jettySize=auto;html=1;exitX=0;exitY=0.5;exitDx=0;exitDy=0;entryX=1;entryY=0.5;entryDx=0;entryDy=0;startArrow=classic;startFill=1;" parent="1" source="EfcInkHwceWXl7_W82CV-28" target="EfcInkHwceWXl7_W82CV-31" edge="1">
          <mxGeometry relative="1" as="geometry">
            <Array as="points">
              <mxPoint x="-1769" y="-748" />
              <mxPoint x="-1769" y="-1188" />
            </Array>
          </mxGeometry>
        </mxCell>
        <mxCell id="EfcInkHwceWXl7_W82CV-40" value="many-to-many" style="edgeLabel;html=1;align=center;verticalAlign=middle;resizable=0;points=[];" parent="EfcInkHwceWXl7_W82CV-33" vertex="1" connectable="0">
          <mxGeometry x="-0.8619" relative="1" as="geometry">
            <mxPoint as="offset" />
          </mxGeometry>
        </mxCell>
        <mxCell id="EfcInkHwceWXl7_W82CV-34" style="edgeStyle=orthogonalEdgeStyle;rounded=0;orthogonalLoop=1;jettySize=auto;html=1;exitX=0;exitY=0.5;exitDx=0;exitDy=0;entryX=1;entryY=0.5;entryDx=0;entryDy=0;startArrow=classic;startFill=1;" parent="1" source="EfcInkHwceWXl7_W82CV-15" target="EfcInkHwceWXl7_W82CV-16" edge="1">
          <mxGeometry relative="1" as="geometry">
            <Array as="points">
              <mxPoint x="-1789" y="-688" />
              <mxPoint x="-1789" y="-778" />
            </Array>
          </mxGeometry>
        </mxCell>
        <mxCell id="EfcInkHwceWXl7_W82CV-41" value="many-to-many" style="edgeLabel;html=1;align=center;verticalAlign=middle;resizable=0;points=[];" parent="EfcInkHwceWXl7_W82CV-34" vertex="1" connectable="0">
          <mxGeometry x="-0.6312" relative="1" as="geometry">
            <mxPoint as="offset" />
          </mxGeometry>
        </mxCell>
        <mxCell id="EfcInkHwceWXl7_W82CV-35" style="edgeStyle=orthogonalEdgeStyle;rounded=0;orthogonalLoop=1;jettySize=auto;html=1;exitX=0;exitY=0.5;exitDx=0;exitDy=0;entryX=1;entryY=0.5;entryDx=0;entryDy=0;startArrow=classic;startFill=1;" parent="1" source="rFY-rz_WOS9prxRwEmC6-82" target="EfcInkHwceWXl7_W82CV-30" edge="1">
          <mxGeometry relative="1" as="geometry">
            <Array as="points">
              <mxPoint x="-1809" y="-658" />
              <mxPoint x="-1809" y="-748" />
            </Array>
          </mxGeometry>
        </mxCell>
        <mxCell id="EfcInkHwceWXl7_W82CV-42" value="many-to-many" style="edgeLabel;html=1;align=center;verticalAlign=middle;resizable=0;points=[];" parent="EfcInkHwceWXl7_W82CV-35" vertex="1" connectable="0">
          <mxGeometry x="-0.6312" relative="1" as="geometry">
            <mxPoint as="offset" />
          </mxGeometry>
        </mxCell>
        <mxCell id="EfcInkHwceWXl7_W82CV-36" style="rounded=0;orthogonalLoop=1;jettySize=auto;html=1;exitX=0;exitY=0.5;exitDx=0;exitDy=0;entryX=1;entryY=0.5;entryDx=0;entryDy=0;startArrow=classic;startFill=1;" parent="1" source="EfcInkHwceWXl7_W82CV-29" target="EfcInkHwceWXl7_W82CV-32" edge="1">
          <mxGeometry relative="1" as="geometry" />
        </mxCell>
        <mxCell id="EfcInkHwceWXl7_W82CV-43" value="many-to-many" style="edgeLabel;html=1;align=center;verticalAlign=middle;resizable=0;points=[];" parent="EfcInkHwceWXl7_W82CV-36" vertex="1" connectable="0">
          <mxGeometry x="0.044" relative="1" as="geometry">
            <mxPoint as="offset" />
          </mxGeometry>
        </mxCell>
        <mxCell id="cIepVJIdWPNUekeXTL3l-2" value="Comment" style="swimlane;fontStyle=0;childLayout=stackLayout;horizontal=1;startSize=30;horizontalStack=0;resizeParent=1;resizeParentMax=0;resizeLast=0;collapsible=1;marginBottom=0;whiteSpace=wrap;html=1;" parent="1" vertex="1">
          <mxGeometry x="-1459.2700000000004" y="-1353" width="200" height="270" as="geometry" />
        </mxCell>
        <mxCell id="cIepVJIdWPNUekeXTL3l-3" value="+ id : UUID string" style="text;strokeColor=none;fillColor=none;align=left;verticalAlign=middle;spacingLeft=4;spacingRight=4;overflow=hidden;points=[[0,0.5],[1,0.5]];portConstraint=eastwest;rotatable=0;whiteSpace=wrap;html=1;" parent="cIepVJIdWPNUekeXTL3l-2" vertex="1">
          <mxGeometry y="30" width="200" height="30" as="geometry" />
        </mxCell>
        <mxCell id="cIepVJIdWPNUekeXTL3l-10" value="+ content : NVARCHAR (300)" style="text;strokeColor=none;fillColor=none;align=left;verticalAlign=middle;spacingLeft=4;spacingRight=4;overflow=hidden;points=[[0,0.5],[1,0.5]];portConstraint=eastwest;rotatable=0;whiteSpace=wrap;html=1;" parent="cIepVJIdWPNUekeXTL3l-2" vertex="1">
          <mxGeometry y="60" width="200" height="30" as="geometry" />
        </mxCell>
        <mxCell id="cVVkLgNvFqvZXcf-PF3v-17" value="+ likes : INTEGER" style="text;strokeColor=none;fillColor=none;align=left;verticalAlign=middle;spacingLeft=4;spacingRight=4;overflow=hidden;points=[[0,0.5],[1,0.5]];portConstraint=eastwest;rotatable=0;whiteSpace=wrap;html=1;" parent="cIepVJIdWPNUekeXTL3l-2" vertex="1">
          <mxGeometry y="90" width="200" height="30" as="geometry" />
        </mxCell>
        <mxCell id="cVVkLgNvFqvZXcf-PF3v-18" value="+ dislikes : INTEGER" style="text;strokeColor=none;fillColor=none;align=left;verticalAlign=middle;spacingLeft=4;spacingRight=4;overflow=hidden;points=[[0,0.5],[1,0.5]];portConstraint=eastwest;rotatable=0;whiteSpace=wrap;html=1;" parent="cIepVJIdWPNUekeXTL3l-2" vertex="1">
          <mxGeometry y="120" width="200" height="30" as="geometry" />
        </mxCell>
        <mxCell id="cIepVJIdWPNUekeXTL3l-4" value="+ song" style="text;strokeColor=none;fillColor=none;align=left;verticalAlign=middle;spacingLeft=4;spacingRight=4;overflow=hidden;points=[[0,0.5],[1,0.5]];portConstraint=eastwest;rotatable=0;whiteSpace=wrap;html=1;" parent="cIepVJIdWPNUekeXTL3l-2" vertex="1">
          <mxGeometry y="150" width="200" height="30" as="geometry" />
        </mxCell>
        <mxCell id="cIepVJIdWPNUekeXTL3l-14" value="+ creator" style="text;strokeColor=none;fillColor=none;align=left;verticalAlign=middle;spacingLeft=4;spacingRight=4;overflow=hidden;points=[[0,0.5],[1,0.5]];portConstraint=eastwest;rotatable=0;whiteSpace=wrap;html=1;" parent="cIepVJIdWPNUekeXTL3l-2" vertex="1">
          <mxGeometry y="180" width="200" height="30" as="geometry" />
        </mxCell>
        <mxCell id="cVVkLgNvFqvZXcf-PF3v-10" value="+ reactions" style="text;strokeColor=none;fillColor=none;align=left;verticalAlign=middle;spacingLeft=4;spacingRight=4;overflow=hidden;points=[[0,0.5],[1,0.5]];portConstraint=eastwest;rotatable=0;whiteSpace=wrap;html=1;" parent="cIepVJIdWPNUekeXTL3l-2" vertex="1">
          <mxGeometry y="210" width="200" height="30" as="geometry" />
        </mxCell>
        <mxCell id="cIepVJIdWPNUekeXTL3l-5" value="+ createdAt : DATETIME" style="text;strokeColor=none;fillColor=none;align=left;verticalAlign=middle;spacingLeft=4;spacingRight=4;overflow=hidden;points=[[0,0.5],[1,0.5]];portConstraint=eastwest;rotatable=0;whiteSpace=wrap;html=1;" parent="cIepVJIdWPNUekeXTL3l-2" vertex="1">
          <mxGeometry y="240" width="200" height="30" as="geometry" />
        </mxCell>
        <mxCell id="cIepVJIdWPNUekeXTL3l-8" style="edgeStyle=orthogonalEdgeStyle;rounded=0;orthogonalLoop=1;jettySize=auto;html=1;exitX=1;exitY=0.5;exitDx=0;exitDy=0;entryX=0;entryY=0.5;entryDx=0;entryDy=0;startArrow=classic;startFill=1;" parent="1" source="rFY-rz_WOS9prxRwEmC6-16" target="cIepVJIdWPNUekeXTL3l-4" edge="1">
          <mxGeometry relative="1" as="geometry" />
        </mxCell>
        <mxCell id="cIepVJIdWPNUekeXTL3l-13" value="one-to-many" style="edgeLabel;html=1;align=center;verticalAlign=middle;resizable=0;points=[];" parent="cIepVJIdWPNUekeXTL3l-8" vertex="1" connectable="0">
          <mxGeometry x="0.6859" relative="1" as="geometry">
            <mxPoint as="offset" />
          </mxGeometry>
        </mxCell>
        <mxCell id="cIepVJIdWPNUekeXTL3l-16" style="edgeStyle=orthogonalEdgeStyle;rounded=0;orthogonalLoop=1;jettySize=auto;html=1;exitX=0;exitY=0.5;exitDx=0;exitDy=0;entryX=0;entryY=0.5;entryDx=0;entryDy=0;startArrow=classic;startFill=1;" parent="1" source="cIepVJIdWPNUekeXTL3l-15" target="cIepVJIdWPNUekeXTL3l-14" edge="1">
          <mxGeometry relative="1" as="geometry">
            <Array as="points">
              <mxPoint x="-1630" y="-808" />
              <mxPoint x="-1630" y="-1158" />
            </Array>
          </mxGeometry>
        </mxCell>
        <mxCell id="cVVkLgNvFqvZXcf-PF3v-15" value="one-to-many" style="edgeLabel;html=1;align=center;verticalAlign=middle;resizable=0;points=[];" parent="cIepVJIdWPNUekeXTL3l-16" vertex="1" connectable="0">
          <mxGeometry x="0.7747" relative="1" as="geometry">
            <mxPoint x="-37" as="offset" />
          </mxGeometry>
        </mxCell>
        <mxCell id="cVVkLgNvFqvZXcf-PF3v-1" value="Reaction" style="swimlane;fontStyle=0;childLayout=stackLayout;horizontal=1;startSize=30;horizontalStack=0;resizeParent=1;resizeParentMax=0;resizeLast=0;collapsible=1;marginBottom=0;whiteSpace=wrap;html=1;" parent="1" vertex="1">
          <mxGeometry x="-1100" y="-940" width="200" height="180" as="geometry" />
        </mxCell>
        <mxCell id="cVVkLgNvFqvZXcf-PF3v-2" value="+ unique(commentId + reactorId)" style="text;strokeColor=none;fillColor=none;align=left;verticalAlign=middle;spacingLeft=4;spacingRight=4;overflow=hidden;points=[[0,0.5],[1,0.5]];portConstraint=eastwest;rotatable=0;whiteSpace=wrap;html=1;" parent="cVVkLgNvFqvZXcf-PF3v-1" vertex="1">
          <mxGeometry y="30" width="200" height="30" as="geometry" />
        </mxCell>
        <mxCell id="cVVkLgNvFqvZXcf-PF3v-4" value="+ comment" style="text;strokeColor=none;fillColor=none;align=left;verticalAlign=middle;spacingLeft=4;spacingRight=4;overflow=hidden;points=[[0,0.5],[1,0.5]];portConstraint=eastwest;rotatable=0;whiteSpace=wrap;html=1;" parent="cVVkLgNvFqvZXcf-PF3v-1" vertex="1">
          <mxGeometry y="60" width="200" height="30" as="geometry" />
        </mxCell>
        <mxCell id="cVVkLgNvFqvZXcf-PF3v-5" value="+ reactor" style="text;strokeColor=none;fillColor=none;align=left;verticalAlign=middle;spacingLeft=4;spacingRight=4;overflow=hidden;points=[[0,0.5],[1,0.5]];portConstraint=eastwest;rotatable=0;whiteSpace=wrap;html=1;" parent="cVVkLgNvFqvZXcf-PF3v-1" vertex="1">
          <mxGeometry y="90" width="200" height="30" as="geometry" />
        </mxCell>
        <mxCell id="cVVkLgNvFqvZXcf-PF3v-16" value="+ isLike&lt;span style=&quot;background-color: initial;&quot;&gt;&amp;nbsp;: BOOLEAN&lt;/span&gt;" style="text;strokeColor=none;fillColor=none;align=left;verticalAlign=middle;spacingLeft=4;spacingRight=4;overflow=hidden;points=[[0,0.5],[1,0.5]];portConstraint=eastwest;rotatable=0;whiteSpace=wrap;html=1;" parent="cVVkLgNvFqvZXcf-PF3v-1" vertex="1">
          <mxGeometry y="120" width="200" height="30" as="geometry" />
        </mxCell>
        <mxCell id="cVVkLgNvFqvZXcf-PF3v-6" value="+ createdAt : DATETIME" style="text;strokeColor=none;fillColor=none;align=left;verticalAlign=middle;spacingLeft=4;spacingRight=4;overflow=hidden;points=[[0,0.5],[1,0.5]];portConstraint=eastwest;rotatable=0;whiteSpace=wrap;html=1;" parent="cVVkLgNvFqvZXcf-PF3v-1" vertex="1">
          <mxGeometry y="150" width="200" height="30" as="geometry" />
        </mxCell>
        <mxCell id="cVVkLgNvFqvZXcf-PF3v-8" style="rounded=0;orthogonalLoop=1;jettySize=auto;html=1;exitX=0;exitY=0.5;exitDx=0;exitDy=0;entryX=1;entryY=0.5;entryDx=0;entryDy=0;startArrow=classic;startFill=1;" parent="1" source="cVVkLgNvFqvZXcf-PF3v-5" target="cVVkLgNvFqvZXcf-PF3v-7" edge="1">
          <mxGeometry relative="1" as="geometry" />
        </mxCell>
        <mxCell id="cVVkLgNvFqvZXcf-PF3v-12" value="one-to-many" style="edgeLabel;html=1;align=center;verticalAlign=middle;resizable=0;points=[];" parent="cVVkLgNvFqvZXcf-PF3v-8" vertex="1" connectable="0">
          <mxGeometry x="-0.193" relative="1" as="geometry">
            <mxPoint as="offset" />
          </mxGeometry>
        </mxCell>
        <mxCell id="cVVkLgNvFqvZXcf-PF3v-11" style="edgeStyle=orthogonalEdgeStyle;rounded=0;orthogonalLoop=1;jettySize=auto;html=1;exitX=0;exitY=0.5;exitDx=0;exitDy=0;entryX=1;entryY=0.5;entryDx=0;entryDy=0;startArrow=classic;startFill=1;" parent="1" source="cVVkLgNvFqvZXcf-PF3v-4" target="cVVkLgNvFqvZXcf-PF3v-10" edge="1">
          <mxGeometry relative="1" as="geometry">
            <Array as="points">
              <mxPoint x="-1210" y="-865" />
              <mxPoint x="-1210" y="-1128" />
            </Array>
          </mxGeometry>
        </mxCell>
        <mxCell id="cVVkLgNvFqvZXcf-PF3v-14" value="one-to-many" style="edgeLabel;html=1;align=center;verticalAlign=middle;resizable=0;points=[];" parent="cVVkLgNvFqvZXcf-PF3v-11" vertex="1" connectable="0">
          <mxGeometry x="-0.7127" y="-3" relative="1" as="geometry">
            <mxPoint as="offset" />
          </mxGeometry>
        </mxCell>
        <mxCell id="PgTkkJ_BFa4D4Vha9WE_-2" value="Genre" style="swimlane;fontStyle=0;childLayout=stackLayout;horizontal=1;startSize=30;horizontalStack=0;resizeParent=1;resizeParentMax=0;resizeLast=0;collapsible=1;marginBottom=0;whiteSpace=wrap;html=1;" parent="1" vertex="1">
          <mxGeometry x="-2692.5" y="-863" width="200" height="120" as="geometry" />
        </mxCell>
        <mxCell id="PgTkkJ_BFa4D4Vha9WE_-3" value="+ id : UUID string" style="text;strokeColor=none;fillColor=none;align=left;verticalAlign=middle;spacingLeft=4;spacingRight=4;overflow=hidden;points=[[0,0.5],[1,0.5]];portConstraint=eastwest;rotatable=0;whiteSpace=wrap;html=1;" parent="PgTkkJ_BFa4D4Vha9WE_-2" vertex="1">
          <mxGeometry y="30" width="200" height="30" as="geometry" />
        </mxCell>
        <mxCell id="PgTkkJ_BFa4D4Vha9WE_-4" value="+ name : NVARCHAR (100)" style="text;strokeColor=none;fillColor=none;align=left;verticalAlign=middle;spacingLeft=4;spacingRight=4;overflow=hidden;points=[[0,0.5],[1,0.5]];portConstraint=eastwest;rotatable=0;whiteSpace=wrap;html=1;" parent="PgTkkJ_BFa4D4Vha9WE_-2" vertex="1">
          <mxGeometry y="60" width="200" height="30" as="geometry" />
        </mxCell>
        <mxCell id="PgTkkJ_BFa4D4Vha9WE_-7" value="+ songs" style="text;strokeColor=none;fillColor=none;align=left;verticalAlign=middle;spacingLeft=4;spacingRight=4;overflow=hidden;points=[[0,0.5],[1,0.5]];portConstraint=eastwest;rotatable=0;whiteSpace=wrap;html=1;" parent="PgTkkJ_BFa4D4Vha9WE_-2" vertex="1">
          <mxGeometry y="90" width="200" height="30" as="geometry" />
        </mxCell>
        <mxCell id="PgTkkJ_BFa4D4Vha9WE_-13" value="Tag" style="swimlane;fontStyle=0;childLayout=stackLayout;horizontal=1;startSize=30;horizontalStack=0;resizeParent=1;resizeParentMax=0;resizeLast=0;collapsible=1;marginBottom=0;whiteSpace=wrap;html=1;" parent="1" vertex="1">
          <mxGeometry x="-2692.5" y="-693" width="200" height="120" as="geometry" />
        </mxCell>
        <mxCell id="PgTkkJ_BFa4D4Vha9WE_-14" value="+ id : UUID string" style="text;strokeColor=none;fillColor=none;align=left;verticalAlign=middle;spacingLeft=4;spacingRight=4;overflow=hidden;points=[[0,0.5],[1,0.5]];portConstraint=eastwest;rotatable=0;whiteSpace=wrap;html=1;" parent="PgTkkJ_BFa4D4Vha9WE_-13" vertex="1">
          <mxGeometry y="30" width="200" height="30" as="geometry" />
        </mxCell>
        <mxCell id="PgTkkJ_BFa4D4Vha9WE_-15" value="+ name : NVARCHAR (100)" style="text;strokeColor=none;fillColor=none;align=left;verticalAlign=middle;spacingLeft=4;spacingRight=4;overflow=hidden;points=[[0,0.5],[1,0.5]];portConstraint=eastwest;rotatable=0;whiteSpace=wrap;html=1;" parent="PgTkkJ_BFa4D4Vha9WE_-13" vertex="1">
          <mxGeometry y="60" width="200" height="30" as="geometry" />
        </mxCell>
        <mxCell id="PgTkkJ_BFa4D4Vha9WE_-16" value="+ songs" style="text;strokeColor=none;fillColor=none;align=left;verticalAlign=middle;spacingLeft=4;spacingRight=4;overflow=hidden;points=[[0,0.5],[1,0.5]];portConstraint=eastwest;rotatable=0;whiteSpace=wrap;html=1;" parent="PgTkkJ_BFa4D4Vha9WE_-13" vertex="1">
          <mxGeometry y="90" width="200" height="30" as="geometry" />
        </mxCell>
        <mxCell id="PgTkkJ_BFa4D4Vha9WE_-17" style="edgeStyle=orthogonalEdgeStyle;rounded=0;orthogonalLoop=1;jettySize=auto;html=1;exitX=0;exitY=0.5;exitDx=0;exitDy=0;entryX=1;entryY=0.5;entryDx=0;entryDy=0;startArrow=classic;startFill=1;" parent="1" source="PgTkkJ_BFa4D4Vha9WE_-11" target="PgTkkJ_BFa4D4Vha9WE_-16" edge="1">
          <mxGeometry relative="1" as="geometry">
            <Array as="points">
              <mxPoint x="-2333" y="-868" />
              <mxPoint x="-2333" y="-588" />
            </Array>
          </mxGeometry>
        </mxCell>
        <mxCell id="PgTkkJ_BFa4D4Vha9WE_-20" value="many-to-many" style="edgeLabel;html=1;align=center;verticalAlign=middle;resizable=0;points=[];" parent="PgTkkJ_BFa4D4Vha9WE_-17" vertex="1" connectable="0">
          <mxGeometry x="0.7933" y="1" relative="1" as="geometry">
            <mxPoint as="offset" />
          </mxGeometry>
        </mxCell>
        <mxCell id="PgTkkJ_BFa4D4Vha9WE_-18" style="edgeStyle=orthogonalEdgeStyle;rounded=0;orthogonalLoop=1;jettySize=auto;html=1;exitX=0;exitY=0.5;exitDx=0;exitDy=0;entryX=1;entryY=0.5;entryDx=0;entryDy=0;startArrow=classic;startFill=1;" parent="1" source="PgTkkJ_BFa4D4Vha9WE_-1" target="PgTkkJ_BFa4D4Vha9WE_-7" edge="1">
          <mxGeometry relative="1" as="geometry">
            <Array as="points">
              <mxPoint x="-2373" y="-898" />
              <mxPoint x="-2373" y="-758" />
            </Array>
          </mxGeometry>
        </mxCell>
        <mxCell id="PgTkkJ_BFa4D4Vha9WE_-19" value="many-to-many" style="edgeLabel;html=1;align=center;verticalAlign=middle;resizable=0;points=[];" parent="PgTkkJ_BFa4D4Vha9WE_-18" vertex="1" connectable="0">
          <mxGeometry x="0.8076" relative="1" as="geometry">
            <mxPoint as="offset" />
          </mxGeometry>
        </mxCell>
        <mxCell id="IgH56LYgwVDKT2t8ZM1N-27" style="edgeStyle=orthogonalEdgeStyle;rounded=0;orthogonalLoop=1;jettySize=auto;html=1;exitX=0;exitY=0.5;exitDx=0;exitDy=0;entryX=1;entryY=0.5;entryDx=0;entryDy=0;startArrow=classic;startFill=1;" parent="1" source="IgH56LYgwVDKT2t8ZM1N-26" target="IgH56LYgwVDKT2t8ZM1N-25" edge="1">
          <mxGeometry relative="1" as="geometry">
            <Array as="points">
              <mxPoint x="-1780" y="-718" />
              <mxPoint x="-1780" y="-808" />
            </Array>
          </mxGeometry>
        </mxCell>
        <mxCell id="IgH56LYgwVDKT2t8ZM1N-28" value="many-to-many" style="edgeLabel;html=1;align=center;verticalAlign=middle;resizable=0;points=[];" parent="IgH56LYgwVDKT2t8ZM1N-27" vertex="1" connectable="0">
          <mxGeometry x="-0.6836" y="1" relative="1" as="geometry">
            <mxPoint as="offset" />
          </mxGeometry>
        </mxCell>
        <mxCell id="6JZ951tkPi9Nr6TmQ6ol-10" value="User Profile" style="swimlane;fontStyle=0;childLayout=stackLayout;horizontal=1;startSize=26;fillColor=none;horizontalStack=0;resizeParent=1;resizeParentMax=0;resizeLast=0;collapsible=1;marginBottom=0;whiteSpace=wrap;html=1;" parent="1" vertex="1">
          <mxGeometry x="-750.29" y="-1490" width="207.79" height="434" as="geometry" />
        </mxCell>
        <mxCell id="6JZ951tkPi9Nr6TmQ6ol-11" value="+ id : UUID string" style="text;strokeColor=none;fillColor=none;align=left;verticalAlign=top;spacingLeft=4;spacingRight=4;overflow=hidden;rotatable=0;points=[[0,0.5],[1,0.5]];portConstraint=eastwest;whiteSpace=wrap;html=1;" parent="6JZ951tkPi9Nr6TmQ6ol-10" vertex="1">
          <mxGeometry y="26" width="207.79" height="26" as="geometry" />
        </mxCell>
        <mxCell id="6JZ951tkPi9Nr6TmQ6ol-12" value="+ userId : UUID string" style="text;strokeColor=none;fillColor=none;align=left;verticalAlign=top;spacingLeft=4;spacingRight=4;overflow=hidden;rotatable=0;points=[[0,0.5],[1,0.5]];portConstraint=eastwest;whiteSpace=wrap;html=1;" parent="6JZ951tkPi9Nr6TmQ6ol-10" vertex="1">
          <mxGeometry y="52" width="207.79" height="28" as="geometry" />
        </mxCell>
        <mxCell id="mf2Bld0XbRjCkK78bz_a-15" value="+ displayName : NVARCHAR (50)" style="text;strokeColor=none;fillColor=none;align=left;verticalAlign=top;spacingLeft=4;spacingRight=4;overflow=hidden;rotatable=0;points=[[0,0.5],[1,0.5]];portConstraint=eastwest;whiteSpace=wrap;html=1;" parent="6JZ951tkPi9Nr6TmQ6ol-10" vertex="1">
          <mxGeometry y="80" width="207.79" height="26" as="geometry" />
        </mxCell>
        <mxCell id="IgH56LYgwVDKT2t8ZM1N-1" value="+ firstName : NVARCHAR (50)" style="text;strokeColor=none;fillColor=none;align=left;verticalAlign=top;spacingLeft=4;spacingRight=4;overflow=hidden;rotatable=0;points=[[0,0.5],[1,0.5]];portConstraint=eastwest;whiteSpace=wrap;html=1;" parent="6JZ951tkPi9Nr6TmQ6ol-10" vertex="1">
          <mxGeometry y="106" width="207.79" height="26" as="geometry" />
        </mxCell>
        <mxCell id="IgH56LYgwVDKT2t8ZM1N-2" value="+ lastName : NVARCHAR (50)" style="text;strokeColor=none;fillColor=none;align=left;verticalAlign=top;spacingLeft=4;spacingRight=4;overflow=hidden;rotatable=0;points=[[0,0.5],[1,0.5]];portConstraint=eastwest;whiteSpace=wrap;html=1;" parent="6JZ951tkPi9Nr6TmQ6ol-10" vertex="1">
          <mxGeometry y="132" width="207.79" height="26" as="geometry" />
        </mxCell>
        <mxCell id="IgH56LYgwVDKT2t8ZM1N-3" value="+ birthday : DATE" style="text;strokeColor=none;fillColor=none;align=left;verticalAlign=top;spacingLeft=4;spacingRight=4;overflow=hidden;rotatable=0;points=[[0,0.5],[1,0.5]];portConstraint=eastwest;whiteSpace=wrap;html=1;" parent="6JZ951tkPi9Nr6TmQ6ol-10" vertex="1">
          <mxGeometry y="158" width="207.79" height="26" as="geometry" />
        </mxCell>
        <mxCell id="IgH56LYgwVDKT2t8ZM1N-4" value="+ gender : VARCHAR (6)&lt;div&gt;&amp;nbsp; &amp;nbsp;[MALE, FEMALE, OTHER]&lt;/div&gt;" style="text;strokeColor=none;fillColor=none;align=left;verticalAlign=top;spacingLeft=4;spacingRight=4;overflow=hidden;rotatable=0;points=[[0,0.5],[1,0.5]];portConstraint=eastwest;whiteSpace=wrap;html=1;" parent="6JZ951tkPi9Nr6TmQ6ol-10" vertex="1">
          <mxGeometry y="184" width="207.79" height="34" as="geometry" />
        </mxCell>
        <mxCell id="IgH56LYgwVDKT2t8ZM1N-35" value="+ preferredQuality : VARCHAR (6)&lt;div&gt;&amp;nbsp; &amp;nbsp;[LOW, MEDIUM, HIGH]&lt;/div&gt;" style="text;strokeColor=none;fillColor=none;align=left;verticalAlign=top;spacingLeft=4;spacingRight=4;overflow=hidden;rotatable=0;points=[[0,0.5],[1,0.5]];portConstraint=eastwest;whiteSpace=wrap;html=1;" parent="6JZ951tkPi9Nr6TmQ6ol-10" vertex="1">
          <mxGeometry y="218" width="207.79" height="34" as="geometry" />
        </mxCell>
        <mxCell id="6JZ951tkPi9Nr6TmQ6ol-20" value="+ biography : NVARCHAR (400)" style="text;strokeColor=none;fillColor=none;align=left;verticalAlign=top;spacingLeft=4;spacingRight=4;overflow=hidden;rotatable=0;points=[[0,0.5],[1,0.5]];portConstraint=eastwest;whiteSpace=wrap;html=1;" parent="6JZ951tkPi9Nr6TmQ6ol-10" vertex="1">
          <mxGeometry y="252" width="207.79" height="26" as="geometry" />
        </mxCell>
        <mxCell id="IgH56LYgwVDKT2t8ZM1N-13" value="+ country" style="text;strokeColor=none;fillColor=none;align=left;verticalAlign=top;spacingLeft=4;spacingRight=4;overflow=hidden;rotatable=0;points=[[0,0.5],[1,0.5]];portConstraint=eastwest;whiteSpace=wrap;html=1;" parent="6JZ951tkPi9Nr6TmQ6ol-10" vertex="1">
          <mxGeometry y="278" width="207.79" height="26" as="geometry" />
        </mxCell>
        <mxCell id="6JZ951tkPi9Nr6TmQ6ol-17" value="+ numberOfFollowers : INTEGER" style="text;strokeColor=none;fillColor=none;align=left;verticalAlign=top;spacingLeft=4;spacingRight=4;overflow=hidden;rotatable=0;points=[[0,0.5],[1,0.5]];portConstraint=eastwest;whiteSpace=wrap;html=1;" parent="6JZ951tkPi9Nr6TmQ6ol-10" vertex="1">
          <mxGeometry y="304" width="207.79" height="26" as="geometry" />
        </mxCell>
        <mxCell id="6JZ951tkPi9Nr6TmQ6ol-18" value="+ numberOfFollowings : INTEGER" style="text;strokeColor=none;fillColor=none;align=left;verticalAlign=top;spacingLeft=4;spacingRight=4;overflow=hidden;rotatable=0;points=[[0,0.5],[1,0.5]];portConstraint=eastwest;whiteSpace=wrap;html=1;" parent="6JZ951tkPi9Nr6TmQ6ol-10" vertex="1">
          <mxGeometry y="330" width="207.79" height="26" as="geometry" />
        </mxCell>
        <mxCell id="cVVkLgNvFqvZXcf-PF3v-27" value="+ followings" style="text;strokeColor=none;fillColor=none;align=left;verticalAlign=top;spacingLeft=4;spacingRight=4;overflow=hidden;rotatable=0;points=[[0,0.5],[1,0.5]];portConstraint=eastwest;whiteSpace=wrap;html=1;" parent="6JZ951tkPi9Nr6TmQ6ol-10" vertex="1">
          <mxGeometry y="356" width="207.79" height="26" as="geometry" />
        </mxCell>
        <mxCell id="cVVkLgNvFqvZXcf-PF3v-26" value="+ followers" style="text;strokeColor=none;fillColor=none;align=left;verticalAlign=top;spacingLeft=4;spacingRight=4;overflow=hidden;rotatable=0;points=[[0,0.5],[1,0.5]];portConstraint=eastwest;whiteSpace=wrap;html=1;" parent="6JZ951tkPi9Nr6TmQ6ol-10" vertex="1">
          <mxGeometry y="382" width="207.79" height="26" as="geometry" />
        </mxCell>
        <mxCell id="6JZ951tkPi9Nr6TmQ6ol-21" value="+ updatedAt : DATETIME" style="text;strokeColor=none;fillColor=none;align=left;verticalAlign=top;spacingLeft=4;spacingRight=4;overflow=hidden;rotatable=0;points=[[0,0.5],[1,0.5]];portConstraint=eastwest;whiteSpace=wrap;html=1;" parent="6JZ951tkPi9Nr6TmQ6ol-10" vertex="1">
          <mxGeometry y="408" width="207.79" height="26" as="geometry" />
        </mxCell>
        <mxCell id="cVVkLgNvFqvZXcf-PF3v-19" value="Follower" style="swimlane;fontStyle=0;childLayout=stackLayout;horizontal=1;startSize=26;fillColor=none;horizontalStack=0;resizeParent=1;resizeParentMax=0;resizeLast=0;collapsible=1;marginBottom=0;whiteSpace=wrap;html=1;" parent="1" vertex="1">
          <mxGeometry x="-1085" y="-1186" width="170" height="130" as="geometry" />
        </mxCell>
        <mxCell id="cVVkLgNvFqvZXcf-PF3v-20" value="+ id : UUID string" style="text;strokeColor=none;fillColor=none;align=left;verticalAlign=top;spacingLeft=4;spacingRight=4;overflow=hidden;rotatable=0;points=[[0,0.5],[1,0.5]];portConstraint=eastwest;whiteSpace=wrap;html=1;" parent="cVVkLgNvFqvZXcf-PF3v-19" vertex="1">
          <mxGeometry y="26" width="170" height="26" as="geometry" />
        </mxCell>
        <mxCell id="cVVkLgNvFqvZXcf-PF3v-21" value="+ follower" style="text;strokeColor=none;fillColor=none;align=left;verticalAlign=top;spacingLeft=4;spacingRight=4;overflow=hidden;rotatable=0;points=[[0,0.5],[1,0.5]];portConstraint=eastwest;whiteSpace=wrap;html=1;" parent="cVVkLgNvFqvZXcf-PF3v-19" vertex="1">
          <mxGeometry y="52" width="170" height="26" as="geometry" />
        </mxCell>
        <mxCell id="cVVkLgNvFqvZXcf-PF3v-22" value="+ following" style="text;strokeColor=none;fillColor=none;align=left;verticalAlign=top;spacingLeft=4;spacingRight=4;overflow=hidden;rotatable=0;points=[[0,0.5],[1,0.5]];portConstraint=eastwest;whiteSpace=wrap;html=1;" parent="cVVkLgNvFqvZXcf-PF3v-19" vertex="1">
          <mxGeometry y="78" width="170" height="26" as="geometry" />
        </mxCell>
        <mxCell id="cVVkLgNvFqvZXcf-PF3v-25" value="+ createdAt : DATETIME" style="text;strokeColor=none;fillColor=none;align=left;verticalAlign=top;spacingLeft=4;spacingRight=4;overflow=hidden;rotatable=0;points=[[0,0.5],[1,0.5]];portConstraint=eastwest;whiteSpace=wrap;html=1;" parent="cVVkLgNvFqvZXcf-PF3v-19" vertex="1">
          <mxGeometry y="104" width="170" height="26" as="geometry" />
        </mxCell>
        <mxCell id="cVVkLgNvFqvZXcf-PF3v-30" style="rounded=0;orthogonalLoop=1;jettySize=auto;html=1;exitX=1;exitY=0.5;exitDx=0;exitDy=0;entryX=0;entryY=0.5;entryDx=0;entryDy=0;startArrow=classic;startFill=1;" parent="1" source="cVVkLgNvFqvZXcf-PF3v-22" target="cVVkLgNvFqvZXcf-PF3v-26" edge="1">
          <mxGeometry relative="1" as="geometry" />
        </mxCell>
        <mxCell id="cVVkLgNvFqvZXcf-PF3v-33" value="many-to-one" style="edgeLabel;html=1;align=center;verticalAlign=middle;resizable=0;points=[];" parent="cVVkLgNvFqvZXcf-PF3v-30" vertex="1" connectable="0">
          <mxGeometry x="-0.0776" y="-1" relative="1" as="geometry">
            <mxPoint as="offset" />
          </mxGeometry>
        </mxCell>
        <mxCell id="cVVkLgNvFqvZXcf-PF3v-31" style="rounded=0;orthogonalLoop=1;jettySize=auto;html=1;exitX=0;exitY=0.5;exitDx=0;exitDy=0;entryX=1;entryY=0.5;entryDx=0;entryDy=0;startArrow=classic;startFill=1;" parent="1" source="cVVkLgNvFqvZXcf-PF3v-27" target="cVVkLgNvFqvZXcf-PF3v-21" edge="1">
          <mxGeometry relative="1" as="geometry" />
        </mxCell>
        <mxCell id="cVVkLgNvFqvZXcf-PF3v-32" value="many-to-one" style="edgeLabel;html=1;align=center;verticalAlign=middle;resizable=0;points=[];" parent="cVVkLgNvFqvZXcf-PF3v-31" vertex="1" connectable="0">
          <mxGeometry x="0.0776" relative="1" as="geometry">
            <mxPoint as="offset" />
          </mxGeometry>
        </mxCell>
        <mxCell id="IgH56LYgwVDKT2t8ZM1N-5" value="Country" style="swimlane;fontStyle=0;childLayout=stackLayout;horizontal=1;startSize=26;fillColor=none;horizontalStack=0;resizeParent=1;resizeParentMax=0;resizeLast=0;collapsible=1;marginBottom=0;whiteSpace=wrap;html=1;" parent="1" vertex="1">
          <mxGeometry x="-410" y="-1290" width="207.79" height="104" as="geometry" />
        </mxCell>
        <mxCell id="IgH56LYgwVDKT2t8ZM1N-6" value="+ id : SMALLINT" style="text;strokeColor=none;fillColor=none;align=left;verticalAlign=top;spacingLeft=4;spacingRight=4;overflow=hidden;rotatable=0;points=[[0,0.5],[1,0.5]];portConstraint=eastwest;whiteSpace=wrap;html=1;" parent="IgH56LYgwVDKT2t8ZM1N-5" vertex="1">
          <mxGeometry y="26" width="207.79" height="26" as="geometry" />
        </mxCell>
        <mxCell id="IgH56LYgwVDKT2t8ZM1N-12" value="+ name : VARCHAR (100)" style="text;strokeColor=none;fillColor=none;align=left;verticalAlign=top;spacingLeft=4;spacingRight=4;overflow=hidden;rotatable=0;points=[[0,0.5],[1,0.5]];portConstraint=eastwest;whiteSpace=wrap;html=1;" parent="IgH56LYgwVDKT2t8ZM1N-5" vertex="1">
          <mxGeometry y="52" width="207.79" height="26" as="geometry" />
        </mxCell>
        <mxCell id="IgH56LYgwVDKT2t8ZM1N-14" value="+ users" style="text;strokeColor=none;fillColor=none;align=left;verticalAlign=top;spacingLeft=4;spacingRight=4;overflow=hidden;rotatable=0;points=[[0,0.5],[1,0.5]];portConstraint=eastwest;whiteSpace=wrap;html=1;" parent="IgH56LYgwVDKT2t8ZM1N-5" vertex="1">
          <mxGeometry y="78" width="207.79" height="26" as="geometry" />
        </mxCell>
        <mxCell id="IgH56LYgwVDKT2t8ZM1N-15" style="rounded=0;orthogonalLoop=1;jettySize=auto;html=1;exitX=1;exitY=0.5;exitDx=0;exitDy=0;entryX=0;entryY=0.5;entryDx=0;entryDy=0;startArrow=classic;startFill=1;" parent="1" source="IgH56LYgwVDKT2t8ZM1N-13" target="IgH56LYgwVDKT2t8ZM1N-14" edge="1">
          <mxGeometry relative="1" as="geometry" />
        </mxCell>
        <mxCell id="IgH56LYgwVDKT2t8ZM1N-16" value="many-to-one" style="edgeLabel;html=1;align=center;verticalAlign=middle;resizable=0;points=[];" parent="IgH56LYgwVDKT2t8ZM1N-15" vertex="1" connectable="0">
          <mxGeometry x="-0.0497" y="-1" relative="1" as="geometry">
            <mxPoint y="-2" as="offset" />
          </mxGeometry>
        </mxCell>
        <mxCell id="mf2Bld0XbRjCkK78bz_a-22" value="" style="group" parent="1" vertex="1" connectable="0">
          <mxGeometry x="-2790" y="-1800" width="410" height="140" as="geometry" />
        </mxCell>
        <mxCell id="IgH56LYgwVDKT2t8ZM1N-31" value="" style="shape=note;whiteSpace=wrap;html=1;backgroundOutline=1;darkOpacity=0.05;" parent="mf2Bld0XbRjCkK78bz_a-22" vertex="1">
          <mxGeometry width="410" height="140.00000000000003" as="geometry" />
        </mxCell>
        <mxCell id="IgH56LYgwVDKT2t8ZM1N-32" value="&lt;font style=&quot;font-size: 20px;&quot;&gt;FOR EVERY RELATION &quot;&lt;i&gt;MANY-TO-MANY&quot;&lt;/i&gt;&amp;nbsp;INTERMEDIATE TABLE SHOULD HAVE ADDITIONAL FIELD/S&lt;/font&gt;" style="text;html=1;align=center;verticalAlign=middle;whiteSpace=wrap;rounded=0;" parent="mf2Bld0XbRjCkK78bz_a-22" vertex="1">
          <mxGeometry width="361.76470588235304" height="140.00000000000003" as="geometry" />
        </mxCell>
        <mxCell id="mf2Bld0XbRjCkK78bz_a-23" value="&lt;font style=&quot;font-size: 20px;&quot;&gt;Main Api Microservice&lt;/font&gt;" style="text;html=1;align=center;verticalAlign=middle;resizable=0;points=[];autosize=1;strokeColor=none;fillColor=none;" parent="1" vertex="1">
          <mxGeometry x="160" y="324" width="220" height="40" as="geometry" />
        </mxCell>
      </root>
    </mxGraphModel>
  </diagram>
</mxfile>
